G04*
G04 #@! TF.GenerationSoftware,Altium Limited,Altium Designer,21.7.2 (23)*
G04*
G04 Layer_Physical_Order=10*
G04 Layer_Color=16737945*
%FSLAX43Y43*%
%MOMM*%
G71*
G04*
G04 #@! TF.SameCoordinates,9207B031-9538-4005-B85C-AF880B68FBDC*
G04*
G04*
G04 #@! TF.FilePolarity,Positive*
G04*
G01*
G75*
%ADD12C,0.200*%
%ADD69C,1.500*%
%ADD71C,1.600*%
%ADD162C,0.600*%
%ADD166C,0.185*%
%ADD168C,0.110*%
%ADD170R,2.500X2.500*%
%ADD171C,4.500*%
%ADD172C,6.000*%
%ADD173O,0.500X1.500*%
%ADD174C,2.200*%
G04:AMPARAMS|DCode=175|XSize=2.7mm|YSize=2.7mm|CornerRadius=0.27mm|HoleSize=0mm|Usage=FLASHONLY|Rotation=0.000|XOffset=0mm|YOffset=0mm|HoleType=Round|Shape=RoundedRectangle|*
%AMROUNDEDRECTD175*
21,1,2.700,2.160,0,0,0.0*
21,1,2.160,2.700,0,0,0.0*
1,1,0.540,1.080,-1.080*
1,1,0.540,-1.080,-1.080*
1,1,0.540,-1.080,1.080*
1,1,0.540,1.080,1.080*
%
%ADD175ROUNDEDRECTD175*%
G04:AMPARAMS|DCode=176|XSize=2.7mm|YSize=2.7mm|CornerRadius=0.27mm|HoleSize=0mm|Usage=FLASHONLY|Rotation=270.000|XOffset=0mm|YOffset=0mm|HoleType=Round|Shape=RoundedRectangle|*
%AMROUNDEDRECTD176*
21,1,2.700,2.160,0,0,270.0*
21,1,2.160,2.700,0,0,270.0*
1,1,0.540,-1.080,-1.080*
1,1,0.540,-1.080,1.080*
1,1,0.540,1.080,1.080*
1,1,0.540,1.080,-1.080*
%
%ADD176ROUNDEDRECTD176*%
G04:AMPARAMS|DCode=177|XSize=1.73mm|YSize=1.73mm|CornerRadius=0.173mm|HoleSize=0mm|Usage=FLASHONLY|Rotation=270.000|XOffset=0mm|YOffset=0mm|HoleType=Round|Shape=RoundedRectangle|*
%AMROUNDEDRECTD177*
21,1,1.730,1.384,0,0,270.0*
21,1,1.384,1.730,0,0,270.0*
1,1,0.346,-0.692,-0.692*
1,1,0.346,-0.692,0.692*
1,1,0.346,0.692,0.692*
1,1,0.346,0.692,-0.692*
%
%ADD177ROUNDEDRECTD177*%
G04:AMPARAMS|DCode=178|XSize=1.73mm|YSize=1.73mm|CornerRadius=0.173mm|HoleSize=0mm|Usage=FLASHONLY|Rotation=315.000|XOffset=0mm|YOffset=0mm|HoleType=Round|Shape=RoundedRectangle|*
%AMROUNDEDRECTD178*
21,1,1.730,1.384,0,0,315.0*
21,1,1.384,1.730,0,0,315.0*
1,1,0.346,0.000,-0.979*
1,1,0.346,-0.979,0.000*
1,1,0.346,0.000,0.979*
1,1,0.346,0.979,0.000*
%
%ADD178ROUNDEDRECTD178*%
G04:AMPARAMS|DCode=179|XSize=3.4mm|YSize=3.4mm|CornerRadius=0.34mm|HoleSize=0mm|Usage=FLASHONLY|Rotation=0.000|XOffset=0mm|YOffset=0mm|HoleType=Round|Shape=RoundedRectangle|*
%AMROUNDEDRECTD179*
21,1,3.400,2.720,0,0,0.0*
21,1,2.720,3.400,0,0,0.0*
1,1,0.680,1.360,-1.360*
1,1,0.680,-1.360,-1.360*
1,1,0.680,-1.360,1.360*
1,1,0.680,1.360,1.360*
%
%ADD179ROUNDEDRECTD179*%
G04:AMPARAMS|DCode=180|XSize=0.9mm|YSize=1.8mm|CornerRadius=0.225mm|HoleSize=0mm|Usage=FLASHONLY|Rotation=180.000|XOffset=0mm|YOffset=0mm|HoleType=Round|Shape=RoundedRectangle|*
%AMROUNDEDRECTD180*
21,1,0.900,1.350,0,0,180.0*
21,1,0.450,1.800,0,0,180.0*
1,1,0.450,-0.225,0.675*
1,1,0.450,0.225,0.675*
1,1,0.450,0.225,-0.675*
1,1,0.450,-0.225,-0.675*
%
%ADD180ROUNDEDRECTD180*%
G04:AMPARAMS|DCode=181|XSize=1mm|YSize=1.8mm|CornerRadius=0.25mm|HoleSize=0mm|Usage=FLASHONLY|Rotation=270.000|XOffset=0mm|YOffset=0mm|HoleType=Round|Shape=RoundedRectangle|*
%AMROUNDEDRECTD181*
21,1,1.000,1.300,0,0,270.0*
21,1,0.500,1.800,0,0,270.0*
1,1,0.500,-0.650,-0.250*
1,1,0.500,-0.650,0.250*
1,1,0.500,0.650,0.250*
1,1,0.500,0.650,-0.250*
%
%ADD181ROUNDEDRECTD181*%
G04:AMPARAMS|DCode=182|XSize=1mm|YSize=1.8mm|CornerRadius=0.25mm|HoleSize=0mm|Usage=FLASHONLY|Rotation=180.000|XOffset=0mm|YOffset=0mm|HoleType=Round|Shape=RoundedRectangle|*
%AMROUNDEDRECTD182*
21,1,1.000,1.300,0,0,180.0*
21,1,0.500,1.800,0,0,180.0*
1,1,0.500,-0.250,0.650*
1,1,0.500,0.250,0.650*
1,1,0.500,0.250,-0.650*
1,1,0.500,-0.250,-0.650*
%
%ADD182ROUNDEDRECTD182*%
G04:AMPARAMS|DCode=183|XSize=1.7mm|YSize=1.7mm|CornerRadius=0.17mm|HoleSize=0mm|Usage=FLASHONLY|Rotation=270.000|XOffset=0mm|YOffset=0mm|HoleType=Round|Shape=RoundedRectangle|*
%AMROUNDEDRECTD183*
21,1,1.700,1.360,0,0,270.0*
21,1,1.360,1.700,0,0,270.0*
1,1,0.340,-0.680,-0.680*
1,1,0.340,-0.680,0.680*
1,1,0.340,0.680,0.680*
1,1,0.340,0.680,-0.680*
%
%ADD183ROUNDEDRECTD183*%
G04:AMPARAMS|DCode=184|XSize=1.7mm|YSize=1.7mm|CornerRadius=0.17mm|HoleSize=0mm|Usage=FLASHONLY|Rotation=0.000|XOffset=0mm|YOffset=0mm|HoleType=Round|Shape=RoundedRectangle|*
%AMROUNDEDRECTD184*
21,1,1.700,1.360,0,0,0.0*
21,1,1.360,1.700,0,0,0.0*
1,1,0.340,0.680,-0.680*
1,1,0.340,-0.680,-0.680*
1,1,0.340,-0.680,0.680*
1,1,0.340,0.680,0.680*
%
%ADD184ROUNDEDRECTD184*%
%ADD185C,0.600*%
%ADD186C,0.400*%
%ADD187C,0.500*%
%ADD196C,0.120*%
G36*
X183785Y189700D02*
Y189700D01*
X191240Y189700D01*
X191338Y189700D01*
X191532Y189662D01*
X191714Y189586D01*
X191877Y189477D01*
X192017Y189337D01*
X192126Y189174D01*
X192202Y188992D01*
X192240Y188798D01*
X192240Y188700D01*
X192240Y188700D01*
X192240Y188700D01*
X192240Y51000D01*
X192240Y50902D01*
X192202Y50708D01*
X192126Y50526D01*
X192017Y50363D01*
X191877Y50223D01*
X191714Y50114D01*
X191532Y50038D01*
X191338Y50000D01*
X191240Y50000D01*
X129641D01*
X129448Y50038D01*
X129266Y50114D01*
X129103Y50223D01*
X128963Y50363D01*
X128854Y50526D01*
X128778Y50708D01*
X128740Y50902D01*
X128740Y51000D01*
X128740Y51000D01*
X128740Y128305D01*
X128740Y128411D01*
X128781Y128618D01*
X128862Y128814D01*
X128980Y128990D01*
X129055Y129065D01*
X129055Y129065D01*
X138600Y138610D01*
X138665Y138682D01*
X138773Y138843D01*
X138847Y139023D01*
X138885Y139214D01*
X138890Y139311D01*
X138890Y139311D01*
X138890Y177046D01*
X138890Y177154D01*
X138932Y177366D01*
X139015Y177565D01*
X139135Y177745D01*
X139211Y177821D01*
X139211Y177821D01*
X139211Y177821D01*
X140622Y179232D01*
X140698Y179308D01*
X140876Y179427D01*
X141073Y179508D01*
X141282Y179550D01*
X141389Y179550D01*
Y179550D01*
X172779D01*
X172876Y179555D01*
X173067Y179593D01*
X173247Y179667D01*
X173408Y179775D01*
X173480Y179840D01*
Y179840D01*
X183025Y189385D01*
X183100Y189460D01*
X183276Y189578D01*
X183472Y189659D01*
X183679Y189700D01*
X183785Y189700D01*
D02*
G37*
%LPC*%
G36*
X150192Y172000D02*
X150012D01*
X149847Y171931D01*
X149721Y171805D01*
X149652Y171640D01*
Y171460D01*
X149721Y171295D01*
X149847Y171169D01*
X150012Y171100D01*
X150192D01*
X150357Y171169D01*
X150483Y171295D01*
X150552Y171460D01*
Y171640D01*
X150483Y171805D01*
X150357Y171931D01*
X150192Y172000D01*
D02*
G37*
G36*
X162990Y172000D02*
X162810D01*
X162645Y171931D01*
X162519Y171805D01*
X162450Y171640D01*
Y171460D01*
X162519Y171295D01*
X162645Y171169D01*
X162810Y171100D01*
X162990D01*
X163155Y171169D01*
X163281Y171295D01*
X163350Y171460D01*
Y171640D01*
X163281Y171805D01*
X163155Y171931D01*
X162990Y172000D01*
D02*
G37*
G36*
X167540Y170750D02*
X167360D01*
X167195Y170682D01*
X167150Y170636D01*
X167105Y170682D01*
X166939Y170750D01*
X166760D01*
X166595Y170682D01*
X166469Y170555D01*
X166400Y170390D01*
Y170210D01*
X166469Y170045D01*
X166514Y170000D01*
X166469Y169955D01*
X166400Y169790D01*
Y169611D01*
X166469Y169445D01*
X166595Y169319D01*
X166760Y169250D01*
X166939D01*
X167105Y169319D01*
X167150Y169364D01*
X167195Y169319D01*
X167360Y169250D01*
X167540D01*
X167705Y169319D01*
X167831Y169445D01*
X167900Y169611D01*
Y169790D01*
X167831Y169955D01*
X167786Y170000D01*
X167831Y170045D01*
X167900Y170210D01*
Y170390D01*
X167831Y170555D01*
X167705Y170682D01*
X167540Y170750D01*
D02*
G37*
G36*
X178540Y170750D02*
X178360D01*
X178195Y170681D01*
X178150Y170636D01*
X178105Y170681D01*
X177940Y170750D01*
X177760D01*
X177595Y170681D01*
X177469Y170555D01*
X177400Y170390D01*
Y170210D01*
X177469Y170045D01*
X177514Y170000D01*
X177469Y169955D01*
X177400Y169790D01*
Y169610D01*
X177469Y169445D01*
X177595Y169319D01*
X177760Y169250D01*
X177940D01*
X178105Y169319D01*
X178150Y169364D01*
X178195Y169319D01*
X178360Y169250D01*
X178540D01*
X178705Y169319D01*
X178831Y169445D01*
X178900Y169610D01*
Y169790D01*
X178831Y169955D01*
X178786Y170000D01*
X178831Y170045D01*
X178900Y170210D01*
Y170390D01*
X178831Y170555D01*
X178705Y170681D01*
X178540Y170750D01*
D02*
G37*
G36*
X174339Y170400D02*
X174160D01*
X173995Y170331D01*
X173950Y170286D01*
X173905Y170331D01*
X173740Y170400D01*
X173560D01*
X173395Y170331D01*
X173268Y170205D01*
X173200Y170040D01*
Y169861D01*
X173268Y169695D01*
X173314Y169650D01*
X173268Y169605D01*
X173200Y169440D01*
Y169260D01*
X173268Y169095D01*
X173395Y168969D01*
X173560Y168900D01*
X173740D01*
X173905Y168969D01*
X173950Y169014D01*
X173995Y168969D01*
X174160Y168900D01*
X174339D01*
X174505Y168969D01*
X174631Y169095D01*
X174700Y169260D01*
Y169440D01*
X174631Y169605D01*
X174586Y169650D01*
X174631Y169695D01*
X174700Y169861D01*
Y170040D01*
X174631Y170205D01*
X174505Y170331D01*
X174339Y170400D01*
D02*
G37*
G36*
X185340Y170400D02*
X185160D01*
X184995Y170331D01*
X184950Y170286D01*
X184905Y170331D01*
X184740Y170400D01*
X184560D01*
X184395Y170331D01*
X184269Y170205D01*
X184200Y170040D01*
Y169860D01*
X184269Y169695D01*
X184314Y169650D01*
X184269Y169605D01*
X184200Y169440D01*
Y169260D01*
X184269Y169095D01*
X184395Y168969D01*
X184560Y168900D01*
X184740D01*
X184905Y168969D01*
X184950Y169014D01*
X184995Y168969D01*
X185160Y168900D01*
X185340D01*
X185505Y168969D01*
X185631Y169095D01*
X185700Y169260D01*
Y169440D01*
X185631Y169605D01*
X185586Y169650D01*
X185631Y169695D01*
X185700Y169860D01*
Y170040D01*
X185631Y170205D01*
X185505Y170331D01*
X185340Y170400D01*
D02*
G37*
G36*
X181750Y171058D02*
Y170250D01*
X182158D01*
Y170650D01*
X182127Y170806D01*
X182038Y170938D01*
X181906Y171027D01*
X181750Y171058D01*
D02*
G37*
G36*
X181250Y171058D02*
X181250D01*
X181094Y171027D01*
X180962Y170938D01*
X180873Y170806D01*
X180842Y170650D01*
Y170250D01*
X181250D01*
Y171058D01*
D02*
G37*
G36*
X170750D02*
Y170250D01*
X171158D01*
Y170650D01*
X171127Y170806D01*
X171038Y170938D01*
X170906Y171027D01*
X170750Y171058D01*
D02*
G37*
G36*
X170250Y171058D02*
X170250D01*
X170094Y171027D01*
X169962Y170938D01*
X169873Y170806D01*
X169842Y170650D01*
Y170250D01*
X170250D01*
Y171058D01*
D02*
G37*
G36*
X162990Y171000D02*
X162810D01*
X162645Y170931D01*
X162519Y170805D01*
X162450Y170640D01*
Y170460D01*
X162519Y170295D01*
X162645Y170169D01*
X162810Y170100D01*
X162990D01*
X163155Y170169D01*
X163281Y170295D01*
X163350Y170460D01*
Y170640D01*
X163281Y170805D01*
X163155Y170931D01*
X162990Y171000D01*
D02*
G37*
G36*
X150192D02*
X150012D01*
X149847Y170931D01*
X149721Y170805D01*
X149652Y170640D01*
Y170460D01*
X149721Y170295D01*
X149847Y170169D01*
X150012Y170100D01*
X150192D01*
X150357Y170169D01*
X150483Y170295D01*
X150552Y170460D01*
Y170640D01*
X150483Y170805D01*
X150357Y170931D01*
X150192Y171000D01*
D02*
G37*
G36*
Y170000D02*
X150012D01*
X149847Y169931D01*
X149721Y169805D01*
X149652Y169640D01*
Y169460D01*
X149721Y169295D01*
X149847Y169169D01*
X150012Y169100D01*
X150192D01*
X150357Y169169D01*
X150483Y169295D01*
X150552Y169460D01*
Y169640D01*
X150483Y169805D01*
X150357Y169931D01*
X150192Y170000D01*
D02*
G37*
G36*
X162990Y170000D02*
X162810D01*
X162645Y169931D01*
X162519Y169805D01*
X162450Y169640D01*
Y169460D01*
X162519Y169295D01*
X162645Y169169D01*
X162810Y169100D01*
X162990D01*
X163155Y169169D01*
X163281Y169295D01*
X163350Y169460D01*
Y169640D01*
X163281Y169805D01*
X163155Y169931D01*
X162990Y170000D01*
D02*
G37*
G36*
X171158Y169750D02*
X170750D01*
Y168942D01*
X170906Y168973D01*
X171038Y169062D01*
X171127Y169194D01*
X171158Y169350D01*
Y169750D01*
D02*
G37*
G36*
X170250D02*
X169842D01*
Y169350D01*
X169873Y169194D01*
X169962Y169062D01*
X170094Y168973D01*
X170250Y168942D01*
X170250D01*
Y169750D01*
D02*
G37*
G36*
X182158Y169750D02*
X181750D01*
Y168942D01*
X181906Y168973D01*
X182038Y169062D01*
X182127Y169194D01*
X182158Y169350D01*
Y169750D01*
D02*
G37*
G36*
X181250D02*
X180842D01*
Y169350D01*
X180873Y169194D01*
X180962Y169062D01*
X181094Y168973D01*
X181250Y168942D01*
X181250D01*
Y169750D01*
D02*
G37*
G36*
X155052Y168176D02*
Y167434D01*
X155794D01*
X155741Y167631D01*
X155622Y167837D01*
X155455Y168004D01*
X155249Y168123D01*
X155052Y168176D01*
D02*
G37*
G36*
X154752D02*
X154555Y168123D01*
X154349Y168004D01*
X154182Y167837D01*
X154063Y167631D01*
X154010Y167434D01*
X154752D01*
Y168176D01*
D02*
G37*
G36*
X155794Y167134D02*
X155052D01*
Y166392D01*
X155249Y166445D01*
X155455Y166564D01*
X155622Y166731D01*
X155741Y166937D01*
X155794Y167134D01*
D02*
G37*
G36*
X154752D02*
X154010D01*
X154063Y166937D01*
X154182Y166731D01*
X154349Y166564D01*
X154555Y166445D01*
X154752Y166392D01*
Y167134D01*
D02*
G37*
G36*
X167540Y165750D02*
X167360D01*
X167195Y165682D01*
X167150Y165636D01*
X167105Y165682D01*
X166940Y165750D01*
X166760D01*
X166595Y165682D01*
X166469Y165555D01*
X166400Y165390D01*
Y165210D01*
X166469Y165045D01*
X166514Y165000D01*
X166469Y164955D01*
X166400Y164790D01*
Y164611D01*
X166469Y164445D01*
X166595Y164319D01*
X166760Y164250D01*
X166940D01*
X167105Y164319D01*
X167150Y164364D01*
X167195Y164319D01*
X167360Y164250D01*
X167540D01*
X167705Y164319D01*
X167831Y164445D01*
X167900Y164611D01*
Y164790D01*
X167831Y164955D01*
X167786Y165000D01*
X167831Y165045D01*
X167900Y165210D01*
Y165390D01*
X167831Y165555D01*
X167705Y165682D01*
X167540Y165750D01*
D02*
G37*
G36*
X178540Y165750D02*
X178360D01*
X178195Y165681D01*
X178150Y165636D01*
X178105Y165681D01*
X177940Y165750D01*
X177760D01*
X177595Y165681D01*
X177469Y165555D01*
X177400Y165390D01*
Y165210D01*
X177469Y165045D01*
X177514Y165000D01*
X177469Y164955D01*
X177400Y164790D01*
Y164610D01*
X177469Y164445D01*
X177595Y164319D01*
X177760Y164250D01*
X177940D01*
X178105Y164319D01*
X178150Y164364D01*
X178195Y164319D01*
X178360Y164250D01*
X178540D01*
X178705Y164319D01*
X178831Y164445D01*
X178900Y164610D01*
Y164790D01*
X178831Y164955D01*
X178786Y165000D01*
X178831Y165045D01*
X178900Y165210D01*
Y165390D01*
X178831Y165555D01*
X178705Y165681D01*
X178540Y165750D01*
D02*
G37*
G36*
X174339Y165400D02*
X174160D01*
X173995Y165331D01*
X173950Y165286D01*
X173905Y165331D01*
X173740Y165400D01*
X173560D01*
X173395Y165331D01*
X173269Y165205D01*
X173200Y165040D01*
Y164861D01*
X173269Y164695D01*
X173314Y164650D01*
X173269Y164605D01*
X173200Y164440D01*
Y164260D01*
X173269Y164095D01*
X173395Y163969D01*
X173560Y163900D01*
X173740D01*
X173905Y163969D01*
X173950Y164014D01*
X173995Y163969D01*
X174160Y163900D01*
X174339D01*
X174505Y163969D01*
X174631Y164095D01*
X174700Y164260D01*
Y164440D01*
X174631Y164605D01*
X174586Y164650D01*
X174631Y164695D01*
X174700Y164861D01*
Y165040D01*
X174631Y165205D01*
X174505Y165331D01*
X174339Y165400D01*
D02*
G37*
G36*
X185340Y165400D02*
X185160D01*
X184995Y165331D01*
X184950Y165286D01*
X184905Y165331D01*
X184740Y165400D01*
X184560D01*
X184395Y165331D01*
X184269Y165205D01*
X184200Y165040D01*
Y164860D01*
X184269Y164695D01*
X184314Y164650D01*
X184269Y164605D01*
X184200Y164440D01*
Y164260D01*
X184269Y164095D01*
X184395Y163969D01*
X184560Y163900D01*
X184740D01*
X184905Y163969D01*
X184950Y164014D01*
X184995Y163969D01*
X185160Y163900D01*
X185340D01*
X185505Y163969D01*
X185631Y164095D01*
X185700Y164260D01*
Y164440D01*
X185631Y164605D01*
X185586Y164650D01*
X185631Y164695D01*
X185700Y164860D01*
Y165040D01*
X185631Y165205D01*
X185505Y165331D01*
X185340Y165400D01*
D02*
G37*
G36*
X181750Y166058D02*
Y165250D01*
X182158D01*
Y165650D01*
X182127Y165806D01*
X182038Y165938D01*
X181906Y166027D01*
X181750Y166058D01*
D02*
G37*
G36*
X181250Y166058D02*
X181250D01*
X181094Y166027D01*
X180962Y165938D01*
X180873Y165806D01*
X180842Y165650D01*
Y165250D01*
X181250D01*
Y166058D01*
D02*
G37*
G36*
X170750Y166058D02*
Y165250D01*
X171158D01*
Y165650D01*
X171127Y165806D01*
X171038Y165938D01*
X170906Y166027D01*
X170750Y166058D01*
D02*
G37*
G36*
X170250D02*
X170250D01*
X170094Y166027D01*
X169962Y165938D01*
X169873Y165806D01*
X169842Y165650D01*
Y165250D01*
X170250D01*
Y166058D01*
D02*
G37*
G36*
X160240Y165034D02*
X160060D01*
X159895Y164965D01*
X159850Y164920D01*
X159805Y164965D01*
X159640Y165034D01*
X159460D01*
X159295Y164965D01*
X159250Y164920D01*
X159205Y164965D01*
X159040Y165034D01*
X158860D01*
X158695Y164965D01*
X158650Y164920D01*
X158605Y164965D01*
X158440Y165034D01*
X158260D01*
X158095Y164965D01*
X157969Y164839D01*
X157900Y164674D01*
Y164494D01*
X157969Y164329D01*
X158095Y164203D01*
X158260Y164134D01*
X158440D01*
X158605Y164203D01*
X158650Y164248D01*
X158695Y164203D01*
X158860Y164134D01*
X159040D01*
X159205Y164203D01*
X159250Y164248D01*
X159295Y164203D01*
X159460Y164134D01*
X159640D01*
X159805Y164203D01*
X159850Y164248D01*
X159895Y164203D01*
X160060Y164134D01*
X160240D01*
X160405Y164203D01*
X160531Y164329D01*
X160600Y164494D01*
Y164674D01*
X160531Y164839D01*
X160405Y164965D01*
X160240Y165034D01*
D02*
G37*
G36*
X171158Y164750D02*
X170750D01*
Y163942D01*
X170906Y163973D01*
X171038Y164062D01*
X171127Y164194D01*
X171158Y164350D01*
Y164750D01*
D02*
G37*
G36*
X170250D02*
X169842D01*
Y164350D01*
X169873Y164194D01*
X169962Y164062D01*
X170094Y163973D01*
X170250Y163942D01*
X170250D01*
Y164750D01*
D02*
G37*
G36*
X182158Y164750D02*
X181750D01*
Y163942D01*
X181906Y163973D01*
X182038Y164062D01*
X182127Y164194D01*
X182158Y164350D01*
Y164750D01*
D02*
G37*
G36*
X181250D02*
X180842D01*
Y164350D01*
X180873Y164194D01*
X180962Y164062D01*
X181094Y163973D01*
X181250Y163942D01*
X181250D01*
Y164750D01*
D02*
G37*
G36*
X160240Y164034D02*
X160060D01*
X159895Y163965D01*
X159850Y163920D01*
X159805Y163965D01*
X159640Y164034D01*
X159460D01*
X159295Y163965D01*
X159250Y163920D01*
X159205Y163965D01*
X159040Y164034D01*
X158860D01*
X158695Y163965D01*
X158650Y163920D01*
X158605Y163965D01*
X158440Y164034D01*
X158260D01*
X158095Y163965D01*
X157969Y163839D01*
X157900Y163674D01*
Y163494D01*
X157969Y163329D01*
X158095Y163203D01*
X158260Y163134D01*
X158440D01*
X158605Y163203D01*
X158650Y163248D01*
X158695Y163203D01*
X158860Y163134D01*
X159040D01*
X159205Y163203D01*
X159250Y163248D01*
X159295Y163203D01*
X159460Y163134D01*
X159640D01*
X159805Y163203D01*
X159850Y163248D01*
X159895Y163203D01*
X160060Y163134D01*
X160240D01*
X160405Y163203D01*
X160531Y163329D01*
X160600Y163494D01*
Y163674D01*
X160531Y163839D01*
X160405Y163965D01*
X160240Y164034D01*
D02*
G37*
G36*
X154820Y162950D02*
X154680D01*
X154575Y162906D01*
X154470Y162950D01*
X154330D01*
X154202Y162897D01*
X154103Y162798D01*
X154050Y162670D01*
Y162530D01*
X154103Y162402D01*
X154202Y162303D01*
X154330Y162250D01*
X154470D01*
X154575Y162294D01*
X154680Y162250D01*
X154820D01*
X154948Y162303D01*
X155047Y162402D01*
X155100Y162530D01*
Y162670D01*
X155047Y162798D01*
X154948Y162897D01*
X154820Y162950D01*
D02*
G37*
G36*
X158432Y162925D02*
X158292D01*
X158164Y162872D01*
X158065Y162773D01*
X158012Y162645D01*
Y162505D01*
X158065Y162377D01*
X158164Y162278D01*
X158292Y162225D01*
X158432D01*
X158560Y162278D01*
X158659Y162377D01*
X158712Y162505D01*
Y162645D01*
X158659Y162773D01*
X158560Y162872D01*
X158432Y162925D01*
D02*
G37*
G36*
Y161925D02*
X158292D01*
X158164Y161872D01*
X158065Y161773D01*
X158012Y161645D01*
Y161505D01*
X158065Y161377D01*
X158164Y161278D01*
X158292Y161225D01*
X158432D01*
X158560Y161278D01*
X158659Y161377D01*
X158712Y161505D01*
Y161645D01*
X158659Y161773D01*
X158560Y161872D01*
X158432Y161925D01*
D02*
G37*
G36*
X178540Y160750D02*
X178360D01*
X178195Y160681D01*
X178150Y160636D01*
X178105Y160681D01*
X177940Y160750D01*
X177760D01*
X177595Y160681D01*
X177469Y160555D01*
X177400Y160390D01*
Y160210D01*
X177469Y160045D01*
X177514Y160000D01*
X177469Y159955D01*
X177400Y159790D01*
Y159610D01*
X177469Y159445D01*
X177595Y159319D01*
X177760Y159250D01*
X177940D01*
X178105Y159319D01*
X178150Y159364D01*
X178195Y159319D01*
X178360Y159250D01*
X178540D01*
X178705Y159319D01*
X178831Y159445D01*
X178900Y159610D01*
Y159790D01*
X178831Y159955D01*
X178786Y160000D01*
X178831Y160045D01*
X178900Y160210D01*
Y160390D01*
X178831Y160555D01*
X178705Y160681D01*
X178540Y160750D01*
D02*
G37*
G36*
X185339Y160400D02*
X185160D01*
X184995Y160331D01*
X184950Y160286D01*
X184905Y160331D01*
X184740Y160400D01*
X184560D01*
X184395Y160331D01*
X184269Y160205D01*
X184200Y160040D01*
Y159860D01*
X184269Y159695D01*
X184314Y159650D01*
X184269Y159605D01*
X184200Y159440D01*
Y159260D01*
X184269Y159095D01*
X184395Y158969D01*
X184560Y158900D01*
X184740D01*
X184905Y158969D01*
X184950Y159014D01*
X184995Y158969D01*
X185160Y158900D01*
X185339D01*
X185505Y158969D01*
X185631Y159095D01*
X185700Y159260D01*
Y159440D01*
X185631Y159605D01*
X185586Y159650D01*
X185631Y159695D01*
X185700Y159860D01*
Y160040D01*
X185631Y160205D01*
X185505Y160331D01*
X185339Y160400D01*
D02*
G37*
G36*
X181750Y161058D02*
X181750D01*
Y160250D01*
X182158D01*
Y160650D01*
X182127Y160806D01*
X182038Y160938D01*
X181906Y161027D01*
X181750Y161058D01*
D02*
G37*
G36*
X181250Y161058D02*
X181094Y161027D01*
X180962Y160938D01*
X180873Y160806D01*
X180842Y160650D01*
Y160250D01*
X181250D01*
Y161058D01*
D02*
G37*
G36*
X158432Y160925D02*
X158292D01*
X158164Y160872D01*
X158065Y160773D01*
X158012Y160645D01*
Y160505D01*
X158065Y160377D01*
X158164Y160278D01*
X158292Y160225D01*
X158432D01*
X158560Y160278D01*
X158659Y160377D01*
X158712Y160505D01*
Y160645D01*
X158659Y160773D01*
X158560Y160872D01*
X158432Y160925D01*
D02*
G37*
G36*
Y159925D02*
X158292D01*
X158164Y159872D01*
X158065Y159773D01*
X158012Y159645D01*
Y159505D01*
X158065Y159377D01*
X158164Y159278D01*
X158292Y159225D01*
X158432D01*
X158560Y159278D01*
X158659Y159377D01*
X158712Y159505D01*
Y159645D01*
X158659Y159773D01*
X158560Y159872D01*
X158432Y159925D01*
D02*
G37*
G36*
X181250Y159750D02*
X180842D01*
Y159350D01*
X180873Y159194D01*
X180962Y159062D01*
X181094Y158973D01*
X181250Y158942D01*
Y159750D01*
D02*
G37*
G36*
X182158D02*
X181750D01*
Y158942D01*
X181750D01*
X181906Y158973D01*
X182038Y159062D01*
X182127Y159194D01*
X182158Y159350D01*
Y159750D01*
D02*
G37*
G36*
X151512Y163943D02*
X151372D01*
X151244Y163890D01*
X151145Y163791D01*
X151092Y163663D01*
Y163523D01*
X151145Y163395D01*
X151244Y163296D01*
X151372Y163243D01*
X151496D01*
X156031Y158708D01*
Y158415D01*
X155950Y158381D01*
X151792Y162539D01*
Y162663D01*
X151739Y162791D01*
X151640Y162890D01*
X151512Y162943D01*
X151372D01*
X151244Y162890D01*
X151145Y162791D01*
X151092Y162663D01*
Y162523D01*
X151145Y162395D01*
X151244Y162296D01*
X151372Y162243D01*
X151496D01*
X155821Y157918D01*
Y157625D01*
X155740Y157591D01*
X151792Y161539D01*
Y161663D01*
X151739Y161791D01*
X151640Y161890D01*
X151512Y161943D01*
X151372D01*
X151244Y161890D01*
X151145Y161791D01*
X151092Y161663D01*
Y161523D01*
X151145Y161395D01*
X151244Y161296D01*
X151372Y161243D01*
X151496D01*
X155611Y157128D01*
Y156835D01*
X155530Y156801D01*
X151792Y160539D01*
Y160663D01*
X151739Y160791D01*
X151640Y160890D01*
X151512Y160943D01*
X151372D01*
X151244Y160890D01*
X151145Y160791D01*
X151092Y160663D01*
Y160523D01*
X151145Y160395D01*
X151244Y160296D01*
X151372Y160243D01*
X151496D01*
X155401Y156338D01*
Y156045D01*
X155320Y156011D01*
X151792Y159539D01*
Y159663D01*
X151739Y159791D01*
X151640Y159890D01*
X151512Y159943D01*
X151372D01*
X151244Y159890D01*
X151145Y159791D01*
X151092Y159663D01*
Y159523D01*
X151145Y159395D01*
X151244Y159296D01*
X151372Y159243D01*
X151496D01*
X155191Y155548D01*
Y155255D01*
X155110Y155221D01*
X151792Y158539D01*
Y158663D01*
X151739Y158791D01*
X151640Y158890D01*
X151512Y158943D01*
X151372D01*
X151244Y158890D01*
X151145Y158791D01*
X151092Y158663D01*
Y158523D01*
X151145Y158395D01*
X151244Y158296D01*
X151372Y158243D01*
X151496D01*
X154981Y154758D01*
Y154465D01*
X154900Y154431D01*
X151792Y157539D01*
Y157663D01*
X151739Y157791D01*
X151640Y157890D01*
X151512Y157943D01*
X151372D01*
X151244Y157890D01*
X151145Y157791D01*
X151092Y157663D01*
Y157523D01*
X151145Y157395D01*
X151244Y157296D01*
X151372Y157243D01*
X151496D01*
X154771Y153968D01*
Y153675D01*
X154690Y153641D01*
X151792Y156539D01*
Y156663D01*
X151739Y156791D01*
X151640Y156890D01*
X151512Y156943D01*
X151372D01*
X151244Y156890D01*
X151145Y156791D01*
X151092Y156663D01*
Y156523D01*
X151145Y156395D01*
X151244Y156296D01*
X151372Y156243D01*
X151496D01*
X154561Y153178D01*
Y152885D01*
X154480Y152851D01*
X151792Y155539D01*
Y155663D01*
X151739Y155791D01*
X151640Y155890D01*
X151512Y155943D01*
X151372D01*
X151244Y155890D01*
X151145Y155791D01*
X151092Y155663D01*
Y155523D01*
X151145Y155395D01*
X151244Y155296D01*
X151372Y155243D01*
X151496D01*
X154351Y152388D01*
Y152095D01*
X154270Y152061D01*
X151792Y154539D01*
Y154663D01*
X151739Y154791D01*
X151640Y154890D01*
X151512Y154943D01*
X151372D01*
X151244Y154890D01*
X151145Y154791D01*
X151092Y154663D01*
Y154523D01*
X151145Y154395D01*
X151244Y154296D01*
X151372Y154243D01*
X151496D01*
X154141Y151598D01*
Y151305D01*
X154060Y151271D01*
X151792Y153539D01*
Y153663D01*
X151739Y153791D01*
X151640Y153890D01*
X151512Y153943D01*
X151372D01*
X151244Y153890D01*
X151145Y153791D01*
X151092Y153663D01*
Y153523D01*
X151145Y153395D01*
X151244Y153296D01*
X151372Y153243D01*
X151496D01*
X153931Y150808D01*
Y150515D01*
X153850Y150481D01*
X151792Y152539D01*
Y152663D01*
X151739Y152791D01*
X151640Y152890D01*
X151512Y152943D01*
X151372D01*
X151244Y152890D01*
X151145Y152791D01*
X151092Y152663D01*
Y152523D01*
X151145Y152395D01*
X151244Y152296D01*
X151372Y152243D01*
X151496D01*
X153721Y150018D01*
Y149725D01*
X153640Y149691D01*
X151792Y151539D01*
Y151663D01*
X151739Y151791D01*
X151640Y151890D01*
X151512Y151943D01*
X151372D01*
X151244Y151890D01*
X151145Y151791D01*
X151092Y151663D01*
Y151523D01*
X151145Y151395D01*
X151244Y151296D01*
X151372Y151243D01*
X151496D01*
X153511Y149228D01*
Y148935D01*
X153430Y148901D01*
X151792Y150539D01*
Y150663D01*
X151739Y150791D01*
X151640Y150890D01*
X151512Y150943D01*
X151372D01*
X151244Y150890D01*
X151145Y150791D01*
X151092Y150663D01*
Y150523D01*
X151145Y150395D01*
X151244Y150296D01*
X151372Y150243D01*
X151496D01*
X153301Y148438D01*
Y148145D01*
X153220Y148111D01*
X151792Y149539D01*
Y149663D01*
X151739Y149791D01*
X151640Y149890D01*
X151512Y149943D01*
X151372D01*
X151244Y149890D01*
X151145Y149791D01*
X151092Y149663D01*
Y149523D01*
X151145Y149395D01*
X151244Y149296D01*
X151372Y149243D01*
X151496D01*
X153091Y147648D01*
Y147355D01*
X153010Y147321D01*
X151792Y148539D01*
Y148663D01*
X151739Y148791D01*
X151640Y148890D01*
X151512Y148943D01*
X151372D01*
X151244Y148890D01*
X151145Y148791D01*
X151092Y148663D01*
Y148523D01*
X151145Y148395D01*
X151244Y148296D01*
X151372Y148243D01*
X151496D01*
X152866Y146873D01*
Y143223D01*
X152881Y143147D01*
Y142785D01*
X152897Y142705D01*
X152942Y142637D01*
X159441Y136138D01*
Y122695D01*
X159457Y122615D01*
X159502Y122547D01*
X164841Y117208D01*
X164841Y116544D01*
X164753Y116456D01*
X164700Y116328D01*
Y116188D01*
X164753Y116060D01*
X164852Y115961D01*
X164980Y115908D01*
X165120D01*
X165248Y115961D01*
X165347Y116060D01*
X165400Y116188D01*
Y116328D01*
X165347Y116456D01*
X165259Y116544D01*
X165259Y116972D01*
X165340Y117006D01*
X165794Y116552D01*
X165794Y116552D01*
X166090Y116256D01*
Y116130D01*
X166143Y116002D01*
X166242Y115903D01*
X166370Y115850D01*
X166510D01*
X166638Y115903D01*
X166690Y115955D01*
X166742Y115903D01*
X166870Y115850D01*
X167010D01*
X167138Y115903D01*
X167190Y115955D01*
X167242Y115903D01*
X167370Y115850D01*
X167510D01*
X167638Y115903D01*
X167737Y116002D01*
X167790Y116130D01*
Y116270D01*
X167783Y116287D01*
X167857Y116337D01*
X167940Y116254D01*
Y116130D01*
X167993Y116002D01*
X168092Y115903D01*
X168220Y115850D01*
X168360D01*
X168488Y115903D01*
X168540Y115955D01*
X168592Y115903D01*
X168720Y115850D01*
X168860D01*
X168988Y115903D01*
X169040Y115955D01*
X169092Y115903D01*
X169220Y115850D01*
X169360D01*
X169488Y115903D01*
X169540Y115955D01*
X169592Y115903D01*
X169720Y115850D01*
X169860D01*
X169988Y115903D01*
X170087Y116002D01*
X170140Y116130D01*
Y116270D01*
X170133Y116287D01*
X170207Y116337D01*
X170290Y116254D01*
Y116130D01*
X170343Y116002D01*
X170442Y115903D01*
X170570Y115850D01*
X170710D01*
X170838Y115903D01*
X170890Y115955D01*
X170942Y115903D01*
X171070Y115850D01*
X171210D01*
X171338Y115903D01*
X171390Y115955D01*
X171442Y115903D01*
X171570Y115850D01*
X171710D01*
X171838Y115903D01*
X171890Y115955D01*
X171942Y115903D01*
X172070Y115850D01*
X172210D01*
X172338Y115903D01*
X172437Y116002D01*
X172490Y116130D01*
Y116270D01*
X172483Y116287D01*
X172557Y116337D01*
X172640Y116254D01*
Y116130D01*
X172693Y116002D01*
X172792Y115903D01*
X172920Y115850D01*
X173060D01*
X173188Y115903D01*
X173240Y115955D01*
X173292Y115903D01*
X173420Y115850D01*
X173560D01*
X173688Y115903D01*
X173740Y115955D01*
X173792Y115903D01*
X173920Y115850D01*
X174060D01*
X174188Y115903D01*
X174240Y115955D01*
X174292Y115903D01*
X174420Y115850D01*
X174560D01*
X174688Y115903D01*
X174787Y116002D01*
X174840Y116130D01*
Y116270D01*
X174833Y116287D01*
X174907Y116337D01*
X174990Y116254D01*
Y116130D01*
X175043Y116002D01*
X175142Y115903D01*
X175270Y115850D01*
X175410D01*
X175538Y115903D01*
X175590Y115955D01*
X175642Y115903D01*
X175770Y115850D01*
X175910D01*
X176038Y115903D01*
X176090Y115955D01*
X176142Y115903D01*
X176270Y115850D01*
X176410D01*
X176538Y115903D01*
X176590Y115955D01*
X176642Y115903D01*
X176770Y115850D01*
X176910D01*
X176953Y115868D01*
X177041Y115809D01*
Y110990D01*
X177057Y110910D01*
X177102Y110842D01*
X177390Y110554D01*
Y110430D01*
X177443Y110302D01*
X177542Y110203D01*
X177670Y110150D01*
X177810D01*
X177938Y110203D01*
X178037Y110302D01*
X178090Y110430D01*
Y110570D01*
X178037Y110698D01*
X177938Y110797D01*
X177810Y110850D01*
X177686D01*
X177459Y111077D01*
Y115822D01*
X177547Y115880D01*
X177620Y115850D01*
X177760D01*
X177888Y115903D01*
X177940Y115955D01*
X177992Y115903D01*
X178120Y115850D01*
X178260D01*
X178388Y115903D01*
X178440Y115955D01*
X178492Y115903D01*
X178620Y115850D01*
X178760D01*
X178888Y115903D01*
X178940Y115955D01*
X178992Y115903D01*
X179120Y115850D01*
X179260D01*
X179328Y115878D01*
X179416Y115820D01*
Y111472D01*
X178794Y110850D01*
X178670D01*
X178542Y110797D01*
X178443Y110698D01*
X178390Y110570D01*
Y110430D01*
X178443Y110302D01*
X178542Y110203D01*
X178670Y110150D01*
X178810D01*
X178938Y110203D01*
X179037Y110302D01*
X179090Y110430D01*
Y110554D01*
X179773Y111237D01*
X179818Y111305D01*
X179834Y111385D01*
Y115811D01*
X179922Y115870D01*
X179970Y115850D01*
X180110D01*
X180238Y115903D01*
X180290Y115955D01*
X180342Y115903D01*
X180470Y115850D01*
X180610D01*
X180738Y115903D01*
X180790Y115955D01*
X180842Y115903D01*
X180970Y115850D01*
X181110D01*
X181238Y115903D01*
X181290Y115955D01*
X181342Y115903D01*
X181470Y115850D01*
X181610D01*
X181613Y115851D01*
X181686Y115802D01*
Y112742D01*
X179794Y110850D01*
X179670D01*
X179542Y110797D01*
X179443Y110698D01*
X179390Y110570D01*
Y110430D01*
X179443Y110302D01*
X179542Y110203D01*
X179670Y110150D01*
X179810D01*
X179938Y110203D01*
X180037Y110302D01*
X180090Y110430D01*
Y110554D01*
X182043Y112507D01*
X182088Y112575D01*
X182104Y112655D01*
Y117077D01*
X182088Y117157D01*
X182043Y117225D01*
X181284Y117984D01*
X181284Y117984D01*
X175304Y123964D01*
Y129108D01*
X175996Y129800D01*
X176120D01*
X176248Y129853D01*
X176347Y129952D01*
X176400Y130080D01*
Y130220D01*
X176347Y130348D01*
X176248Y130447D01*
X176120Y130500D01*
X175980D01*
X175852Y130447D01*
X175753Y130348D01*
X175700Y130220D01*
Y130096D01*
X175175Y129571D01*
X175094Y129605D01*
Y130055D01*
X175933Y130894D01*
X175978Y130962D01*
X175994Y131042D01*
Y131375D01*
X175975D01*
Y133002D01*
X175933Y133065D01*
X175100Y133898D01*
Y134020D01*
X175047Y134148D01*
X174995Y134200D01*
X175047Y134252D01*
X175100Y134380D01*
Y134520D01*
X175047Y134648D01*
X174948Y134747D01*
X174820Y134800D01*
X174680D01*
X174552Y134747D01*
X174453Y134648D01*
X174400Y134520D01*
Y134398D01*
X173897Y133895D01*
X173852Y133827D01*
X173836Y133747D01*
Y123442D01*
X173852Y123362D01*
X173897Y123294D01*
X175960Y121231D01*
X175922Y121145D01*
X175770Y121081D01*
X175644Y120955D01*
X175575Y120790D01*
Y120610D01*
X175644Y120445D01*
X175770Y120319D01*
X175936Y120250D01*
X176115D01*
X176280Y120319D01*
X176406Y120445D01*
X176470Y120597D01*
X176556Y120635D01*
X179416Y117775D01*
Y116580D01*
X179328Y116522D01*
X179260Y116550D01*
X179138D01*
X174305Y121383D01*
X174237Y121428D01*
X174157Y121444D01*
X168353D01*
X165290Y124507D01*
X165290Y124507D01*
X164899Y124898D01*
Y129712D01*
X165933Y130746D01*
X165978Y130814D01*
X165994Y130894D01*
Y131375D01*
X165975D01*
Y133002D01*
X165933Y133065D01*
X165100Y133898D01*
Y134020D01*
X165047Y134148D01*
X164995Y134200D01*
X165047Y134252D01*
X165100Y134380D01*
Y134520D01*
X165047Y134648D01*
X164948Y134747D01*
X164820Y134800D01*
X164680D01*
X164552Y134747D01*
X164453Y134648D01*
X164400Y134520D01*
Y134398D01*
X163930Y133928D01*
X163849Y133962D01*
Y137884D01*
X163833Y137964D01*
X163788Y138031D01*
X163073Y138746D01*
X163073Y138746D01*
X160414Y141405D01*
Y148326D01*
X160398Y148406D01*
X160353Y148474D01*
X159136Y149691D01*
Y151010D01*
X159120Y151090D01*
X159075Y151158D01*
X158712Y151521D01*
Y151645D01*
X158659Y151773D01*
X158560Y151872D01*
X158432Y151925D01*
X158292D01*
X158164Y151872D01*
X158065Y151773D01*
X158012Y151645D01*
Y151505D01*
X158065Y151377D01*
X158164Y151278D01*
X158292Y151225D01*
X158416D01*
X158718Y150923D01*
Y150838D01*
X158630Y150802D01*
X158560Y150872D01*
X158432Y150925D01*
X158292D01*
X158164Y150872D01*
X158065Y150773D01*
X158012Y150645D01*
Y150505D01*
X158065Y150377D01*
X158164Y150278D01*
X158292Y150225D01*
X158415D01*
X158508Y150132D01*
Y149973D01*
X158435Y149924D01*
X158432Y149925D01*
X158292D01*
X158164Y149872D01*
X158065Y149773D01*
X158012Y149645D01*
Y149505D01*
X158065Y149377D01*
X158164Y149278D01*
X158292Y149225D01*
X158416D01*
X158776Y148865D01*
X158742Y148784D01*
X158648D01*
X158560Y148872D01*
X158432Y148925D01*
X158292D01*
X158164Y148872D01*
X158065Y148773D01*
X158012Y148645D01*
Y148505D01*
X158065Y148377D01*
X158164Y148278D01*
X158292Y148225D01*
X158432D01*
X158560Y148278D01*
X158648Y148366D01*
X158978D01*
X159366Y147978D01*
Y141380D01*
X159285Y141347D01*
X156449Y144182D01*
Y158795D01*
X156433Y158875D01*
X156388Y158943D01*
X151792Y163539D01*
Y163663D01*
X151739Y163791D01*
X151640Y163890D01*
X151512Y163943D01*
D02*
G37*
G36*
X170677Y158987D02*
X170538D01*
X170409Y158934D01*
X170311Y158835D01*
X170258Y158707D01*
Y158568D01*
X170311Y158439D01*
X170409Y158341D01*
X170538Y158287D01*
X170677D01*
X170806Y158341D01*
X170904Y158439D01*
X170958Y158568D01*
Y158707D01*
X170904Y158835D01*
X170806Y158934D01*
X170677Y158987D01*
D02*
G37*
G36*
X169827D02*
X169688D01*
X169559Y158934D01*
X169461Y158835D01*
X169408Y158707D01*
Y158568D01*
X169461Y158439D01*
X169559Y158341D01*
X169688Y158287D01*
X169827D01*
X169956Y158341D01*
X170054Y158439D01*
X170108Y158568D01*
Y158707D01*
X170054Y158835D01*
X169956Y158934D01*
X169827Y158987D01*
D02*
G37*
G36*
X158432Y158925D02*
X158292D01*
X158164Y158872D01*
X158065Y158773D01*
X158012Y158645D01*
Y158505D01*
X158065Y158377D01*
X158164Y158278D01*
X158292Y158225D01*
X158432D01*
X158560Y158278D01*
X158659Y158377D01*
X158712Y158505D01*
Y158645D01*
X158659Y158773D01*
X158560Y158872D01*
X158432Y158925D01*
D02*
G37*
G36*
Y157925D02*
X158292D01*
X158164Y157872D01*
X158065Y157773D01*
X158012Y157645D01*
Y157505D01*
X158065Y157377D01*
X158164Y157278D01*
X158292Y157225D01*
X158432D01*
X158560Y157278D01*
X158659Y157377D01*
X158712Y157505D01*
Y157645D01*
X158659Y157773D01*
X158560Y157872D01*
X158432Y157925D01*
D02*
G37*
G36*
Y156925D02*
X158292D01*
X158164Y156872D01*
X158065Y156773D01*
X158012Y156645D01*
Y156505D01*
X158065Y156377D01*
X158164Y156278D01*
X158292Y156225D01*
X158432D01*
X158560Y156278D01*
X158659Y156377D01*
X158712Y156505D01*
Y156645D01*
X158659Y156773D01*
X158560Y156872D01*
X158432Y156925D01*
D02*
G37*
G36*
Y155925D02*
X158292D01*
X158164Y155872D01*
X158065Y155773D01*
X158012Y155645D01*
Y155505D01*
X158065Y155377D01*
X158164Y155278D01*
X158292Y155225D01*
X158432D01*
X158560Y155278D01*
X158659Y155377D01*
X158712Y155505D01*
Y155645D01*
X158659Y155773D01*
X158560Y155872D01*
X158432Y155925D01*
D02*
G37*
G36*
X189390Y142943D02*
Y142150D01*
X190183D01*
X190125Y142367D01*
X190000Y142583D01*
X189823Y142760D01*
X189607Y142885D01*
X189390Y142943D01*
D02*
G37*
G36*
X189090D02*
X188873Y142885D01*
X188657Y142760D01*
X188480Y142583D01*
X188355Y142367D01*
X188297Y142150D01*
X189090D01*
Y142943D01*
D02*
G37*
G36*
X151512Y141943D02*
X151372D01*
X151244Y141890D01*
X151145Y141791D01*
X151092Y141663D01*
Y141523D01*
X151145Y141395D01*
X151244Y141296D01*
X151372Y141243D01*
X151512D01*
X151640Y141296D01*
X151739Y141395D01*
X151792Y141523D01*
Y141663D01*
X151739Y141791D01*
X151640Y141890D01*
X151512Y141943D01*
D02*
G37*
G36*
X190183Y141850D02*
X189390D01*
Y141057D01*
X189607Y141115D01*
X189823Y141240D01*
X190000Y141417D01*
X190125Y141633D01*
X190183Y141850D01*
D02*
G37*
G36*
X189090D02*
X188297D01*
X188355Y141633D01*
X188480Y141417D01*
X188657Y141240D01*
X188873Y141115D01*
X189090Y141057D01*
Y141850D01*
D02*
G37*
G36*
X187365Y142950D02*
X187115D01*
X186873Y142885D01*
X186657Y142760D01*
X186480Y142583D01*
X186355Y142367D01*
X186290Y142125D01*
Y141875D01*
X186355Y141633D01*
X186480Y141417D01*
X186657Y141240D01*
X186873Y141115D01*
X187115Y141050D01*
X187365D01*
X187607Y141115D01*
X187823Y141240D01*
X188000Y141417D01*
X188125Y141633D01*
X188190Y141875D01*
Y142125D01*
X188125Y142367D01*
X188000Y142583D01*
X187823Y142760D01*
X187607Y142885D01*
X187365Y142950D01*
D02*
G37*
G36*
X151512Y140943D02*
X151372D01*
X151244Y140890D01*
X151145Y140791D01*
X151092Y140663D01*
Y140523D01*
X151145Y140395D01*
X151244Y140296D01*
X151372Y140243D01*
X151512D01*
X151640Y140296D01*
X151739Y140395D01*
X151792Y140523D01*
Y140663D01*
X151739Y140791D01*
X151640Y140890D01*
X151512Y140943D01*
D02*
G37*
G36*
X189390Y140943D02*
Y140150D01*
X190183D01*
X190125Y140367D01*
X190000Y140583D01*
X189823Y140760D01*
X189607Y140885D01*
X189390Y140943D01*
D02*
G37*
G36*
X189090Y140943D02*
X188873Y140885D01*
X188657Y140760D01*
X188480Y140583D01*
X188355Y140367D01*
X188297Y140150D01*
X189090D01*
Y140943D01*
D02*
G37*
G36*
X190183Y139850D02*
X189390D01*
Y139057D01*
X189607Y139115D01*
X189823Y139240D01*
X190000Y139417D01*
X190125Y139633D01*
X190183Y139850D01*
D02*
G37*
G36*
X189090D02*
X188297D01*
X188355Y139633D01*
X188480Y139417D01*
X188657Y139240D01*
X188873Y139115D01*
X189090Y139057D01*
Y139850D01*
D02*
G37*
G36*
X187365Y140950D02*
X187115D01*
X186873Y140885D01*
X186657Y140760D01*
X186480Y140583D01*
X186355Y140367D01*
X186290Y140125D01*
Y139875D01*
X186355Y139633D01*
X186480Y139417D01*
X186657Y139240D01*
X186873Y139115D01*
X187115Y139050D01*
X187365D01*
X187607Y139115D01*
X187823Y139240D01*
X188000Y139417D01*
X188125Y139633D01*
X188190Y139875D01*
Y140125D01*
X188125Y140367D01*
X188000Y140583D01*
X187823Y140760D01*
X187607Y140885D01*
X187365Y140950D01*
D02*
G37*
G36*
X189390Y138943D02*
Y138150D01*
X190183D01*
X190125Y138367D01*
X190000Y138583D01*
X189823Y138760D01*
X189607Y138885D01*
X189390Y138943D01*
D02*
G37*
G36*
X189090D02*
X188873Y138885D01*
X188657Y138760D01*
X188480Y138583D01*
X188355Y138367D01*
X188297Y138150D01*
X189090D01*
Y138943D01*
D02*
G37*
G36*
Y137850D02*
X188297D01*
X188355Y137633D01*
X188480Y137417D01*
X188657Y137240D01*
X188873Y137115D01*
X189090Y137057D01*
Y137850D01*
D02*
G37*
G36*
X190183D02*
X189390D01*
Y137057D01*
X189607Y137115D01*
X189823Y137240D01*
X190000Y137417D01*
X190125Y137633D01*
X190183Y137850D01*
D02*
G37*
G36*
X187365Y138950D02*
X187115D01*
X186873Y138885D01*
X186657Y138760D01*
X186480Y138583D01*
X186355Y138367D01*
X186290Y138125D01*
Y137875D01*
X186355Y137633D01*
X186379Y137592D01*
X184349Y135561D01*
X184302Y135492D01*
X184286Y135410D01*
Y108389D01*
X184302Y108307D01*
X184349Y108237D01*
X184816Y107771D01*
X184743Y107698D01*
X184690Y107570D01*
Y107430D01*
X184743Y107302D01*
X184795Y107250D01*
X184743Y107198D01*
X184690Y107070D01*
Y106930D01*
X184743Y106802D01*
X184795Y106750D01*
X184743Y106698D01*
X184690Y106570D01*
Y106430D01*
X184743Y106302D01*
X184795Y106250D01*
X184743Y106198D01*
X184690Y106070D01*
Y105930D01*
X184743Y105802D01*
X184842Y105703D01*
X184970Y105650D01*
X185110D01*
X185238Y105703D01*
X185337Y105802D01*
X185390Y105930D01*
Y106038D01*
X185991Y106639D01*
X186038Y106709D01*
X186054Y106791D01*
Y107982D01*
X186038Y108064D01*
X185991Y108134D01*
X185464Y108661D01*
Y130071D01*
X186645Y131252D01*
X186657Y131240D01*
X186873Y131115D01*
X187115Y131050D01*
X187365D01*
X187607Y131115D01*
X187823Y131240D01*
X188000Y131417D01*
X188125Y131633D01*
X188190Y131875D01*
Y132125D01*
X188125Y132367D01*
X188000Y132583D01*
X187823Y132760D01*
X187607Y132885D01*
X187365Y132950D01*
X187115D01*
X186873Y132885D01*
X186657Y132760D01*
X186480Y132583D01*
X186355Y132367D01*
X186290Y132125D01*
Y131875D01*
X186355Y131633D01*
X186379Y131592D01*
X185295Y130508D01*
X185214Y130542D01*
Y131821D01*
X186645Y133252D01*
X186657Y133240D01*
X186873Y133115D01*
X187115Y133050D01*
X187365D01*
X187607Y133115D01*
X187823Y133240D01*
X188000Y133417D01*
X188125Y133633D01*
X188190Y133875D01*
Y134125D01*
X188125Y134367D01*
X188000Y134583D01*
X187823Y134760D01*
X187607Y134885D01*
X187365Y134950D01*
X187115D01*
X186873Y134885D01*
X186657Y134760D01*
X186480Y134583D01*
X186355Y134367D01*
X186290Y134125D01*
Y133875D01*
X186355Y133633D01*
X186379Y133592D01*
X185045Y132258D01*
X184964Y132292D01*
Y133571D01*
X186645Y135252D01*
X186657Y135240D01*
X186873Y135115D01*
X187115Y135050D01*
X187365D01*
X187607Y135115D01*
X187823Y135240D01*
X188000Y135417D01*
X188125Y135633D01*
X188190Y135875D01*
Y136125D01*
X188125Y136367D01*
X188000Y136583D01*
X187823Y136760D01*
X187607Y136885D01*
X187365Y136950D01*
X187115D01*
X186873Y136885D01*
X186657Y136760D01*
X186480Y136583D01*
X186355Y136367D01*
X186290Y136125D01*
Y135875D01*
X186355Y135633D01*
X186379Y135592D01*
X184795Y134008D01*
X184714Y134042D01*
Y135321D01*
X186645Y137252D01*
X186657Y137240D01*
X186873Y137115D01*
X187115Y137050D01*
X187365D01*
X187607Y137115D01*
X187823Y137240D01*
X188000Y137417D01*
X188125Y137633D01*
X188190Y137875D01*
Y138125D01*
X188125Y138367D01*
X188000Y138583D01*
X187823Y138760D01*
X187607Y138885D01*
X187365Y138950D01*
D02*
G37*
G36*
X151510Y136934D02*
X151370D01*
X151242Y136881D01*
X151143Y136782D01*
X151090Y136654D01*
Y136514D01*
X151143Y136386D01*
X151242Y136287D01*
X151370Y136234D01*
X151510D01*
X151638Y136287D01*
X151737Y136386D01*
X151790Y136514D01*
Y136654D01*
X151737Y136782D01*
X151638Y136881D01*
X151510Y136934D01*
D02*
G37*
G36*
X189390Y136943D02*
Y136150D01*
X190183D01*
X190125Y136367D01*
X190000Y136583D01*
X189823Y136760D01*
X189607Y136885D01*
X189390Y136943D01*
D02*
G37*
G36*
X189090D02*
X188873Y136885D01*
X188657Y136760D01*
X188480Y136583D01*
X188355Y136367D01*
X188297Y136150D01*
X189090D01*
Y136943D01*
D02*
G37*
G36*
X178620Y136900D02*
X178480D01*
X178352Y136847D01*
X178253Y136748D01*
X178200Y136620D01*
Y136480D01*
X178253Y136352D01*
X178255Y136350D01*
X178253Y136348D01*
X178200Y136220D01*
Y136080D01*
X178253Y135952D01*
X178352Y135853D01*
X178480Y135800D01*
X178620D01*
X178748Y135853D01*
X178847Y135952D01*
X178900Y136080D01*
Y136220D01*
X178847Y136348D01*
X178845Y136350D01*
X178847Y136352D01*
X178900Y136480D01*
Y136620D01*
X178847Y136748D01*
X178748Y136847D01*
X178620Y136900D01*
D02*
G37*
G36*
X176620D02*
X176480D01*
X176352Y136847D01*
X176253Y136748D01*
X176200Y136620D01*
Y136480D01*
X176253Y136352D01*
X176255Y136350D01*
X176253Y136348D01*
X176200Y136220D01*
Y136080D01*
X176253Y135952D01*
X176352Y135853D01*
X176480Y135800D01*
X176620D01*
X176748Y135853D01*
X176800Y135905D01*
X176852Y135853D01*
X176980Y135800D01*
X177120D01*
X177248Y135853D01*
X177347Y135952D01*
X177400Y136080D01*
Y136220D01*
X177347Y136348D01*
X177248Y136447D01*
X177120Y136500D01*
X176980D01*
X176900Y136562D01*
Y136620D01*
X176847Y136748D01*
X176748Y136847D01*
X176620Y136900D01*
D02*
G37*
G36*
X168620D02*
X168480D01*
X168352Y136847D01*
X168253Y136748D01*
X168200Y136620D01*
Y136480D01*
X168253Y136352D01*
X168255Y136350D01*
X168253Y136348D01*
X168200Y136220D01*
Y136080D01*
X168253Y135952D01*
X168352Y135853D01*
X168480Y135800D01*
X168620D01*
X168748Y135853D01*
X168847Y135952D01*
X168900Y136080D01*
Y136220D01*
X168847Y136348D01*
X168845Y136350D01*
X168847Y136352D01*
X168900Y136480D01*
Y136620D01*
X168847Y136748D01*
X168748Y136847D01*
X168620Y136900D01*
D02*
G37*
G36*
X166620D02*
X166480D01*
X166352Y136847D01*
X166253Y136748D01*
X166200Y136620D01*
Y136480D01*
X166253Y136352D01*
X166255Y136350D01*
X166253Y136348D01*
X166200Y136220D01*
Y136080D01*
X166253Y135952D01*
X166352Y135853D01*
X166480Y135800D01*
X166620D01*
X166748Y135853D01*
X166800Y135905D01*
X166852Y135853D01*
X166980Y135800D01*
X167120D01*
X167248Y135853D01*
X167347Y135952D01*
X167400Y136080D01*
Y136220D01*
X167347Y136348D01*
X167248Y136447D01*
X167120Y136500D01*
X166980D01*
X166900Y136562D01*
Y136620D01*
X166847Y136748D01*
X166748Y136847D01*
X166620Y136900D01*
D02*
G37*
G36*
X151510Y135934D02*
X151370D01*
X151242Y135881D01*
X151143Y135782D01*
X151090Y135654D01*
Y135514D01*
X151143Y135386D01*
X151242Y135287D01*
X151370Y135234D01*
X151510D01*
X151638Y135287D01*
X151737Y135386D01*
X151790Y135514D01*
Y135654D01*
X151737Y135782D01*
X151638Y135881D01*
X151510Y135934D01*
D02*
G37*
G36*
X190183Y135850D02*
X189390D01*
Y135057D01*
X189607Y135115D01*
X189823Y135240D01*
X190000Y135417D01*
X190125Y135633D01*
X190183Y135850D01*
D02*
G37*
G36*
X189090D02*
X188297D01*
X188355Y135633D01*
X188480Y135417D01*
X188657Y135240D01*
X188873Y135115D01*
X189090Y135057D01*
Y135850D01*
D02*
G37*
G36*
X189390Y134943D02*
Y134150D01*
X190183D01*
X190125Y134367D01*
X190000Y134583D01*
X189823Y134760D01*
X189607Y134885D01*
X189390Y134943D01*
D02*
G37*
G36*
X189090D02*
X188873Y134885D01*
X188657Y134760D01*
X188480Y134583D01*
X188355Y134367D01*
X188297Y134150D01*
X189090D01*
Y134943D01*
D02*
G37*
G36*
Y133850D02*
X188297D01*
X188355Y133633D01*
X188480Y133417D01*
X188657Y133240D01*
X188873Y133115D01*
X189090Y133057D01*
Y133850D01*
D02*
G37*
G36*
X190183D02*
X189390D01*
Y133057D01*
X189607Y133115D01*
X189823Y133240D01*
X190000Y133417D01*
X190125Y133633D01*
X190183Y133850D01*
D02*
G37*
G36*
X155052Y133776D02*
Y133034D01*
X155794D01*
X155741Y133231D01*
X155622Y133437D01*
X155455Y133604D01*
X155249Y133723D01*
X155052Y133776D01*
D02*
G37*
G36*
X154752D02*
X154555Y133723D01*
X154349Y133604D01*
X154182Y133437D01*
X154063Y133231D01*
X154010Y133034D01*
X154752D01*
Y133776D01*
D02*
G37*
G36*
X189390Y132943D02*
Y132150D01*
X190183D01*
X190125Y132367D01*
X190000Y132583D01*
X189823Y132760D01*
X189607Y132885D01*
X189390Y132943D01*
D02*
G37*
G36*
X189090D02*
X188873Y132885D01*
X188657Y132760D01*
X188480Y132583D01*
X188355Y132367D01*
X188297Y132150D01*
X189090D01*
Y132943D01*
D02*
G37*
G36*
X155794Y132734D02*
X155052D01*
Y131992D01*
X155249Y132045D01*
X155455Y132164D01*
X155622Y132331D01*
X155741Y132537D01*
X155794Y132734D01*
D02*
G37*
G36*
X154752D02*
X154010D01*
X154063Y132537D01*
X154182Y132331D01*
X154349Y132164D01*
X154555Y132045D01*
X154752Y131992D01*
Y132734D01*
D02*
G37*
G36*
X179870Y131800D02*
X179730D01*
X179602Y131747D01*
X179503Y131648D01*
X179450Y131520D01*
Y131380D01*
X179503Y131252D01*
X179602Y131153D01*
X179730Y131100D01*
X179870D01*
X179998Y131153D01*
X180097Y131252D01*
X180150Y131380D01*
Y131520D01*
X180097Y131648D01*
X179998Y131747D01*
X179870Y131800D01*
D02*
G37*
G36*
X169870Y131800D02*
X169730D01*
X169602Y131747D01*
X169503Y131648D01*
X169450Y131520D01*
Y131380D01*
X169503Y131252D01*
X169602Y131153D01*
X169730Y131100D01*
X169870D01*
X169998Y131153D01*
X170097Y131252D01*
X170150Y131380D01*
Y131520D01*
X170097Y131648D01*
X169998Y131747D01*
X169870Y131800D01*
D02*
G37*
G36*
X190183Y131850D02*
X189390D01*
Y131057D01*
X189607Y131115D01*
X189823Y131240D01*
X190000Y131417D01*
X190125Y131633D01*
X190183Y131850D01*
D02*
G37*
G36*
X189090D02*
X188297D01*
X188355Y131633D01*
X188480Y131417D01*
X188657Y131240D01*
X188873Y131115D01*
X189090Y131057D01*
Y131850D01*
D02*
G37*
G36*
X189390Y130943D02*
Y130150D01*
X190183D01*
X190125Y130367D01*
X190000Y130583D01*
X189823Y130760D01*
X189607Y130885D01*
X189390Y130943D01*
D02*
G37*
G36*
X189090Y130943D02*
X188873Y130885D01*
X188657Y130760D01*
X188480Y130583D01*
X188355Y130367D01*
X188297Y130150D01*
X189090D01*
Y130943D01*
D02*
G37*
G36*
X178120Y130550D02*
X177980D01*
X177852Y130497D01*
X177753Y130398D01*
X177700Y130270D01*
Y130130D01*
X177753Y130002D01*
X177755Y130000D01*
X177753Y129998D01*
X177700Y129870D01*
Y129730D01*
X177753Y129602D01*
X177852Y129503D01*
X177980Y129450D01*
X178120D01*
X178248Y129503D01*
X178347Y129602D01*
X178400Y129730D01*
Y129870D01*
X178347Y129998D01*
X178345Y130000D01*
X178347Y130002D01*
X178400Y130130D01*
Y130270D01*
X178347Y130398D01*
X178248Y130497D01*
X178120Y130550D01*
D02*
G37*
G36*
X168120Y130550D02*
X167980D01*
X167852Y130497D01*
X167753Y130398D01*
X167700Y130270D01*
Y130130D01*
X167753Y130002D01*
X167755Y130000D01*
X167753Y129998D01*
X167700Y129870D01*
Y129730D01*
X167753Y129602D01*
X167852Y129503D01*
X167980Y129450D01*
X168120D01*
X168248Y129503D01*
X168347Y129602D01*
X168400Y129730D01*
Y129870D01*
X168347Y129998D01*
X168345Y130000D01*
X168347Y130002D01*
X168400Y130130D01*
Y130270D01*
X168347Y130398D01*
X168248Y130497D01*
X168120Y130550D01*
D02*
G37*
G36*
X190183Y129850D02*
X189390D01*
Y129057D01*
X189607Y129115D01*
X189823Y129240D01*
X190000Y129417D01*
X190125Y129633D01*
X190183Y129850D01*
D02*
G37*
G36*
X189090D02*
X188297D01*
X188355Y129633D01*
X188480Y129417D01*
X188657Y129240D01*
X188873Y129115D01*
X189090Y129057D01*
Y129850D01*
D02*
G37*
G36*
X187365Y130950D02*
X187115D01*
X186873Y130885D01*
X186657Y130760D01*
X186480Y130583D01*
X186355Y130367D01*
X186290Y130125D01*
Y129875D01*
X186355Y129633D01*
X186480Y129417D01*
X186657Y129240D01*
X186873Y129115D01*
X187115Y129050D01*
X187365D01*
X187607Y129115D01*
X187823Y129240D01*
X188000Y129417D01*
X188125Y129633D01*
X188190Y129875D01*
Y130125D01*
X188125Y130367D01*
X188000Y130583D01*
X187823Y130760D01*
X187607Y130885D01*
X187365Y130950D01*
D02*
G37*
G36*
X170743Y127742D02*
X170603D01*
X170475Y127688D01*
X170376Y127590D01*
X170323Y127461D01*
Y127322D01*
X170376Y127193D01*
X170475Y127095D01*
X170603Y127042D01*
X170743D01*
X170871Y127095D01*
X170970Y127193D01*
X171023Y127322D01*
Y127461D01*
X170970Y127590D01*
X170871Y127688D01*
X170743Y127742D01*
D02*
G37*
G36*
X180745Y127725D02*
X180605D01*
X180477Y127672D01*
X180378Y127573D01*
X180325Y127445D01*
Y127305D01*
X180378Y127177D01*
X180477Y127078D01*
X180605Y127025D01*
X180745D01*
X180873Y127078D01*
X180972Y127177D01*
X181025Y127305D01*
Y127445D01*
X180972Y127573D01*
X180873Y127672D01*
X180745Y127725D01*
D02*
G37*
G36*
X177370Y127950D02*
X177230D01*
X177102Y127897D01*
X177003Y127798D01*
X176950Y127670D01*
Y127530D01*
X177003Y127402D01*
X177005Y127400D01*
X177003Y127398D01*
X176950Y127270D01*
Y127130D01*
X177003Y127002D01*
X177102Y126903D01*
X177230Y126850D01*
X177370D01*
X177498Y126903D01*
X177597Y127002D01*
X177650Y127130D01*
Y127270D01*
X177597Y127398D01*
X177595Y127400D01*
X177597Y127402D01*
X177650Y127530D01*
Y127670D01*
X177597Y127798D01*
X177498Y127897D01*
X177370Y127950D01*
D02*
G37*
G36*
X168770Y127025D02*
X168630D01*
X168502Y126972D01*
X168403Y126873D01*
X168350Y126745D01*
Y126605D01*
X168403Y126477D01*
X168502Y126378D01*
X168630Y126325D01*
X168770D01*
X168898Y126378D01*
X168997Y126477D01*
X169050Y126605D01*
Y126745D01*
X168997Y126873D01*
X168898Y126972D01*
X168770Y127025D01*
D02*
G37*
G36*
X165970D02*
X165830D01*
X165702Y126972D01*
X165603Y126873D01*
X165550Y126745D01*
Y126605D01*
X165603Y126477D01*
X165702Y126378D01*
X165830Y126325D01*
X165970D01*
X166098Y126378D01*
X166197Y126477D01*
X166250Y126605D01*
Y126745D01*
X166197Y126873D01*
X166098Y126972D01*
X165970Y127025D01*
D02*
G37*
G36*
X167920Y125100D02*
X167780D01*
X167652Y125047D01*
X167553Y124948D01*
X167500Y124820D01*
Y124680D01*
X167553Y124552D01*
X167652Y124453D01*
X167780Y124400D01*
X167920D01*
X168048Y124453D01*
X168147Y124552D01*
X168200Y124680D01*
Y124820D01*
X168147Y124948D01*
X168048Y125047D01*
X167920Y125100D01*
D02*
G37*
G36*
X166820D02*
X166680D01*
X166552Y125047D01*
X166453Y124948D01*
X166400Y124820D01*
Y124680D01*
X166453Y124552D01*
X166552Y124453D01*
X166680Y124400D01*
X166820D01*
X166948Y124453D01*
X167047Y124552D01*
X167100Y124680D01*
Y124820D01*
X167047Y124948D01*
X166948Y125047D01*
X166820Y125100D01*
D02*
G37*
G36*
X180865Y123350D02*
X180685D01*
X180520Y123281D01*
X180394Y123155D01*
X180325Y122990D01*
Y122810D01*
X180394Y122645D01*
X180520Y122519D01*
X180685Y122450D01*
X180865D01*
X181030Y122519D01*
X181156Y122645D01*
X181225Y122810D01*
Y122990D01*
X181156Y123155D01*
X181030Y123281D01*
X180865Y123350D01*
D02*
G37*
G36*
X170865D02*
X170685D01*
X170520Y123281D01*
X170394Y123155D01*
X170325Y122990D01*
Y122810D01*
X170394Y122645D01*
X170520Y122519D01*
X170685Y122450D01*
X170865D01*
X171030Y122519D01*
X171156Y122645D01*
X171225Y122810D01*
Y122990D01*
X171156Y123155D01*
X171030Y123281D01*
X170865Y123350D01*
D02*
G37*
G36*
X155190Y121350D02*
X155010D01*
X154845Y121281D01*
X154825Y121261D01*
X154805Y121281D01*
X154640Y121350D01*
X154460D01*
X154295Y121281D01*
X154169Y121155D01*
X154100Y120990D01*
Y120810D01*
X154169Y120645D01*
X154295Y120519D01*
X154460Y120450D01*
X154640D01*
X154805Y120519D01*
X154825Y120539D01*
X154845Y120519D01*
X155010Y120450D01*
X155190D01*
X155355Y120519D01*
X155481Y120645D01*
X155550Y120810D01*
Y120990D01*
X155481Y121155D01*
X155355Y121281D01*
X155190Y121350D01*
D02*
G37*
G36*
X153570Y119050D02*
X153430D01*
X153302Y118997D01*
X153250Y118945D01*
X153198Y118997D01*
X153070Y119050D01*
X152930D01*
X152802Y118997D01*
X152703Y118898D01*
X152650Y118770D01*
Y118630D01*
X152703Y118502D01*
X152802Y118403D01*
X152930Y118350D01*
X153070D01*
X153198Y118403D01*
X153250Y118455D01*
X153302Y118403D01*
X153430Y118350D01*
X153570D01*
X153698Y118403D01*
X153797Y118502D01*
X153850Y118630D01*
Y118770D01*
X153797Y118898D01*
X153698Y118997D01*
X153570Y119050D01*
D02*
G37*
G36*
X133290Y118325D02*
X133110D01*
X132945Y118256D01*
X132819Y118130D01*
X132750Y117965D01*
Y117785D01*
X132819Y117620D01*
X132945Y117494D01*
X133110Y117425D01*
X133290D01*
X133455Y117494D01*
X133581Y117620D01*
X133650Y117785D01*
Y117965D01*
X133581Y118130D01*
X133455Y118256D01*
X133290Y118325D01*
D02*
G37*
G36*
X154650Y117550D02*
X153400D01*
Y116910D01*
X153350Y116790D01*
Y116610D01*
X153400Y116490D01*
Y116300D01*
X153590D01*
X153710Y116250D01*
X153890D01*
X154010Y116300D01*
X154650D01*
Y117550D01*
D02*
G37*
G36*
X153100D02*
X151850D01*
Y116300D01*
X152490D01*
X152610Y116250D01*
X152790D01*
X152910Y116300D01*
X153100D01*
Y116490D01*
X153150Y116610D01*
Y116790D01*
X153100Y116910D01*
Y117550D01*
D02*
G37*
G36*
X153890Y116050D02*
X153710D01*
X153590Y116000D01*
X153400D01*
Y115810D01*
X153350Y115690D01*
Y115510D01*
X153400Y115390D01*
Y114750D01*
X154650D01*
Y116000D01*
X154010D01*
X153890Y116050D01*
D02*
G37*
G36*
X152790D02*
X152610D01*
X152490Y116000D01*
X151850D01*
Y114750D01*
X153100D01*
Y115390D01*
X153150Y115510D01*
Y115690D01*
X153100Y115810D01*
Y116000D01*
X152910D01*
X152790Y116050D01*
D02*
G37*
G36*
X144615Y114300D02*
X144435D01*
X144270Y114231D01*
X144144Y114105D01*
X144075Y113940D01*
Y113760D01*
X144144Y113595D01*
X144164Y113575D01*
X144144Y113555D01*
X144075Y113390D01*
Y113210D01*
X144144Y113045D01*
X144270Y112919D01*
X144435Y112850D01*
X144615D01*
X144780Y112919D01*
X144906Y113045D01*
X144975Y113210D01*
Y113390D01*
X144906Y113555D01*
X144886Y113575D01*
X144906Y113595D01*
X144975Y113760D01*
Y113940D01*
X144906Y114105D01*
X144780Y114231D01*
X144615Y114300D01*
D02*
G37*
G36*
X148465Y113450D02*
X148285D01*
X148120Y113381D01*
X147994Y113255D01*
X147925Y113090D01*
Y112910D01*
X147994Y112745D01*
X148120Y112619D01*
X148285Y112550D01*
X148465D01*
X148630Y112619D01*
X148756Y112745D01*
X148825Y112910D01*
Y113090D01*
X148756Y113255D01*
X148630Y113381D01*
X148465Y113450D01*
D02*
G37*
G36*
X139240Y110800D02*
X139060D01*
X138895Y110731D01*
X138850Y110686D01*
X138805Y110731D01*
X138640Y110800D01*
X138460D01*
X138295Y110731D01*
X138169Y110605D01*
X138100Y110440D01*
Y110260D01*
X138169Y110095D01*
X138295Y109969D01*
X138460Y109900D01*
X138640D01*
X138805Y109969D01*
X138850Y110014D01*
X138895Y109969D01*
X139060Y109900D01*
X139240D01*
X139405Y109969D01*
X139531Y110095D01*
X139600Y110260D01*
Y110440D01*
X139531Y110605D01*
X139405Y110731D01*
X139240Y110800D01*
D02*
G37*
G36*
X155040Y112000D02*
X154860D01*
X154695Y111931D01*
X154569Y111805D01*
X154500Y111640D01*
Y111460D01*
X154569Y111295D01*
X154589Y111275D01*
X154569Y111255D01*
X154500Y111090D01*
Y110910D01*
X154569Y110745D01*
X154695Y110619D01*
X154860Y110550D01*
X155040D01*
X155205Y110619D01*
X155331Y110745D01*
X155400Y110910D01*
Y111090D01*
X155331Y111255D01*
X155311Y111275D01*
X155331Y111295D01*
X155400Y111460D01*
Y111640D01*
X155331Y111805D01*
X155205Y111931D01*
X155040Y112000D01*
D02*
G37*
G36*
X146080Y111206D02*
X145550D01*
Y110350D01*
X146406D01*
Y110880D01*
X146381Y111005D01*
X146311Y111111D01*
X146205Y111181D01*
X146080Y111206D01*
D02*
G37*
G36*
X145250D02*
X144720D01*
X144595Y111181D01*
X144489Y111111D01*
X144419Y111005D01*
X144394Y110880D01*
Y110350D01*
X145250D01*
Y111206D01*
D02*
G37*
G36*
X143390Y110900D02*
X143210D01*
X143045Y110831D01*
X142919Y110705D01*
X142850Y110540D01*
Y110360D01*
X142919Y110195D01*
X143045Y110069D01*
X143210Y110000D01*
X143390D01*
X143555Y110069D01*
X143681Y110195D01*
X143750Y110360D01*
Y110540D01*
X143681Y110705D01*
X143555Y110831D01*
X143390Y110900D01*
D02*
G37*
G36*
X146406Y110050D02*
X145550D01*
Y109194D01*
X146080D01*
X146205Y109219D01*
X146311Y109289D01*
X146381Y109395D01*
X146406Y109520D01*
Y110050D01*
D02*
G37*
G36*
X145250D02*
X144394D01*
Y109520D01*
X144419Y109395D01*
X144489Y109289D01*
X144595Y109219D01*
X144720Y109194D01*
X145250D01*
Y110050D01*
D02*
G37*
G36*
X175810Y109850D02*
X175670D01*
X175542Y109797D01*
X175443Y109698D01*
X175390Y109570D01*
Y109430D01*
X175443Y109302D01*
X175542Y109203D01*
X175670Y109150D01*
X175810D01*
X175938Y109203D01*
X176037Y109302D01*
X176090Y109430D01*
Y109570D01*
X176037Y109698D01*
X175938Y109797D01*
X175810Y109850D01*
D02*
G37*
G36*
X151240Y108850D02*
X151060D01*
X150895Y108781D01*
X150769Y108655D01*
X150700Y108490D01*
Y108310D01*
X150769Y108145D01*
X150895Y108019D01*
X151060Y107950D01*
X151240D01*
X151405Y108019D01*
X151531Y108145D01*
X151600Y108310D01*
Y108490D01*
X151531Y108655D01*
X151405Y108781D01*
X151240Y108850D01*
D02*
G37*
G36*
X154830Y109158D02*
X153900D01*
Y107800D01*
X155258D01*
Y108730D01*
X155226Y108894D01*
X155133Y109033D01*
X154994Y109126D01*
X154830Y109158D01*
D02*
G37*
G36*
X153600D02*
X152670D01*
X152506Y109126D01*
X152367Y109033D01*
X152274Y108894D01*
X152242Y108730D01*
Y107800D01*
X153600D01*
Y109158D01*
D02*
G37*
G36*
X176810Y106850D02*
X176670D01*
X176542Y106797D01*
X176443Y106698D01*
X176390Y106570D01*
Y106430D01*
X176443Y106302D01*
X176542Y106203D01*
X176670Y106150D01*
X176810D01*
X176938Y106203D01*
X177037Y106302D01*
X177090Y106430D01*
Y106570D01*
X177037Y106698D01*
X176938Y106797D01*
X176810Y106850D01*
D02*
G37*
G36*
X170810D02*
X170670D01*
X170542Y106797D01*
X170443Y106698D01*
X170390Y106570D01*
Y106430D01*
X170443Y106302D01*
X170542Y106203D01*
X170670Y106150D01*
X170810D01*
X170938Y106203D01*
X171037Y106302D01*
X171090Y106430D01*
Y106570D01*
X171037Y106698D01*
X170938Y106797D01*
X170810Y106850D01*
D02*
G37*
G36*
X155258Y107500D02*
X153900D01*
Y106142D01*
X154830D01*
X154994Y106174D01*
X155133Y106267D01*
X155226Y106406D01*
X155258Y106570D01*
Y107500D01*
D02*
G37*
G36*
X153600D02*
X152242D01*
Y106570D01*
X152274Y106406D01*
X152367Y106267D01*
X152506Y106174D01*
X152670Y106142D01*
X153600D01*
Y107500D01*
D02*
G37*
G36*
X176810Y105850D02*
X176670D01*
X176542Y105797D01*
X176443Y105698D01*
X176390Y105570D01*
Y105430D01*
X176443Y105302D01*
X176542Y105203D01*
X176670Y105150D01*
X176810D01*
X176938Y105203D01*
X177037Y105302D01*
X177090Y105430D01*
Y105570D01*
X177037Y105698D01*
X176938Y105797D01*
X176810Y105850D01*
D02*
G37*
G36*
X170810D02*
X170670D01*
X170542Y105797D01*
X170443Y105698D01*
X170390Y105570D01*
Y105430D01*
X170443Y105302D01*
X170542Y105203D01*
X170670Y105150D01*
X170810D01*
X170938Y105203D01*
X171037Y105302D01*
X171090Y105430D01*
Y105570D01*
X171037Y105698D01*
X170938Y105797D01*
X170810Y105850D01*
D02*
G37*
G36*
X148580Y105306D02*
X148050D01*
Y104450D01*
X148906D01*
Y104980D01*
X148881Y105105D01*
X148811Y105211D01*
X148705Y105281D01*
X148580Y105306D01*
D02*
G37*
G36*
X147750D02*
X147220D01*
X147095Y105281D01*
X146989Y105211D01*
X146919Y105105D01*
X146894Y104980D01*
Y104450D01*
X147750D01*
Y105306D01*
D02*
G37*
G36*
X154570Y119050D02*
X154430D01*
X154302Y118997D01*
X154203Y118898D01*
X154150Y118770D01*
Y118630D01*
X154203Y118502D01*
X154302Y118403D01*
X154430Y118350D01*
X154570D01*
X154698Y118403D01*
X154786Y118491D01*
X157453D01*
X165390Y110554D01*
Y110430D01*
X165443Y110302D01*
X165542Y110203D01*
X165670Y110150D01*
X165810D01*
X165878Y110178D01*
X165966Y110120D01*
Y104800D01*
X165982Y104720D01*
X166027Y104652D01*
X166741Y103938D01*
X166705Y103850D01*
X166670D01*
X166542Y103797D01*
X166454Y103709D01*
X166242D01*
X166162Y103693D01*
X166140Y103678D01*
X166037Y103698D01*
X165938Y103797D01*
X165810Y103850D01*
X165670D01*
X165542Y103797D01*
X165443Y103698D01*
X165390Y103570D01*
Y103446D01*
X164508Y102564D01*
X155529D01*
X154709Y103384D01*
Y104839D01*
X154797Y104927D01*
X154850Y105055D01*
Y105195D01*
X154797Y105323D01*
X154698Y105422D01*
X154570Y105475D01*
X154430D01*
X154302Y105422D01*
X154250Y105370D01*
X154198Y105422D01*
X154070Y105475D01*
X153930D01*
X153802Y105422D01*
X153703Y105323D01*
X153650Y105195D01*
Y105055D01*
X153703Y104927D01*
X153791Y104839D01*
Y103500D01*
X153807Y103420D01*
X153852Y103352D01*
X154979Y102225D01*
X154945Y102144D01*
X153517D01*
X152733Y102928D01*
X152783Y103003D01*
X152910Y102950D01*
X153089D01*
X153255Y103019D01*
X153381Y103145D01*
X153450Y103310D01*
Y103490D01*
X153381Y103655D01*
X153361Y103675D01*
X153381Y103695D01*
X153450Y103860D01*
Y104040D01*
X153381Y104205D01*
X153255Y104331D01*
X153089Y104400D01*
X152910D01*
X152745Y104331D01*
X152618Y104205D01*
X152550Y104040D01*
Y103860D01*
X152618Y103695D01*
X152639Y103675D01*
X152618Y103655D01*
X152550Y103490D01*
Y103310D01*
X152603Y103183D01*
X152528Y103133D01*
X151018Y104644D01*
X151051Y104725D01*
X151090D01*
X151255Y104794D01*
X151275Y104814D01*
X151295Y104794D01*
X151460Y104725D01*
X151640D01*
X151805Y104794D01*
X151931Y104920D01*
X152000Y105085D01*
Y105265D01*
X151931Y105430D01*
X151805Y105556D01*
X151640Y105625D01*
X151460D01*
X151295Y105556D01*
X151275Y105536D01*
X151255Y105556D01*
X151090Y105625D01*
X150910D01*
X150745Y105556D01*
X150619Y105430D01*
X150550Y105265D01*
Y105226D01*
X150469Y105193D01*
X150084Y105577D01*
Y108000D01*
X150068Y108080D01*
X150023Y108148D01*
X146000Y112171D01*
Y112295D01*
X145947Y112423D01*
X145848Y112522D01*
X145720Y112575D01*
X145580D01*
X145452Y112522D01*
X145353Y112423D01*
X145300Y112295D01*
Y112155D01*
X145353Y112027D01*
X145452Y111928D01*
X145580Y111875D01*
X145704D01*
X149666Y107913D01*
Y105491D01*
X149682Y105411D01*
X149727Y105343D01*
X150730Y104340D01*
X150696Y104259D01*
X150211D01*
X150123Y104347D01*
X149995Y104400D01*
X149855D01*
X149727Y104347D01*
X149628Y104248D01*
X149575Y104120D01*
Y103980D01*
X149628Y103852D01*
X149727Y103753D01*
X149855Y103700D01*
X149995D01*
X150123Y103753D01*
X150211Y103841D01*
X150932D01*
X153196Y101577D01*
X153264Y101532D01*
X153344Y101516D01*
X160099D01*
X160135Y101428D01*
X154891Y96184D01*
X142320D01*
X142283Y96272D01*
X142331Y96320D01*
X142400Y96485D01*
Y96665D01*
X142331Y96830D01*
X142205Y96956D01*
X142040Y97025D01*
X141860D01*
X141695Y96956D01*
X141569Y96830D01*
X141500Y96665D01*
Y96485D01*
X141569Y96320D01*
X141617Y96272D01*
X141580Y96184D01*
X139975D01*
X139895Y96168D01*
X139827Y96123D01*
X139028Y95324D01*
X138983Y95256D01*
X138967Y95176D01*
Y94310D01*
X138731Y94075D01*
X138605D01*
X138477Y94022D01*
X138378Y93923D01*
X138325Y93795D01*
Y93655D01*
X138378Y93527D01*
X138430Y93475D01*
X138378Y93423D01*
X138325Y93295D01*
Y93155D01*
X138378Y93027D01*
X138477Y92928D01*
X138605Y92875D01*
X138745D01*
X138873Y92928D01*
X138972Y93027D01*
X139025Y93155D01*
Y93277D01*
X139534Y93786D01*
X139579Y93854D01*
X139595Y93934D01*
Y94920D01*
X139604Y94926D01*
X139692Y94879D01*
Y94125D01*
X141200D01*
X142708D01*
Y95055D01*
X142676Y95219D01*
X142583Y95358D01*
X142444Y95451D01*
X142357Y95468D01*
X142365Y95556D01*
X154745D01*
X154779Y95475D01*
X149252Y89948D01*
X149240Y89930D01*
X149232Y89922D01*
X149187Y89854D01*
X149171Y89774D01*
Y76386D01*
X148031Y75246D01*
X147950Y75280D01*
Y75315D01*
X147881Y75480D01*
X147836Y75525D01*
X147881Y75570D01*
X147950Y75735D01*
Y75915D01*
X147881Y76080D01*
X147755Y76206D01*
X147590Y76275D01*
X147410D01*
X147250Y76209D01*
X147090Y76275D01*
X146910D01*
X146745Y76206D01*
X146619Y76080D01*
X146550Y75915D01*
Y75735D01*
X146619Y75570D01*
X146664Y75525D01*
X146619Y75480D01*
X146550Y75315D01*
Y75135D01*
X146619Y74970D01*
X146745Y74844D01*
X146910Y74775D01*
X147090D01*
X147250Y74841D01*
X147410Y74775D01*
X147445D01*
X147479Y74694D01*
X147069Y74284D01*
X142745D01*
X142665Y74268D01*
X142597Y74223D01*
X142004Y73630D01*
X141880D01*
X141752Y73577D01*
X141653Y73479D01*
X141600Y73350D01*
Y73211D01*
X141653Y73082D01*
X141752Y72984D01*
X141880Y72930D01*
X142020D01*
X142106Y72966D01*
X142153Y72852D01*
X142252Y72753D01*
X142380Y72700D01*
X142520D01*
X142648Y72753D01*
X142747Y72852D01*
X142794Y72966D01*
X142880Y72930D01*
X143020D01*
X143148Y72984D01*
X143247Y73082D01*
X143300Y73211D01*
Y73270D01*
X143476Y73446D01*
X147330D01*
X147410Y73462D01*
X147478Y73507D01*
X149948Y75977D01*
X149993Y76045D01*
X150009Y76125D01*
Y89513D01*
X158342Y97846D01*
X161070D01*
X161150Y97862D01*
X161218Y97907D01*
X161986Y98675D01*
X162110D01*
X162238Y98728D01*
X162337Y98827D01*
X162390Y98955D01*
Y99095D01*
X162337Y99223D01*
X162285Y99275D01*
X162337Y99327D01*
X162390Y99455D01*
Y99595D01*
X162337Y99723D01*
X162285Y99775D01*
X162337Y99827D01*
X162390Y99955D01*
Y100095D01*
X162337Y100223D01*
X162238Y100322D01*
X162110Y100375D01*
X161970D01*
X161842Y100322D01*
X161743Y100223D01*
X161690Y100095D01*
Y99973D01*
X161327Y99610D01*
X161282Y99542D01*
X161266Y99462D01*
Y99141D01*
X160809Y98684D01*
X158395D01*
X158361Y98765D01*
X160512Y100916D01*
X165930D01*
X166010Y100932D01*
X166078Y100977D01*
X166391Y101291D01*
X166454D01*
X166542Y101203D01*
X166670Y101150D01*
X166810D01*
X166938Y101203D01*
X167037Y101302D01*
X167090Y101430D01*
Y101570D01*
X167037Y101698D01*
X166938Y101797D01*
X166810Y101850D01*
X166670D01*
X166542Y101797D01*
X166454Y101709D01*
X166305D01*
X166225Y101693D01*
X166157Y101648D01*
X166143Y101634D01*
X166056Y101651D01*
X166037Y101698D01*
X165938Y101797D01*
X165810Y101850D01*
X165814Y101936D01*
X166385D01*
X166465Y101952D01*
X166533Y101997D01*
X166686Y102150D01*
X166810D01*
X166938Y102203D01*
X167037Y102302D01*
X167090Y102430D01*
Y102570D01*
X167037Y102698D01*
X166938Y102797D01*
X166810Y102850D01*
X166670D01*
X166542Y102797D01*
X166443Y102698D01*
X166390Y102570D01*
Y102446D01*
X166298Y102354D01*
X166138D01*
X166089Y102427D01*
X166090Y102430D01*
Y102570D01*
X166037Y102698D01*
X165938Y102797D01*
X165938Y102797D01*
X165921Y102883D01*
X166243Y103205D01*
X166243Y103205D01*
X166329Y103291D01*
X166454D01*
X166542Y103203D01*
X166670Y103150D01*
X166810D01*
X166938Y103203D01*
X167037Y103302D01*
X167090Y103430D01*
Y103465D01*
X167178Y103501D01*
X170741Y99938D01*
X170705Y99850D01*
X170670D01*
X170542Y99797D01*
X170443Y99698D01*
X170390Y99570D01*
Y99430D01*
X170443Y99302D01*
X170542Y99203D01*
X170670Y99150D01*
X170810D01*
X170938Y99203D01*
X171037Y99302D01*
X171090Y99430D01*
Y99465D01*
X171178Y99501D01*
X171327Y99352D01*
X171395Y99307D01*
X171475Y99291D01*
X176454D01*
X176542Y99203D01*
X176670Y99150D01*
X176810D01*
X176938Y99203D01*
X177037Y99302D01*
X177090Y99430D01*
Y99570D01*
X177037Y99698D01*
X176938Y99797D01*
X176810Y99850D01*
X176670D01*
X176542Y99797D01*
X176454Y99709D01*
X171562D01*
X166384Y104887D01*
Y106237D01*
X166472Y106273D01*
X166542Y106203D01*
X166670Y106150D01*
X166810D01*
X166938Y106203D01*
X167037Y106302D01*
X167090Y106430D01*
Y106554D01*
X168283Y107747D01*
X172377D01*
X172427Y107659D01*
X172390Y107570D01*
Y107430D01*
X172443Y107302D01*
X172542Y107203D01*
X172670Y107150D01*
X172810D01*
X172938Y107203D01*
X173037Y107302D01*
X173090Y107430D01*
Y107570D01*
X173053Y107659D01*
X173103Y107747D01*
X174377D01*
X174427Y107659D01*
X174390Y107570D01*
Y107430D01*
X174443Y107302D01*
X174542Y107203D01*
X174670Y107150D01*
X174810D01*
X174938Y107203D01*
X175037Y107302D01*
X175090Y107430D01*
Y107570D01*
X175053Y107659D01*
X175103Y107747D01*
X175377D01*
X175427Y107659D01*
X175390Y107570D01*
Y107430D01*
X175443Y107302D01*
X175542Y107203D01*
X175670Y107150D01*
X175810D01*
X175938Y107203D01*
X176037Y107302D01*
X176090Y107430D01*
Y107570D01*
X176053Y107659D01*
X176103Y107747D01*
X182097D01*
X182790Y107054D01*
Y106930D01*
X182843Y106802D01*
X182942Y106703D01*
X183070Y106650D01*
X183210D01*
X183338Y106703D01*
X183437Y106802D01*
X183490Y106930D01*
Y107070D01*
X183437Y107198D01*
X183338Y107297D01*
X183210Y107350D01*
X183086D01*
X182332Y108104D01*
X182264Y108149D01*
X182184Y108165D01*
X169024D01*
X168988Y108253D01*
X169037Y108302D01*
X169090Y108430D01*
Y108570D01*
X169037Y108698D01*
X168938Y108797D01*
X168810Y108850D01*
X168670D01*
X168542Y108797D01*
X168443Y108698D01*
X168390Y108570D01*
Y108430D01*
X168443Y108302D01*
X168492Y108253D01*
X168456Y108165D01*
X168196D01*
X168116Y108149D01*
X168048Y108104D01*
X166794Y106850D01*
X166670D01*
X166542Y106797D01*
X166472Y106727D01*
X166384Y106763D01*
Y113117D01*
X166368Y113197D01*
X166323Y113265D01*
X165400Y114188D01*
Y114312D01*
X165347Y114440D01*
X165248Y114539D01*
X165120Y114592D01*
X164980D01*
X164852Y114539D01*
X164753Y114440D01*
X164700Y114312D01*
Y114172D01*
X164753Y114044D01*
X164852Y113945D01*
X164980Y113892D01*
X165104D01*
X165966Y113030D01*
Y110880D01*
X165878Y110822D01*
X165810Y110850D01*
X165686D01*
X157688Y118848D01*
X157620Y118893D01*
X157540Y118909D01*
X154786D01*
X154698Y118997D01*
X154570Y119050D01*
D02*
G37*
G36*
X148906Y104150D02*
X148050D01*
Y103294D01*
X148580D01*
X148705Y103319D01*
X148811Y103389D01*
X148881Y103495D01*
X148906Y103620D01*
Y104150D01*
D02*
G37*
G36*
X147750D02*
X146894D01*
Y103620D01*
X146919Y103495D01*
X146989Y103389D01*
X147095Y103319D01*
X147220Y103294D01*
X147750D01*
Y104150D01*
D02*
G37*
G36*
X176810Y103850D02*
X176670D01*
X176542Y103797D01*
X176443Y103698D01*
X176390Y103570D01*
Y103430D01*
X176443Y103302D01*
X176542Y103203D01*
X176670Y103150D01*
X176810D01*
X176938Y103203D01*
X177037Y103302D01*
X177090Y103430D01*
Y103570D01*
X177037Y103698D01*
X176938Y103797D01*
X176810Y103850D01*
D02*
G37*
G36*
X170810D02*
X170670D01*
X170542Y103797D01*
X170443Y103698D01*
X170390Y103570D01*
Y103430D01*
X170443Y103302D01*
X170542Y103203D01*
X170670Y103150D01*
X170810D01*
X170938Y103203D01*
X171037Y103302D01*
X171090Y103430D01*
Y103570D01*
X171037Y103698D01*
X170938Y103797D01*
X170810Y103850D01*
D02*
G37*
G36*
X176810Y102850D02*
X176670D01*
X176542Y102797D01*
X176443Y102698D01*
X176390Y102570D01*
Y102430D01*
X176443Y102302D01*
X176542Y102203D01*
X176670Y102150D01*
X176810D01*
X176938Y102203D01*
X177037Y102302D01*
X177090Y102430D01*
Y102570D01*
X177037Y102698D01*
X176938Y102797D01*
X176810Y102850D01*
D02*
G37*
G36*
X170810D02*
X170670D01*
X170542Y102797D01*
X170443Y102698D01*
X170390Y102570D01*
Y102430D01*
X170443Y102302D01*
X170542Y102203D01*
X170670Y102150D01*
X170810D01*
X170938Y102203D01*
X171037Y102302D01*
X171090Y102430D01*
Y102570D01*
X171037Y102698D01*
X170938Y102797D01*
X170810Y102850D01*
D02*
G37*
G36*
X175810Y101850D02*
X175670D01*
X175542Y101797D01*
X175443Y101698D01*
X175390Y101570D01*
Y101430D01*
X175443Y101302D01*
X175542Y101203D01*
X175670Y101150D01*
X175810D01*
X175938Y101203D01*
X176037Y101302D01*
X176090Y101430D01*
Y101570D01*
X176037Y101698D01*
X175938Y101797D01*
X175810Y101850D01*
D02*
G37*
G36*
X174810D02*
X174670D01*
X174542Y101797D01*
X174443Y101698D01*
X174390Y101570D01*
Y101430D01*
X174443Y101302D01*
X174542Y101203D01*
X174670Y101150D01*
X174810D01*
X174938Y101203D01*
X175037Y101302D01*
X175090Y101430D01*
Y101570D01*
X175037Y101698D01*
X174938Y101797D01*
X174810Y101850D01*
D02*
G37*
G36*
X172810D02*
X172670D01*
X172542Y101797D01*
X172443Y101698D01*
X172390Y101570D01*
Y101430D01*
X172443Y101302D01*
X172542Y101203D01*
X172670Y101150D01*
X172810D01*
X172938Y101203D01*
X173037Y101302D01*
X173090Y101430D01*
Y101570D01*
X173037Y101698D01*
X172938Y101797D01*
X172810Y101850D01*
D02*
G37*
G36*
X171810D02*
X171670D01*
X171542Y101797D01*
X171443Y101698D01*
X171390Y101570D01*
Y101430D01*
X171443Y101302D01*
X171542Y101203D01*
X171670Y101150D01*
X171810D01*
X171938Y101203D01*
X172037Y101302D01*
X172090Y101430D01*
Y101570D01*
X172037Y101698D01*
X171938Y101797D01*
X171810Y101850D01*
D02*
G37*
G36*
X150790Y101775D02*
X150610D01*
X150445Y101706D01*
X150319Y101580D01*
X150250Y101415D01*
Y101235D01*
X150319Y101070D01*
X150445Y100944D01*
X150610Y100875D01*
X150790D01*
X150955Y100944D01*
X151081Y101070D01*
X151150Y101235D01*
Y101415D01*
X151081Y101580D01*
X150955Y101706D01*
X150790Y101775D01*
D02*
G37*
G36*
X141040Y101325D02*
X140860D01*
X140695Y101256D01*
X140569Y101130D01*
X140500Y100965D01*
Y100785D01*
X140569Y100620D01*
X140695Y100494D01*
X140860Y100425D01*
X141040D01*
X141205Y100494D01*
X141331Y100620D01*
X141400Y100785D01*
Y100965D01*
X141331Y101130D01*
X141205Y101256D01*
X141040Y101325D01*
D02*
G37*
G36*
X168810Y100850D02*
X168670D01*
X168542Y100797D01*
X168443Y100698D01*
X168390Y100570D01*
Y100430D01*
X168443Y100302D01*
X168542Y100203D01*
X168670Y100150D01*
X168810D01*
X168938Y100203D01*
X169037Y100302D01*
X169090Y100430D01*
Y100570D01*
X169037Y100698D01*
X168938Y100797D01*
X168810Y100850D01*
D02*
G37*
G36*
X179810Y98850D02*
X179670D01*
X179542Y98797D01*
X179443Y98698D01*
X179390Y98570D01*
Y98430D01*
X179443Y98302D01*
X179542Y98203D01*
X179670Y98150D01*
X179810D01*
X179938Y98203D01*
X180037Y98302D01*
X180090Y98430D01*
Y98570D01*
X180037Y98698D01*
X179938Y98797D01*
X179810Y98850D01*
D02*
G37*
G36*
X138040Y98375D02*
X137860D01*
X137695Y98306D01*
X137569Y98180D01*
X137500Y98015D01*
Y97835D01*
X137569Y97670D01*
X137695Y97544D01*
X137860Y97475D01*
X138040D01*
X138205Y97544D01*
X138331Y97670D01*
X138400Y97835D01*
Y98015D01*
X138331Y98180D01*
X138205Y98306D01*
X138040Y98375D01*
D02*
G37*
G36*
X137540Y95125D02*
X137360D01*
X137195Y95056D01*
X137175Y95036D01*
X137155Y95056D01*
X136990Y95125D01*
X136810D01*
X136645Y95056D01*
X136519Y94930D01*
X136450Y94765D01*
Y94585D01*
X136519Y94420D01*
X136645Y94294D01*
X136810Y94225D01*
X136990D01*
X137155Y94294D01*
X137175Y94314D01*
X137195Y94294D01*
X137360Y94225D01*
X137540D01*
X137705Y94294D01*
X137831Y94420D01*
X137900Y94585D01*
Y94765D01*
X137831Y94930D01*
X137705Y95056D01*
X137540Y95125D01*
D02*
G37*
G36*
X176810Y96850D02*
X176670D01*
X176542Y96797D01*
X176443Y96698D01*
X176390Y96570D01*
Y96430D01*
X176443Y96302D01*
X176493Y96252D01*
Y93979D01*
X176411Y93945D01*
X175995Y94362D01*
Y96260D01*
X176037Y96302D01*
X176090Y96430D01*
Y96570D01*
X176037Y96698D01*
X175938Y96797D01*
X175810Y96850D01*
X175670D01*
X175542Y96797D01*
X175443Y96698D01*
X175390Y96570D01*
Y96430D01*
X175443Y96302D01*
X175485Y96260D01*
Y94562D01*
X175404Y94528D01*
X174987Y94945D01*
Y96252D01*
X175037Y96302D01*
X175090Y96430D01*
Y96570D01*
X175037Y96698D01*
X174938Y96797D01*
X174810Y96850D01*
X174670D01*
X174542Y96797D01*
X174443Y96698D01*
X174390Y96570D01*
Y96430D01*
X174443Y96302D01*
X174493Y96252D01*
Y94843D01*
X174493Y94842D01*
X174512Y94748D01*
X174565Y94668D01*
X175217Y94016D01*
X175260Y93952D01*
X176528Y92684D01*
Y81717D01*
X176547Y81620D01*
X176602Y81537D01*
X177245Y80894D01*
Y74530D01*
X173212Y70497D01*
X171365D01*
X171323Y70539D01*
X171195Y70592D01*
X171055D01*
X170927Y70539D01*
X170828Y70440D01*
X170775Y70312D01*
Y70172D01*
X170828Y70044D01*
X170927Y69945D01*
X171055Y69892D01*
X171195D01*
X171323Y69945D01*
X171365Y69987D01*
X173318D01*
X173415Y70007D01*
X173498Y70062D01*
X174664Y71228D01*
X174745Y71194D01*
Y67750D01*
X174765Y67652D01*
X174820Y67570D01*
X177045Y65344D01*
Y62581D01*
X174820Y60355D01*
X174820Y60355D01*
X174078Y59613D01*
X173990Y59650D01*
Y59790D01*
X173921Y59955D01*
X173795Y60081D01*
X173630Y60150D01*
X173450D01*
X173285Y60081D01*
X173159Y59955D01*
X173090Y59790D01*
Y59610D01*
X173159Y59445D01*
X173285Y59319D01*
X173450Y59250D01*
X173590D01*
X173627Y59162D01*
X172740Y58275D01*
X172680D01*
X172552Y58222D01*
X172453Y58123D01*
X172400Y57995D01*
Y57855D01*
X172453Y57727D01*
X172552Y57628D01*
X172680Y57575D01*
X172820D01*
X172948Y57628D01*
X173047Y57727D01*
X173100Y57855D01*
Y57915D01*
X175180Y59995D01*
X175180Y59995D01*
X177480Y62295D01*
X177535Y62377D01*
X177555Y62475D01*
Y65450D01*
X177535Y65548D01*
X177480Y65630D01*
X175255Y67856D01*
Y71394D01*
X176319Y72458D01*
X176407Y72441D01*
X176418Y72433D01*
X176426Y72394D01*
X176451Y72357D01*
X176469Y72315D01*
X176500Y72283D01*
X176526Y72246D01*
X176563Y72220D01*
X176595Y72189D01*
X176637Y72171D01*
X176674Y72146D01*
X176719Y72137D01*
X176760Y72120D01*
X176806D01*
X176850Y72111D01*
X177450D01*
X177461Y72113D01*
X177472Y72111D01*
X177472Y72111D01*
X180830D01*
X186116Y66826D01*
X186264Y66726D01*
X186440Y66691D01*
X187104D01*
X187110Y66668D01*
X187275Y66382D01*
X187507Y66150D01*
X187793Y65985D01*
X188110Y65900D01*
X188440D01*
X188757Y65985D01*
X189043Y66150D01*
X189275Y66382D01*
X189440Y66668D01*
X189525Y66985D01*
Y67315D01*
X189440Y67632D01*
X189275Y67918D01*
X189043Y68150D01*
X188757Y68315D01*
X188440Y68400D01*
X188110D01*
X187793Y68315D01*
X187507Y68150D01*
X187275Y67918D01*
X187110Y67632D01*
X187104Y67609D01*
X186630D01*
X181344Y72894D01*
X181196Y72994D01*
X181020Y73029D01*
X177472D01*
X177461Y73027D01*
X177450Y73029D01*
X177004D01*
X176971Y73110D01*
X177980Y74120D01*
X178035Y74202D01*
X178055Y74300D01*
Y81200D01*
X178035Y81298D01*
X177980Y81380D01*
X177558Y81802D01*
X177606Y81875D01*
X177608Y81877D01*
X177747D01*
X177875Y81930D01*
X177974Y82029D01*
X178027Y82157D01*
Y82297D01*
X177974Y82425D01*
X177875Y82524D01*
X177747Y82577D01*
X177677D01*
X177622Y82631D01*
Y93035D01*
X177603Y93129D01*
X177550Y93210D01*
X176987Y93772D01*
Y96252D01*
X177037Y96302D01*
X177090Y96430D01*
Y96570D01*
X177037Y96698D01*
X176938Y96797D01*
X176810Y96850D01*
D02*
G37*
G36*
X142708Y93825D02*
X141350D01*
Y92467D01*
X142280D01*
X142444Y92499D01*
X142583Y92592D01*
X142676Y92731D01*
X142708Y92895D01*
Y93825D01*
D02*
G37*
G36*
X141050D02*
X139692D01*
Y92895D01*
X139724Y92731D01*
X139817Y92592D01*
X139956Y92499D01*
X140120Y92467D01*
X141050D01*
Y93825D01*
D02*
G37*
G36*
X155990Y91250D02*
X155810D01*
X155645Y91181D01*
X155637Y91174D01*
X155630Y91181D01*
X155465Y91250D01*
X155285D01*
X155120Y91181D01*
X154994Y91055D01*
X154925Y90890D01*
Y90710D01*
X154994Y90545D01*
X155120Y90419D01*
X155285Y90350D01*
X155465D01*
X155630Y90419D01*
X155637Y90426D01*
X155645Y90419D01*
X155810Y90350D01*
X155990D01*
X156155Y90419D01*
X156281Y90545D01*
X156350Y90710D01*
Y90890D01*
X156281Y91055D01*
X156155Y91181D01*
X155990Y91250D01*
D02*
G37*
G36*
X166192Y91152D02*
X166012D01*
X165847Y91083D01*
X165777Y91013D01*
X165707Y91083D01*
X165542Y91152D01*
X165362D01*
X165197Y91083D01*
X165127Y91013D01*
X165057Y91083D01*
X164892Y91152D01*
X164712D01*
X164547Y91083D01*
X164421Y90957D01*
X164352Y90791D01*
Y90612D01*
X164421Y90447D01*
X164547Y90321D01*
X164712Y90252D01*
X164892D01*
X165057Y90321D01*
X165127Y90391D01*
X165197Y90321D01*
X165362Y90252D01*
X165542D01*
X165707Y90321D01*
X165777Y90391D01*
X165847Y90321D01*
X166012Y90252D01*
X166192D01*
X166357Y90321D01*
X166483Y90447D01*
X166552Y90612D01*
Y90791D01*
X166483Y90957D01*
X166357Y91083D01*
X166192Y91152D01*
D02*
G37*
G36*
X141892Y88927D02*
X141350D01*
Y88055D01*
X142221D01*
Y88597D01*
X142196Y88723D01*
X142125Y88830D01*
X142018Y88902D01*
X141892Y88927D01*
D02*
G37*
G36*
X141050D02*
X140508D01*
X140382Y88902D01*
X140275Y88830D01*
X140204Y88723D01*
X140179Y88597D01*
Y88055D01*
X141050D01*
Y88927D01*
D02*
G37*
G36*
X184042Y87902D02*
X183862D01*
X183697Y87833D01*
X183652Y87788D01*
X183607Y87833D01*
X183442Y87902D01*
X183262D01*
X183097Y87833D01*
X183052Y87788D01*
X183007Y87833D01*
X182842Y87902D01*
X182662D01*
X182497Y87833D01*
X182371Y87707D01*
X182302Y87542D01*
Y87362D01*
X182371Y87197D01*
X182497Y87071D01*
X182662Y87002D01*
X182842D01*
X183007Y87071D01*
X183052Y87116D01*
X183097Y87071D01*
X183262Y87002D01*
X183442D01*
X183607Y87071D01*
X183652Y87116D01*
X183697Y87071D01*
X183862Y87002D01*
X184042D01*
X184207Y87071D01*
X184333Y87197D01*
X184402Y87362D01*
Y87542D01*
X184333Y87707D01*
X184207Y87833D01*
X184042Y87902D01*
D02*
G37*
G36*
X154950Y87932D02*
X154875D01*
Y87025D01*
X155332D01*
Y87550D01*
X155303Y87696D01*
X155220Y87820D01*
X155096Y87903D01*
X154950Y87932D01*
D02*
G37*
G36*
X154575D02*
X154500D01*
X154354Y87903D01*
X154230Y87820D01*
X154147Y87696D01*
X154118Y87550D01*
Y87025D01*
X154575D01*
Y87932D01*
D02*
G37*
G36*
X142221Y87755D02*
X141350D01*
Y86884D01*
X141892D01*
X142018Y86909D01*
X142125Y86980D01*
X142196Y87087D01*
X142221Y87213D01*
Y87755D01*
D02*
G37*
G36*
X141050D02*
X140179D01*
Y87213D01*
X140204Y87087D01*
X140275Y86980D01*
X140382Y86909D01*
X140508Y86884D01*
X141050D01*
Y87755D01*
D02*
G37*
G36*
X153190Y87700D02*
X153010D01*
X152845Y87631D01*
X152719Y87505D01*
X152650Y87340D01*
Y87160D01*
X152719Y86995D01*
X152845Y86869D01*
X153010Y86800D01*
X153190D01*
X153355Y86869D01*
X153481Y86995D01*
X153550Y87160D01*
Y87340D01*
X153481Y87505D01*
X153355Y87631D01*
X153190Y87700D01*
D02*
G37*
G36*
X172440Y87450D02*
X172260D01*
X172095Y87381D01*
X171969Y87255D01*
X171900Y87090D01*
Y86910D01*
X171969Y86745D01*
X172095Y86619D01*
X172260Y86550D01*
X172440D01*
X172605Y86619D01*
X172731Y86745D01*
X172800Y86910D01*
Y87090D01*
X172731Y87255D01*
X172605Y87381D01*
X172440Y87450D01*
D02*
G37*
G36*
X155332Y86725D02*
X154875D01*
Y85818D01*
X154950D01*
X155096Y85847D01*
X155220Y85930D01*
X155303Y86054D01*
X155332Y86200D01*
Y86725D01*
D02*
G37*
G36*
X154575D02*
X154118D01*
Y86200D01*
X154147Y86054D01*
X154230Y85930D01*
X154354Y85847D01*
X154500Y85818D01*
X154575D01*
Y86725D01*
D02*
G37*
G36*
X153965Y85800D02*
X153785D01*
X153620Y85731D01*
X153494Y85605D01*
X153425Y85440D01*
Y85260D01*
X153494Y85095D01*
X153620Y84969D01*
X153785Y84900D01*
X153965D01*
X154130Y84969D01*
X154256Y85095D01*
X154325Y85260D01*
Y85440D01*
X154256Y85605D01*
X154130Y85731D01*
X153965Y85800D01*
D02*
G37*
G36*
X155675Y82133D02*
X155175D01*
Y81625D01*
X156083D01*
Y81725D01*
X156052Y81881D01*
X155963Y82013D01*
X155831Y82102D01*
X155675Y82133D01*
D02*
G37*
G36*
X154875D02*
X154375D01*
X154219Y82102D01*
X154087Y82013D01*
X153998Y81881D01*
X153967Y81725D01*
Y81625D01*
X154875D01*
Y82133D01*
D02*
G37*
G36*
X170267Y82127D02*
X170087D01*
X169922Y82058D01*
X169796Y81932D01*
X169727Y81767D01*
Y81587D01*
X169796Y81422D01*
X169922Y81296D01*
X170087Y81227D01*
X170267D01*
X170432Y81296D01*
X170558Y81422D01*
X170627Y81587D01*
Y81767D01*
X170558Y81932D01*
X170432Y82058D01*
X170267Y82127D01*
D02*
G37*
G36*
X156083Y81325D02*
X155175D01*
Y80817D01*
X155675D01*
X155831Y80848D01*
X155963Y80937D01*
X156052Y81069D01*
X156083Y81225D01*
Y81325D01*
D02*
G37*
G36*
X154875D02*
X153967D01*
Y81225D01*
X153998Y81069D01*
X154087Y80937D01*
X154219Y80848D01*
X154375Y80817D01*
X154875D01*
Y81325D01*
D02*
G37*
G36*
X143790Y81400D02*
X143610D01*
X143445Y81331D01*
X143319Y81205D01*
X143250Y81040D01*
Y80860D01*
X143319Y80695D01*
X143339Y80675D01*
X143319Y80655D01*
X143250Y80490D01*
Y80310D01*
X143319Y80145D01*
X143445Y80019D01*
X143610Y79950D01*
X143790D01*
X143955Y80019D01*
X144081Y80145D01*
X144150Y80310D01*
Y80490D01*
X144081Y80655D01*
X144061Y80675D01*
X144081Y80695D01*
X144150Y80860D01*
Y81040D01*
X144081Y81205D01*
X143955Y81331D01*
X143790Y81400D01*
D02*
G37*
G36*
X155615Y79150D02*
X155435D01*
X155275Y79084D01*
X155115Y79150D01*
X154935D01*
X154775Y79084D01*
X154615Y79150D01*
X154435D01*
X154270Y79081D01*
X154144Y78955D01*
X154075Y78790D01*
Y78610D01*
X154144Y78445D01*
X154270Y78319D01*
X154435Y78250D01*
X154615D01*
X154775Y78316D01*
X154935Y78250D01*
X155115D01*
X155275Y78316D01*
X155435Y78250D01*
X155615D01*
X155780Y78319D01*
X155906Y78445D01*
X155975Y78610D01*
Y78790D01*
X155906Y78955D01*
X155780Y79081D01*
X155615Y79150D01*
D02*
G37*
G36*
X168640Y74200D02*
X168460D01*
X168295Y74131D01*
X168250Y74086D01*
X168205Y74131D01*
X168040Y74200D01*
X167860D01*
X167695Y74131D01*
X167569Y74005D01*
X167500Y73840D01*
Y73660D01*
X167566Y73500D01*
X167500Y73340D01*
Y73160D01*
X167569Y72995D01*
X167695Y72869D01*
X167860Y72800D01*
X168040D01*
X168205Y72869D01*
X168250Y72914D01*
X168295Y72869D01*
X168460Y72800D01*
X168640D01*
X168805Y72869D01*
X168931Y72995D01*
X169000Y73160D01*
Y73340D01*
X168934Y73500D01*
X169000Y73660D01*
Y73840D01*
X168931Y74005D01*
X168805Y74131D01*
X168640Y74200D01*
D02*
G37*
G36*
X157139Y70870D02*
X156960D01*
X156795Y70801D01*
X156750Y70756D01*
X156705Y70801D01*
X156539Y70870D01*
X156360D01*
X156195Y70801D01*
X156068Y70675D01*
X156000Y70509D01*
Y70330D01*
X156066Y70170D01*
X156000Y70009D01*
Y69830D01*
X156068Y69665D01*
X156195Y69538D01*
X156360Y69470D01*
X156539D01*
X156705Y69538D01*
X156750Y69584D01*
X156795Y69538D01*
X156960Y69470D01*
X157139D01*
X157305Y69538D01*
X157431Y69665D01*
X157500Y69830D01*
Y70009D01*
X157433Y70170D01*
X157500Y70330D01*
Y70509D01*
X157431Y70675D01*
X157305Y70801D01*
X157139Y70870D01*
D02*
G37*
G36*
X179895Y70489D02*
X176850D01*
X176806Y70480D01*
X176760D01*
X176719Y70463D01*
X176674Y70454D01*
X176637Y70429D01*
X176595Y70411D01*
X176563Y70380D01*
X176526Y70354D01*
X176500Y70317D01*
X176469Y70285D01*
X176451Y70243D01*
X176426Y70206D01*
X176417Y70161D01*
X176400Y70120D01*
Y70074D01*
X176391Y70030D01*
X176400Y69986D01*
Y69940D01*
X176417Y69899D01*
X176426Y69854D01*
X176451Y69817D01*
X176469Y69775D01*
X176500Y69743D01*
X176526Y69706D01*
X176563Y69680D01*
X176595Y69649D01*
X176637Y69631D01*
X176674Y69606D01*
X176719Y69597D01*
X176760Y69580D01*
X176806D01*
X176850Y69571D01*
X179705D01*
X187122Y62154D01*
X187110Y62132D01*
X187025Y61815D01*
Y61485D01*
X187110Y61168D01*
X187275Y60882D01*
X187507Y60650D01*
X187793Y60485D01*
X188110Y60400D01*
X188440D01*
X188757Y60485D01*
X189043Y60650D01*
X189275Y60882D01*
X189440Y61168D01*
X189525Y61485D01*
Y61815D01*
X189440Y62132D01*
X189275Y62418D01*
X189043Y62650D01*
X188757Y62815D01*
X188440Y62900D01*
X188110D01*
X187793Y62815D01*
X187771Y62803D01*
X180219Y70354D01*
X180071Y70454D01*
X179895Y70489D01*
D02*
G37*
%LPD*%
D12*
X175740Y94256D02*
Y96500D01*
Y94256D02*
X177083Y92914D01*
Y81918D02*
Y92914D01*
X175000Y60175D02*
X177300Y62475D01*
X175000Y67750D02*
Y71500D01*
X177300Y62475D02*
Y65450D01*
X175000Y67750D02*
X177300Y65450D01*
X175000Y71500D02*
X177800Y74300D01*
X172750Y57925D02*
X175000Y60175D01*
X177800Y74300D02*
Y81200D01*
X171125Y70242D02*
X173318D01*
X177500Y74424D01*
X176783Y81717D02*
Y92789D01*
X177500Y74424D02*
Y81000D01*
X176783Y81717D02*
X177500Y81000D01*
X177083Y81918D02*
X177800Y81200D01*
X175440Y94132D02*
X176783Y92789D01*
D69*
X154902Y132884D02*
D03*
Y167284D02*
D03*
D71*
X189240Y142000D02*
D03*
Y140000D02*
D03*
Y138000D02*
D03*
Y136000D02*
D03*
Y134000D02*
D03*
Y132000D02*
D03*
Y130000D02*
D03*
X187240Y138000D02*
D03*
Y136000D02*
D03*
Y134000D02*
D03*
Y132000D02*
D03*
D162*
X177450Y70030D02*
X179895D01*
X176850D02*
X177450D01*
X179895D02*
X188275Y61650D01*
X177472Y72570D02*
X181020D01*
X186440Y67150D02*
X188275D01*
X181020Y72570D02*
X186440Y67150D01*
X177472Y72570D02*
X177472Y72570D01*
X176850Y72570D02*
X177450D01*
D166*
X176740Y93670D02*
Y96500D01*
Y93670D02*
X177375Y93035D01*
Y82529D02*
Y93035D01*
X174740Y94842D02*
X175447Y94135D01*
X174740Y94842D02*
Y96500D01*
X177375Y82529D02*
X177677Y82227D01*
D168*
X164752Y132450D02*
X165155Y132047D01*
Y131155D02*
Y132047D01*
X164750Y132450D02*
X164752D01*
X174750Y133950D02*
X174752D01*
X175785Y132917D01*
Y131042D02*
Y132917D01*
X174752Y133450D02*
X175575Y132627D01*
X174750Y133450D02*
X174752D01*
X174752Y132950D02*
X175365Y132337D01*
X174750Y132950D02*
X174752D01*
X174752Y132450D02*
X175155Y132047D01*
X174750Y132450D02*
X174752D01*
X174045Y133747D02*
X174748Y134450D01*
X174750D01*
X174045Y123442D02*
Y133747D01*
X164750Y132950D02*
X164752D01*
X165365Y132337D01*
X164752Y133450D02*
X165575Y132627D01*
X164750Y133450D02*
X164752D01*
X164750Y133950D02*
X164752D01*
X165785Y132917D01*
X163850Y124464D02*
Y133552D01*
X164748Y134450D02*
X164750D01*
X163850Y133552D02*
X164748Y134450D01*
X149400Y89794D02*
Y89800D01*
X149380Y89774D02*
X149400Y89794D01*
Y89800D02*
X158075Y98475D01*
X149380Y76299D02*
Y89774D01*
X147156Y74075D02*
X149380Y76299D01*
X147243Y73865D02*
X149590Y76212D01*
Y89687D01*
X158168Y98265D01*
X149800Y89600D02*
X158255Y98055D01*
X149800Y76125D02*
Y89600D01*
X147330Y73655D02*
X149800Y76125D01*
X161475Y99462D02*
X162038Y100025D01*
X161475Y99054D02*
Y99462D01*
X158075Y98475D02*
X160896D01*
X161475Y99054D01*
X161685Y99172D02*
X162038Y99525D01*
X158168Y98265D02*
X160983D01*
X162038Y99525D02*
X162040D01*
X161685Y98967D02*
Y99172D01*
X160983Y98265D02*
X161685Y98967D01*
X162038Y100025D02*
X162040D01*
X160338Y101335D02*
X165531D01*
X139975Y95975D02*
X154978D01*
X160338Y101335D01*
X155065Y95765D02*
X160425Y101125D01*
X140062Y95765D02*
X155065D01*
X160425Y101125D02*
X165930D01*
X158255Y98055D02*
X161070D01*
X143389Y73655D02*
X147330D01*
X143014Y73280D02*
X143389Y73655D01*
X142505Y73338D02*
X143033Y73865D01*
X147243D01*
X141950Y73280D02*
X142745Y74075D01*
X147156D01*
X165696Y101500D02*
X165740D01*
X165531Y101335D02*
X165696Y101500D01*
X161070Y98055D02*
X162040Y99025D01*
X164595Y102355D02*
X165740Y103500D01*
X155442Y102355D02*
X164595D01*
X154500Y103297D02*
X155442Y102355D01*
X154500Y103297D02*
Y105125D01*
X164887Y102145D02*
X165385Y102643D01*
X155355Y102145D02*
X164887D01*
X154000Y103500D02*
X155355Y102145D01*
X149875Y105491D02*
X153431Y101935D01*
X165086D01*
X165506Y102355D01*
X151019Y104050D02*
X153344Y101725D01*
X165173D01*
X165593Y102145D01*
X154000Y103500D02*
Y105125D01*
X149927Y104050D02*
X151019D01*
X165385Y102643D02*
Y102647D01*
X165593Y102855D01*
X165597D01*
X166095Y103353D01*
X165531Y102355D02*
X165676Y102500D01*
X165740D01*
X165506Y102355D02*
X165531D01*
X165593Y102145D02*
X166385D01*
X182184Y107956D02*
X183140Y107000D01*
X168196Y107956D02*
X182184D01*
X166740Y106500D02*
X168196Y107956D01*
X174885Y123790D02*
Y130142D01*
X175785Y131042D01*
X174885Y123790D02*
X181540Y117135D01*
X174675Y123703D02*
X181040Y117338D01*
X174675Y130229D02*
X175575Y131129D01*
X174675Y123703D02*
Y130229D01*
X174465Y123616D02*
X180540Y117541D01*
X174465Y123616D02*
Y130316D01*
X175365Y131216D01*
X174255Y123529D02*
X180040Y117744D01*
X174255Y123529D02*
Y130403D01*
X175155Y131303D01*
X175095Y123877D02*
Y129195D01*
X176050Y130150D01*
X175095Y123877D02*
X181136Y117836D01*
X181136D01*
X181895Y117077D01*
Y112655D02*
Y117077D01*
X179740Y110500D02*
X181895Y112655D01*
X178740Y110500D02*
X179625Y111385D01*
X166175Y104800D02*
X171475Y99500D01*
X166175Y104800D02*
Y113117D01*
X165050Y114242D02*
X166175Y113117D01*
X171475Y99500D02*
X176740D01*
X149875Y105491D02*
Y108000D01*
X145650Y112225D02*
X149875Y108000D01*
X166385Y102145D02*
X166740Y102500D01*
X166095Y103353D02*
X166242Y103500D01*
X166095Y103353D02*
Y103353D01*
X166242Y103500D02*
X166740D01*
X154500Y118700D02*
X157540D01*
X165740Y110500D01*
X142950Y73280D02*
X143014D01*
X142505Y73105D02*
Y73338D01*
X142450Y73050D02*
X142505Y73105D01*
X165930Y101125D02*
X166305Y101500D01*
X166740D01*
X139386Y95089D02*
X140062Y95765D01*
X139386Y93934D02*
Y95089D01*
X138677Y93225D02*
X139386Y93934D01*
X138675Y93225D02*
X138677D01*
X139176Y95176D02*
X139975Y95975D01*
X139176Y94224D02*
Y95176D01*
X138677Y93725D02*
X139176Y94224D01*
X138675Y93725D02*
X138677D01*
X177250Y110990D02*
X177740Y110500D01*
X177250Y110990D02*
Y116292D01*
X163850Y124464D02*
X164794Y123519D01*
X164794D02*
X167919Y120395D01*
X164794Y123519D02*
X164794D01*
X167919Y120395D02*
X173147D01*
X177250Y116292D01*
X179625Y111385D02*
Y117862D01*
X174045Y123442D02*
X179625Y117862D01*
X164060Y124551D02*
X164881Y123729D01*
X164060Y124551D02*
Y130060D01*
X165155Y131155D01*
X164270Y129973D02*
X165365Y131068D01*
X164270Y124638D02*
Y129973D01*
Y124638D02*
X164968Y123939D01*
X164480Y129886D02*
X165575Y130981D01*
X164480Y124725D02*
Y129886D01*
Y124725D02*
X165055Y124149D01*
X164690Y124812D02*
X165142Y124359D01*
X164690Y124812D02*
Y129799D01*
X165785Y130894D01*
X164881Y123729D02*
X168006Y120605D01*
X173285D01*
X164881Y123729D02*
X164881D01*
X164968Y123939D02*
X164968D01*
X168093Y120815D02*
X173577D01*
X164968Y123939D02*
X168093Y120815D01*
X165055Y124149D02*
X165055D01*
X168180Y121025D02*
X173867D01*
X165055Y124149D02*
X168180Y121025D01*
X168267Y121235D02*
X174157D01*
X165142Y124359D02*
X165142D01*
X168267Y121235D01*
X173285Y120605D02*
X177690Y116200D01*
X173577Y120815D02*
X178190Y116202D01*
X173867Y121025D02*
X178690Y116202D01*
X174157Y121235D02*
X179190Y116202D01*
X180040Y116200D02*
Y117744D01*
X180540Y116200D02*
Y117541D01*
X181040Y116200D02*
Y117338D01*
X181540Y116200D02*
Y117135D01*
X165365Y131068D02*
Y132337D01*
X165575Y130981D02*
Y132627D01*
X165785Y130894D02*
Y132917D01*
X175575Y131129D02*
Y132627D01*
X175365Y131216D02*
Y132337D01*
X175155Y131303D02*
Y132047D01*
X179190Y116200D02*
Y116202D01*
X178690Y116200D02*
Y116202D01*
X178190Y116200D02*
Y116202D01*
X167832Y120185D02*
X172857D01*
X171985Y119555D02*
X175340Y116200D01*
X170475Y118715D02*
X172990Y116200D01*
X166732Y117395D02*
X168097D01*
X167571Y119555D02*
X171985D01*
X171057Y119135D02*
X173990Y116202D01*
X167049Y118295D02*
X169547D01*
X172857Y120185D02*
X176840Y116202D01*
X166799Y117625D02*
X168367D01*
X167223Y118715D02*
X170475D01*
X172277Y119765D02*
X175840Y116202D01*
X161120Y123304D02*
X166799Y117625D01*
X167484Y119345D02*
X171347D01*
X166962Y118085D02*
X169257D01*
X167136Y118505D02*
X169837D01*
X168790Y116200D02*
Y116202D01*
X167745Y119975D02*
X172567D01*
X166645Y117185D02*
X167807D01*
X172567Y119975D02*
X172987Y119555D01*
X169837Y118505D02*
X172140Y116202D01*
X169290Y116200D02*
Y116202D01*
X167658Y119765D02*
X172277D01*
X169547Y118295D02*
X169692Y118150D01*
X168367Y117625D02*
X169790Y116202D01*
X167310Y118925D02*
X170767D01*
X167807Y117185D02*
X168790Y116202D01*
X171347Y119345D02*
X174490Y116202D01*
X169257Y118085D02*
X169467Y117875D01*
X168097Y117395D02*
X169290Y116202D01*
X170767Y118925D02*
X173490Y116202D01*
X167397Y119135D02*
X171057D01*
X166875Y117875D02*
X168965D01*
X170640Y116200D01*
X161330Y123420D02*
X166875Y117875D01*
X161540Y123507D02*
X166962Y118085D01*
X161960Y123681D02*
X167136Y118505D01*
X163430Y124290D02*
X167745Y119975D01*
X162590Y123942D02*
X167397Y119135D01*
X163640Y124377D02*
X167832Y120185D01*
X163010Y124116D02*
X167571Y119555D01*
X162380Y123855D02*
X167310Y118925D01*
X163220Y124203D02*
X167658Y119765D01*
X161750Y123594D02*
X167049Y118295D01*
X162170Y123768D02*
X167223Y118715D01*
X162800Y124029D02*
X167484Y119345D01*
X167515Y116975D02*
X168290Y116200D01*
X166558Y116975D02*
X167515D01*
X169692Y118150D02*
X171640Y116202D01*
X169467Y117875D02*
X171140Y116202D01*
X169467Y117875D02*
X169467D01*
X169692Y118150D02*
X169692D01*
X176840Y116200D02*
Y116202D01*
X163640Y124377D02*
Y137884D01*
X163430Y124290D02*
Y137797D01*
X172987Y119555D02*
X172987D01*
X176340Y116202D01*
X163220Y124203D02*
Y137710D01*
X163010Y124116D02*
Y137623D01*
X162800Y124029D02*
Y137536D01*
X162590Y123942D02*
Y137449D01*
X162380Y123855D02*
Y137362D01*
X162170Y123768D02*
Y137275D01*
X161960Y123681D02*
Y137188D01*
X161750Y123594D02*
Y137101D01*
X161540Y123507D02*
Y137014D01*
X161330Y123420D02*
Y136927D01*
X172140Y116200D02*
Y116202D01*
X161120Y123304D02*
Y136840D01*
X171640Y116200D02*
Y116202D01*
X160910Y123217D02*
X166732Y117395D01*
X160910Y123217D02*
Y136753D01*
X171140Y116200D02*
Y116202D01*
X160700Y123130D02*
X166645Y117185D01*
X160700Y123130D02*
Y136666D01*
X160490Y123043D02*
Y136579D01*
Y123043D02*
X166558Y116975D01*
X166471Y116765D02*
X166877D01*
X167440Y116202D01*
X169790Y116200D02*
Y116202D01*
X160280Y122956D02*
X166471Y116765D01*
X160280Y122956D02*
Y136492D01*
X166587Y116555D02*
X166940Y116202D01*
X160070Y122869D02*
X166384Y116555D01*
X166587D01*
X160070Y122869D02*
Y136399D01*
X159650Y122695D02*
X165050Y117295D01*
X165050D02*
X165050Y116258D01*
X159650Y122695D02*
Y136225D01*
X159860Y122782D02*
X165942Y116700D01*
X159860Y122782D02*
Y136312D01*
X165942Y116700D02*
X165942D01*
X176340Y116200D02*
Y116202D01*
X175840Y116200D02*
Y116202D01*
X174490Y116200D02*
Y116202D01*
X173990Y116200D02*
Y116202D01*
X173490Y116200D02*
Y116202D01*
X165942Y116700D02*
X166440Y116202D01*
X158927Y149604D02*
Y151010D01*
X160205Y141319D02*
Y148326D01*
X158927Y149604D02*
X160205Y148326D01*
X158717Y149517D02*
Y150218D01*
X159995Y141232D02*
Y148239D01*
X158717Y149517D02*
X159995Y148239D01*
X158362Y148575D02*
X159065D01*
X159575Y141058D02*
Y148065D01*
X159065Y148575D02*
X159575Y148065D01*
X159785Y141145D02*
Y148152D01*
X158362Y149575D02*
X159785Y148152D01*
X158362Y151575D02*
X158927Y151010D01*
X158362Y150573D02*
Y150575D01*
Y150573D02*
X158717Y150218D01*
X162925Y138599D02*
Y138599D01*
X160205Y141319D02*
X162925Y138599D01*
Y138599D02*
X163640Y137884D01*
X159995Y141232D02*
X163430Y137797D01*
X159785Y141145D02*
X163220Y137710D01*
X159575Y141058D02*
X163010Y137623D01*
X156240Y144096D02*
X162800Y137536D01*
X156030Y144009D02*
X162590Y137449D01*
X155820Y143922D02*
X162380Y137362D01*
X155610Y143835D02*
X162170Y137275D01*
X155400Y143748D02*
X161960Y137188D01*
X155190Y143661D02*
X161750Y137101D01*
X154980Y143574D02*
X161540Y137014D01*
X154770Y143487D02*
X161330Y136927D01*
X154560Y143400D02*
X161120Y136840D01*
X154350Y143313D02*
X160910Y136753D01*
X154140Y143226D02*
X160700Y136666D01*
X153930Y143139D02*
X160490Y136579D01*
X158752Y138020D02*
X160280Y136492D01*
X159950Y136519D02*
X160070Y136399D01*
X153510Y142965D02*
X159950Y136525D01*
Y136519D02*
Y136525D01*
X159625Y136547D02*
Y136550D01*
X153300Y142875D02*
X159625Y136550D01*
Y136547D02*
X159860Y136312D01*
X153090Y142785D02*
X159650Y136225D01*
X153090Y142785D02*
Y143208D01*
X153300Y142875D02*
Y147735D01*
X153510Y142965D02*
Y148525D01*
X158752Y138020D02*
X158752D01*
X153720Y143052D02*
X158752Y138020D01*
X153720Y143052D02*
Y149315D01*
X153930Y143139D02*
Y150105D01*
X154140Y143226D02*
Y150895D01*
X154350Y143313D02*
Y151685D01*
X154560Y143400D02*
Y152475D01*
X154770Y143487D02*
Y153265D01*
X154980Y143574D02*
Y154055D01*
X155190Y143661D02*
Y154845D01*
X155400Y143748D02*
Y155635D01*
X155610Y143835D02*
Y156425D01*
X155820Y143922D02*
Y157215D01*
X156030Y144009D02*
Y158005D01*
X156240Y144096D02*
Y158795D01*
X153075Y143223D02*
Y146960D01*
Y143223D02*
X153090Y143208D01*
X151442Y163593D02*
X156240Y158795D01*
X151442Y162593D02*
X156030Y158005D01*
X151442Y161593D02*
X155820Y157215D01*
X151442Y160593D02*
X155610Y156425D01*
X151442Y159593D02*
X155400Y155635D01*
X151442Y158593D02*
X155190Y154845D01*
X151442Y157593D02*
X154980Y154055D01*
X151442Y156593D02*
X154770Y153265D01*
X151442Y155593D02*
X154560Y152475D01*
X151442Y154593D02*
X154350Y151685D01*
X151442Y153593D02*
X154140Y150895D01*
X151442Y152593D02*
X153930Y150105D01*
X151442Y148593D02*
X153075Y146960D01*
X151442Y151593D02*
X153720Y149315D01*
X151442Y150593D02*
X153510Y148525D01*
X151442Y149593D02*
X153300Y147735D01*
D170*
X153250Y116150D02*
D03*
D171*
X188430Y154775D02*
D03*
X142710Y149695D02*
D03*
X165570Y175730D02*
D03*
X160490Y106000D02*
D03*
X188430Y88735D02*
D03*
X132550Y88735D02*
D03*
X160490Y53810D02*
D03*
D172*
X188430Y185890D02*
D03*
X142710Y175730D02*
D03*
X188430Y123660D02*
D03*
X132550D02*
D03*
X188430Y53810D02*
D03*
X132550D02*
D03*
D173*
X167300Y133200D02*
D03*
X177300D02*
D03*
D174*
X188275Y61650D02*
D03*
Y67150D02*
D03*
D175*
X153750Y107650D02*
D03*
D176*
X141200Y93975D02*
D03*
X141700Y75805D02*
D03*
D177*
X141200Y87905D02*
D03*
D178*
X143600Y66405D02*
D03*
D179*
X161100Y64150D02*
D03*
D180*
X154725Y86875D02*
D03*
D181*
X155025Y81475D02*
D03*
D182*
X170500Y165000D02*
D03*
X170500Y170000D02*
D03*
X181500Y170000D02*
D03*
X181500Y165000D02*
D03*
X181500Y160000D02*
D03*
D183*
X147900Y104300D02*
D03*
D184*
X145400Y110200D02*
D03*
D185*
X160500Y51000D02*
D03*
X190500Y157000D02*
D03*
Y153000D02*
D03*
X140500Y151000D02*
D03*
X166500Y173000D02*
D03*
X162500D02*
D03*
X160500Y178500D02*
D03*
X164500D02*
D03*
X167850Y132100D02*
D03*
X166750D02*
D03*
X167850Y133200D02*
D03*
X166750D02*
D03*
X167850Y134300D02*
D03*
X166750D02*
D03*
X177850Y132100D02*
D03*
X176750D02*
D03*
X177850Y133200D02*
D03*
X176750D02*
D03*
X177850Y134300D02*
D03*
X176750D02*
D03*
X137800Y108250D02*
D03*
X172500Y135000D02*
D03*
X174500Y137000D02*
D03*
X172500Y143000D02*
D03*
X170500Y137000D02*
D03*
Y141000D02*
D03*
X172500Y139000D02*
D03*
Y159000D02*
D03*
Y155000D02*
D03*
X170500Y145000D02*
D03*
X174500Y149000D02*
D03*
X177450Y72570D02*
D03*
X176850D02*
D03*
X177450Y70030D02*
D03*
X176850D02*
D03*
X148500Y79000D02*
D03*
X146500Y85000D02*
D03*
X152500Y95000D02*
D03*
X161000Y163000D02*
D03*
X159000Y153000D02*
D03*
X161000Y143000D02*
D03*
Y147000D02*
D03*
X174500Y145000D02*
D03*
Y153000D02*
D03*
X190500Y137000D02*
D03*
Y129000D02*
D03*
Y141000D02*
D03*
Y133000D02*
D03*
X182500Y137000D02*
D03*
Y187000D02*
D03*
X180500Y185000D02*
D03*
X178500Y183000D02*
D03*
X174500Y179000D02*
D03*
X176500Y181000D02*
D03*
X150500Y149000D02*
D03*
Y153000D02*
D03*
X148500Y151000D02*
D03*
X134500Y81000D02*
D03*
X176000Y71000D02*
D03*
X174000Y69000D02*
D03*
X174500Y73000D02*
D03*
X170000Y69000D02*
D03*
X170500Y73000D02*
D03*
X165000Y170000D02*
D03*
Y167000D02*
D03*
X163000Y165000D02*
D03*
X150000Y113000D02*
D03*
X140500Y111000D02*
D03*
X151750Y119000D02*
D03*
X153250Y125000D02*
D03*
Y129000D02*
D03*
Y133000D02*
D03*
X184500Y139000D02*
D03*
X180500D02*
D03*
X178500Y141000D02*
D03*
X182500D02*
D03*
X176500Y143000D02*
D03*
X180500D02*
D03*
X184500D02*
D03*
X188500D02*
D03*
X190500Y145000D02*
D03*
X186500D02*
D03*
X182500D02*
D03*
X178500D02*
D03*
X176500Y147000D02*
D03*
X180500D02*
D03*
X184500D02*
D03*
X188500D02*
D03*
X190500Y149000D02*
D03*
X188500Y151000D02*
D03*
X186500Y149000D02*
D03*
X184500Y151000D02*
D03*
X182500Y149000D02*
D03*
X178500D02*
D03*
X180500Y151000D02*
D03*
X182500Y153000D02*
D03*
X178500D02*
D03*
X176500Y151000D02*
D03*
X163000Y141000D02*
D03*
X165000Y143000D02*
D03*
X167000Y145000D02*
D03*
X163000D02*
D03*
X165000Y147000D02*
D03*
X161000Y159000D02*
D03*
Y155000D02*
D03*
Y151000D02*
D03*
X163000Y149000D02*
D03*
X167000D02*
D03*
X169000Y151000D02*
D03*
X163000Y153000D02*
D03*
X167000D02*
D03*
X165000Y151000D02*
D03*
X163000Y157000D02*
D03*
X167000D02*
D03*
X165000Y155000D02*
D03*
Y163000D02*
D03*
Y159000D02*
D03*
X163000Y161000D02*
D03*
X169000Y159000D02*
D03*
X167000Y161000D02*
D03*
X171000D02*
D03*
X174500D02*
D03*
X176000Y171000D02*
D03*
Y167000D02*
D03*
Y163000D02*
D03*
X176500Y159000D02*
D03*
X174500Y157000D02*
D03*
X176500Y155000D02*
D03*
X178500Y157000D02*
D03*
X180500Y155000D02*
D03*
X184500D02*
D03*
X182500Y157000D02*
D03*
X190500Y161000D02*
D03*
X188500Y159000D02*
D03*
X190500Y165000D02*
D03*
X188500Y163000D02*
D03*
X190500Y169000D02*
D03*
X188500Y167000D02*
D03*
Y171000D02*
D03*
X190500Y173000D02*
D03*
X188500Y175000D02*
D03*
X190500Y177000D02*
D03*
X188500Y179000D02*
D03*
X190500Y181000D02*
D03*
X184500Y187000D02*
D03*
X182500Y185000D02*
D03*
X180500Y183000D02*
D03*
X184500D02*
D03*
X186500Y181000D02*
D03*
X182500D02*
D03*
X184500Y179000D02*
D03*
X186500Y177000D02*
D03*
Y173000D02*
D03*
X184500Y175000D02*
D03*
X182500Y173000D02*
D03*
X178500D02*
D03*
X180500Y175000D02*
D03*
X182500Y177000D02*
D03*
X180500Y179000D02*
D03*
X178500Y181000D02*
D03*
X176500Y179000D02*
D03*
X178500Y177000D02*
D03*
X176500Y175000D02*
D03*
X174500Y177000D02*
D03*
X172500Y178500D02*
D03*
X168500D02*
D03*
X170500Y177000D02*
D03*
X172500Y175000D02*
D03*
X168500D02*
D03*
X174500Y173000D02*
D03*
X170500D02*
D03*
X162500Y177000D02*
D03*
X160500Y175000D02*
D03*
X158500Y173000D02*
D03*
Y177000D02*
D03*
X156500Y178500D02*
D03*
X154500Y177000D02*
D03*
X156500Y175000D02*
D03*
X154500Y173000D02*
D03*
X152500Y175000D02*
D03*
Y178500D02*
D03*
X144500D02*
D03*
X148500D02*
D03*
X150500Y177000D02*
D03*
Y173000D02*
D03*
X148500Y175000D02*
D03*
X146500Y177000D02*
D03*
Y173000D02*
D03*
X148500Y171000D02*
D03*
X146500Y169000D02*
D03*
X144500Y171000D02*
D03*
X140500D02*
D03*
X142500Y169000D02*
D03*
X140500Y167000D02*
D03*
X144500D02*
D03*
X148500D02*
D03*
X146500Y165000D02*
D03*
X142500D02*
D03*
X140500Y163000D02*
D03*
X148500D02*
D03*
X150500Y161000D02*
D03*
Y157000D02*
D03*
X148500Y155000D02*
D03*
Y159000D02*
D03*
X146500Y161000D02*
D03*
X144500Y163000D02*
D03*
X142500Y161000D02*
D03*
X140500Y159000D02*
D03*
X144500D02*
D03*
X142500Y157000D02*
D03*
X140500Y155000D02*
D03*
X142500Y153000D02*
D03*
X144500Y155000D02*
D03*
X146500Y157000D02*
D03*
Y153000D02*
D03*
Y149000D02*
D03*
X132500Y103000D02*
D03*
X138500Y101000D02*
D03*
X136500Y99000D02*
D03*
X134500Y101000D02*
D03*
Y97000D02*
D03*
X132500Y99000D02*
D03*
X144500Y115000D02*
D03*
X140500D02*
D03*
X146500Y117000D02*
D03*
X142500D02*
D03*
X138500D02*
D03*
X160500Y119000D02*
D03*
X138500Y81000D02*
D03*
Y85000D02*
D03*
X146500Y69000D02*
D03*
X144500Y71000D02*
D03*
X148500D02*
D03*
X146500Y73000D02*
D03*
X160500Y71000D02*
D03*
X162500Y73000D02*
D03*
X158500D02*
D03*
X154500D02*
D03*
X150500D02*
D03*
X148500Y83000D02*
D03*
X144500Y87000D02*
D03*
X146500Y89000D02*
D03*
X148500Y87000D02*
D03*
Y91000D02*
D03*
Y95000D02*
D03*
X150500Y97000D02*
D03*
X152500Y99000D02*
D03*
X154500Y101000D02*
D03*
X156500Y103000D02*
D03*
X164500Y111000D02*
D03*
Y107000D02*
D03*
Y103000D02*
D03*
X160500Y99000D02*
D03*
X162500Y97000D02*
D03*
X164500Y95000D02*
D03*
X168500D02*
D03*
X172500D02*
D03*
X180500D02*
D03*
X184500D02*
D03*
Y99000D02*
D03*
Y103000D02*
D03*
X184000Y111000D02*
D03*
Y115000D02*
D03*
X190500Y57000D02*
D03*
Y61000D02*
D03*
Y65000D02*
D03*
Y69000D02*
D03*
X188500Y71000D02*
D03*
X186500Y69000D02*
D03*
Y65000D02*
D03*
Y61000D02*
D03*
X188500Y59000D02*
D03*
X186500Y57000D02*
D03*
X184500Y59000D02*
D03*
Y63000D02*
D03*
Y67000D02*
D03*
Y71000D02*
D03*
X180500D02*
D03*
Y67000D02*
D03*
Y63000D02*
D03*
Y59000D02*
D03*
Y55000D02*
D03*
X172500D02*
D03*
X172500Y59000D02*
D03*
X170500Y61000D02*
D03*
X168500Y63000D02*
D03*
X166500Y61000D02*
D03*
X168500Y59000D02*
D03*
X158500Y61000D02*
D03*
X156500Y59000D02*
D03*
X154500Y61000D02*
D03*
X152500Y59000D02*
D03*
X150500Y61000D02*
D03*
X144500Y63000D02*
D03*
X146500Y61000D02*
D03*
X148500Y59000D02*
D03*
X140500Y67000D02*
D03*
X138500Y73000D02*
D03*
Y69000D02*
D03*
X162500Y117000D02*
D03*
X160500Y115000D02*
D03*
X162500Y113000D02*
D03*
Y109000D02*
D03*
X160500Y111000D02*
D03*
X158500Y113000D02*
D03*
Y109000D02*
D03*
Y101000D02*
D03*
X160500Y103000D02*
D03*
X156500Y99000D02*
D03*
X158500Y97000D02*
D03*
X154500D02*
D03*
X156500Y95000D02*
D03*
X160500D02*
D03*
X184000Y119000D02*
D03*
X188500D02*
D03*
X186500Y117000D02*
D03*
X190500D02*
D03*
X188500Y115000D02*
D03*
X186500Y113000D02*
D03*
X190500D02*
D03*
X188500Y111000D02*
D03*
X186500Y109000D02*
D03*
X190500D02*
D03*
X188500Y107000D02*
D03*
X186500Y105000D02*
D03*
X190500D02*
D03*
Y85000D02*
D03*
X186500D02*
D03*
X188500Y83000D02*
D03*
X186500Y81000D02*
D03*
Y77000D02*
D03*
X188500Y79000D02*
D03*
X190500Y81000D02*
D03*
Y77000D02*
D03*
X188500Y75000D02*
D03*
X190500Y73000D02*
D03*
X186500D02*
D03*
X184500Y75000D02*
D03*
X136500Y87000D02*
D03*
X186500Y101000D02*
D03*
X190500D02*
D03*
X188500Y103000D02*
D03*
Y99000D02*
D03*
X186500Y97000D02*
D03*
X190500D02*
D03*
X188500Y95000D02*
D03*
X190500Y93000D02*
D03*
X186500D02*
D03*
X182500D02*
D03*
X178500D02*
D03*
X174500D02*
D03*
X170500D02*
D03*
X166500D02*
D03*
X162500D02*
D03*
X158500D02*
D03*
X154500D02*
D03*
X150500D02*
D03*
Y77000D02*
D03*
X152500Y75000D02*
D03*
X154500Y77000D02*
D03*
X160500Y91000D02*
D03*
Y87000D02*
D03*
Y83000D02*
D03*
Y79000D02*
D03*
X158500Y77000D02*
D03*
X156500Y75000D02*
D03*
X162500Y77000D02*
D03*
X160500Y75000D02*
D03*
X166500Y77000D02*
D03*
X164500Y75000D02*
D03*
X170500Y77000D02*
D03*
X168500Y75000D02*
D03*
X174500Y77000D02*
D03*
X172500Y75000D02*
D03*
X176500D02*
D03*
X180500D02*
D03*
X178500Y77000D02*
D03*
X182500D02*
D03*
Y73000D02*
D03*
Y69000D02*
D03*
Y65000D02*
D03*
Y61000D02*
D03*
Y57000D02*
D03*
X184500Y55000D02*
D03*
X182500Y53000D02*
D03*
X184500Y51000D02*
D03*
X180500D02*
D03*
X178500Y53000D02*
D03*
X176500Y51000D02*
D03*
X174500Y53000D02*
D03*
X172500Y51000D02*
D03*
X170500Y53000D02*
D03*
Y57000D02*
D03*
X168500Y55000D02*
D03*
X162500Y57000D02*
D03*
X166500D02*
D03*
X164500Y55000D02*
D03*
X166500Y53000D02*
D03*
X168500Y51000D02*
D03*
X164500D02*
D03*
X152500D02*
D03*
X156500D02*
D03*
X158500Y57000D02*
D03*
X156500Y55000D02*
D03*
X154500Y53000D02*
D03*
X154500Y57000D02*
D03*
X150500D02*
D03*
X152500Y55000D02*
D03*
X150500Y53000D02*
D03*
X148500Y55000D02*
D03*
X146500Y57000D02*
D03*
X144500Y55000D02*
D03*
X148500Y51000D02*
D03*
X146500Y53000D02*
D03*
X144500Y51000D02*
D03*
X136500D02*
D03*
X140500D02*
D03*
X142500Y53000D02*
D03*
X138500D02*
D03*
X136500Y55000D02*
D03*
X140500D02*
D03*
X142500Y57000D02*
D03*
X144500Y59000D02*
D03*
X140500D02*
D03*
X138500Y57000D02*
D03*
X130500D02*
D03*
X134500D02*
D03*
X132500Y59000D02*
D03*
X136500D02*
D03*
X142500Y61000D02*
D03*
X140500Y63000D02*
D03*
X138500Y61000D02*
D03*
X130500D02*
D03*
X134500D02*
D03*
X132500Y63000D02*
D03*
X136500D02*
D03*
X138500Y65000D02*
D03*
X134500D02*
D03*
X130500D02*
D03*
X132500Y67000D02*
D03*
X136500D02*
D03*
X134500Y69000D02*
D03*
X130500D02*
D03*
X132500Y71000D02*
D03*
X136500D02*
D03*
X134500Y73000D02*
D03*
X130500D02*
D03*
X132500Y75000D02*
D03*
X136500D02*
D03*
Y79000D02*
D03*
X134500Y77000D02*
D03*
X130500D02*
D03*
X132500Y79000D02*
D03*
X136500Y83000D02*
D03*
X132500D02*
D03*
X130500Y81000D02*
D03*
X134500Y85000D02*
D03*
X130500D02*
D03*
X136500Y91000D02*
D03*
X134500Y93000D02*
D03*
X132500Y95000D02*
D03*
X130500Y93000D02*
D03*
Y97000D02*
D03*
Y101000D02*
D03*
Y105000D02*
D03*
Y109000D02*
D03*
X132500Y115000D02*
D03*
X146500Y141000D02*
D03*
Y137000D02*
D03*
Y133000D02*
D03*
Y129000D02*
D03*
X136500Y119000D02*
D03*
X140500D02*
D03*
X144500D02*
D03*
X146500Y121000D02*
D03*
X148500Y143000D02*
D03*
Y147000D02*
D03*
X146500Y145000D02*
D03*
X144500Y147000D02*
D03*
X140500D02*
D03*
X142500Y145000D02*
D03*
X144500Y143000D02*
D03*
X140500D02*
D03*
X142500Y141000D02*
D03*
X144500Y139000D02*
D03*
Y131000D02*
D03*
Y127000D02*
D03*
X142500Y133000D02*
D03*
X144500Y135000D02*
D03*
X140500D02*
D03*
X138500Y137000D02*
D03*
X142500D02*
D03*
X140500Y139000D02*
D03*
X142500Y121000D02*
D03*
X140500Y123000D02*
D03*
X144500D02*
D03*
X142500Y125000D02*
D03*
X136500Y135000D02*
D03*
X134500Y133000D02*
D03*
X132500Y131000D02*
D03*
Y127000D02*
D03*
X134500Y129000D02*
D03*
X136500Y127000D02*
D03*
X130500Y129000D02*
D03*
Y113000D02*
D03*
Y117000D02*
D03*
X132500Y119000D02*
D03*
X136500Y123000D02*
D03*
X134500Y117000D02*
D03*
X138500Y121000D02*
D03*
Y125000D02*
D03*
X140500Y127000D02*
D03*
X142500Y129000D02*
D03*
X138500D02*
D03*
X136500Y131000D02*
D03*
X140500D02*
D03*
X138500Y133000D02*
D03*
X154900Y169850D02*
D03*
Y170550D02*
D03*
Y171250D02*
D03*
X169650Y88900D02*
D03*
Y88100D02*
D03*
Y89700D02*
D03*
X173400Y56050D02*
D03*
X136450Y108250D02*
D03*
X157225Y62284D02*
D03*
X154425D02*
D03*
X137861Y114693D02*
D03*
X137862Y113931D02*
D03*
X137862Y113169D02*
D03*
X137861Y112407D02*
D03*
X136337D02*
D03*
X137099D02*
D03*
Y111645D02*
D03*
X136337D02*
D03*
X138623Y113169D02*
D03*
X138623Y113931D02*
D03*
X137100D02*
D03*
Y113169D02*
D03*
X136338D02*
D03*
Y113931D02*
D03*
X135650Y113550D02*
D03*
X134888D02*
D03*
X134126D02*
D03*
X136337Y115455D02*
D03*
X137099Y115455D02*
D03*
X137099Y114693D02*
D03*
X136337D02*
D03*
X141600Y87505D02*
D03*
X140800D02*
D03*
Y88305D02*
D03*
X141600D02*
D03*
X141150Y75255D02*
D03*
Y76355D02*
D03*
X142250D02*
D03*
Y75255D02*
D03*
X144166Y66405D02*
D03*
X143600Y65840D02*
D03*
X143034Y66405D02*
D03*
X143600Y66971D02*
D03*
X160050Y63100D02*
D03*
X160750Y65200D02*
D03*
X162150D02*
D03*
X161450Y64500D02*
D03*
X160750Y63800D02*
D03*
X162150D02*
D03*
X161450Y63100D02*
D03*
X160050Y64500D02*
D03*
X154725Y86375D02*
D03*
Y87375D02*
D03*
X155525Y81475D02*
D03*
X154525D02*
D03*
X170500Y164500D02*
D03*
Y165500D02*
D03*
X170500Y169500D02*
D03*
Y170500D02*
D03*
X181500Y170500D02*
D03*
Y169500D02*
D03*
X181500Y164500D02*
D03*
Y165500D02*
D03*
X181500Y159500D02*
D03*
Y160500D02*
D03*
X170500Y163700D02*
D03*
Y166300D02*
D03*
X170500Y171300D02*
D03*
Y168700D02*
D03*
X163100Y69000D02*
D03*
X147250Y81100D02*
D03*
X145400Y76500D02*
D03*
X155775Y68325D02*
D03*
X151175Y70150D02*
D03*
X160250Y58550D02*
D03*
X167650Y67800D02*
D03*
X165550Y72425D02*
D03*
Y73475D02*
D03*
X181500Y161300D02*
D03*
Y158700D02*
D03*
X181500Y166300D02*
D03*
Y163700D02*
D03*
X181500Y171300D02*
D03*
Y168700D02*
D03*
X136650Y97925D02*
D03*
X148375Y114225D02*
D03*
X151925Y101325D02*
D03*
X144195Y177215D02*
D03*
X144810Y175730D02*
D03*
X144195Y174245D02*
D03*
X142710Y173630D02*
D03*
X141225Y174245D02*
D03*
X140610Y175730D02*
D03*
X141225Y177215D02*
D03*
X142710Y177830D02*
D03*
X189915Y187375D02*
D03*
X190530Y185890D02*
D03*
X189915Y184405D02*
D03*
X188430Y183790D02*
D03*
X186945Y184405D02*
D03*
X186330Y185890D02*
D03*
X186945Y187375D02*
D03*
X188430Y187990D02*
D03*
X189915Y125145D02*
D03*
X190530Y123660D02*
D03*
X189915Y122175D02*
D03*
X188430Y121560D02*
D03*
X186945Y122175D02*
D03*
X186330Y123660D02*
D03*
X186945Y125145D02*
D03*
X188430Y125760D02*
D03*
X134035Y125145D02*
D03*
X134650Y123660D02*
D03*
X134035Y122175D02*
D03*
X132550Y121560D02*
D03*
X131065Y122175D02*
D03*
X130450Y123660D02*
D03*
X131065Y125145D02*
D03*
X132550Y125760D02*
D03*
X189915Y55295D02*
D03*
X190530Y53810D02*
D03*
X189915Y52325D02*
D03*
X188430Y51710D02*
D03*
X186945Y52325D02*
D03*
X186330Y53810D02*
D03*
X186945Y55295D02*
D03*
X188430Y55910D02*
D03*
X134035Y55295D02*
D03*
X134650Y53810D02*
D03*
X134035Y52325D02*
D03*
X132550Y51710D02*
D03*
X131065Y52325D02*
D03*
X130450Y53810D02*
D03*
X131065Y55295D02*
D03*
X132550Y55910D02*
D03*
X172500Y151000D02*
D03*
Y147000D02*
D03*
X159114Y134600D02*
D03*
X158464D02*
D03*
X150714Y164584D02*
D03*
X151364D02*
D03*
X151340Y137568D02*
D03*
X150690D02*
D03*
X151340Y139568D02*
D03*
X150690D02*
D03*
X158464Y147600D02*
D03*
X159114D02*
D03*
X150714Y134600D02*
D03*
X151364Y142600D02*
D03*
X150714D02*
D03*
X151364Y134600D02*
D03*
X158464Y142600D02*
D03*
X159114D02*
D03*
X150714Y145600D02*
D03*
X158464D02*
D03*
X159114D02*
D03*
X151364Y165584D02*
D03*
X150714D02*
D03*
X158464D02*
D03*
X159114D02*
D03*
X151364Y147600D02*
D03*
X150714D02*
D03*
X151364Y145600D02*
D03*
X148300Y104700D02*
D03*
X147500D02*
D03*
Y103900D02*
D03*
X148300D02*
D03*
X145000Y110600D02*
D03*
Y109800D02*
D03*
X145800D02*
D03*
Y110600D02*
D03*
D186*
X167950Y159300D02*
D03*
X180200Y129000D02*
D03*
X170200D02*
D03*
X181850Y134950D02*
D03*
X174750Y133950D02*
D03*
X179800Y134450D02*
D03*
X178500Y139600D02*
D03*
X177550D02*
D03*
X174750Y132450D02*
D03*
Y132950D02*
D03*
Y133450D02*
D03*
X174750Y134450D02*
D03*
X171850Y134950D02*
D03*
X168500Y139600D02*
D03*
X167550D02*
D03*
X176400Y140700D02*
D03*
X166400Y140750D02*
D03*
X164750Y134450D02*
D03*
Y133950D02*
D03*
X164750Y133450D02*
D03*
Y132950D02*
D03*
Y132450D02*
D03*
X145800Y95400D02*
D03*
X146500D02*
D03*
X147200D02*
D03*
X148600Y96350D02*
D03*
X147500Y118450D02*
D03*
X146500D02*
D03*
X145500D02*
D03*
Y117300D02*
D03*
X144500D02*
D03*
X143500D02*
D03*
Y118450D02*
D03*
X142500D02*
D03*
X141500D02*
D03*
Y117300D02*
D03*
X140500D02*
D03*
X139500D02*
D03*
Y118450D02*
D03*
X138500D02*
D03*
X137500D02*
D03*
Y117300D02*
D03*
X136500D02*
D03*
X135500D02*
D03*
Y118450D02*
D03*
X134650D02*
D03*
X133850D02*
D03*
X136500D02*
D03*
X140500D02*
D03*
X144500D02*
D03*
X159100Y159300D02*
D03*
X160050D02*
D03*
X159100Y160850D02*
D03*
X167000Y159300D02*
D03*
X166000D02*
D03*
X163950D02*
D03*
X162000D02*
D03*
X163000D02*
D03*
X161000Y160850D02*
D03*
X162000D02*
D03*
X160050D02*
D03*
X165000D02*
D03*
X166000D02*
D03*
X164050D02*
D03*
X168050D02*
D03*
X169000D02*
D03*
X170850Y159650D02*
D03*
X170200Y160500D02*
D03*
X133850Y117300D02*
D03*
X132550Y117350D02*
D03*
X132650Y116700D02*
D03*
X133850Y115700D02*
D03*
X135250D02*
D03*
Y114400D02*
D03*
X134500Y115750D02*
D03*
Y114350D02*
D03*
X135600Y115050D02*
D03*
X133800Y114400D02*
D03*
X133050Y114700D02*
D03*
X132550Y116150D02*
D03*
X133750Y116700D02*
D03*
X133850Y111400D02*
D03*
X135250D02*
D03*
Y112700D02*
D03*
X134500Y111350D02*
D03*
Y112750D02*
D03*
X135600Y112050D02*
D03*
X133800Y112700D02*
D03*
X133050Y112400D02*
D03*
X132600Y111750D02*
D03*
X132550Y110950D02*
D03*
X133800D02*
D03*
Y109750D02*
D03*
X132550D02*
D03*
Y107950D02*
D03*
X167900Y123100D02*
D03*
X168050Y123950D02*
D03*
X166500D02*
D03*
X154700Y122500D02*
D03*
X153800Y122250D02*
D03*
X153100Y121750D02*
D03*
X152650Y121000D02*
D03*
X152500Y119300D02*
D03*
Y120100D02*
D03*
X155150Y124350D02*
D03*
X156500D02*
D03*
X154900Y123700D02*
D03*
X156750D02*
D03*
X155200Y123050D02*
D03*
X156650Y123250D02*
D03*
X156750Y125000D02*
D03*
X155200Y125650D02*
D03*
Y126550D02*
D03*
X156600Y126750D02*
D03*
Y125450D02*
D03*
X154900Y127200D02*
D03*
X158150Y124350D02*
D03*
X157900Y123700D02*
D03*
X158000Y123250D02*
D03*
X157900Y125000D02*
D03*
X158050Y126750D02*
D03*
Y125450D02*
D03*
X154900Y125000D02*
D03*
X158850Y131200D02*
D03*
X156500Y127850D02*
D03*
X155150D02*
D03*
X156750Y128500D02*
D03*
X154900Y128500D02*
D03*
X155192Y129150D02*
D03*
X156600Y128950D02*
D03*
X155150Y130050D02*
D03*
X155300Y130650D02*
D03*
X155800Y131200D02*
D03*
X158150Y127850D02*
D03*
X157900Y128500D02*
D03*
X158050Y128950D02*
D03*
X151600Y125000D02*
D03*
X146750Y125000D02*
D03*
X150700Y131200D02*
D03*
X151200Y130650D02*
D03*
X151350Y130050D02*
D03*
X149900Y128950D02*
D03*
X151600Y127200D02*
D03*
X151308Y129150D02*
D03*
X151600Y128500D02*
D03*
X149750Y128500D02*
D03*
X151350Y127850D02*
D03*
X150000D02*
D03*
X149900Y125450D02*
D03*
Y126750D02*
D03*
X151300Y126550D02*
D03*
Y125650D02*
D03*
X149750Y125000D02*
D03*
X151000Y121350D02*
D03*
X151300Y122200D02*
D03*
X149850Y123250D02*
D03*
X151300Y123050D02*
D03*
X149750Y123700D02*
D03*
X151600D02*
D03*
X150000Y124350D02*
D03*
X151350D02*
D03*
X154750Y135300D02*
D03*
Y136850D02*
D03*
X155400D02*
D03*
Y135300D02*
D03*
X156050Y132900D02*
D03*
X156550Y131400D02*
D03*
Y133600D02*
D03*
X158100D02*
D03*
Y132500D02*
D03*
X156050Y132100D02*
D03*
X158100Y131400D02*
D03*
X157325Y130225D02*
D03*
X150100Y139700D02*
D03*
X149950Y139100D02*
D03*
X150650Y140200D02*
D03*
X150100Y141650D02*
D03*
X149200Y141050D02*
D03*
X148600Y140150D02*
D03*
X150450Y132900D02*
D03*
X149950Y131400D02*
D03*
Y135800D02*
D03*
Y134700D02*
D03*
Y136900D02*
D03*
Y138000D02*
D03*
Y133600D02*
D03*
X148400Y139100D02*
D03*
Y138000D02*
D03*
Y136900D02*
D03*
Y134700D02*
D03*
Y135800D02*
D03*
Y133600D02*
D03*
Y132500D02*
D03*
X150450Y132100D02*
D03*
X147650Y131200D02*
D03*
X147150Y130650D02*
D03*
X147000Y130050D02*
D03*
X148450Y128950D02*
D03*
X148400Y131400D02*
D03*
X146750Y127200D02*
D03*
X147042Y129150D02*
D03*
X146750Y128500D02*
D03*
X148600Y128500D02*
D03*
X147000Y127850D02*
D03*
X148350D02*
D03*
X148450Y125450D02*
D03*
Y126750D02*
D03*
X147050Y126550D02*
D03*
Y125650D02*
D03*
X148600Y125000D02*
D03*
X155800Y115400D02*
D03*
X156200Y120900D02*
D03*
X158450D02*
D03*
X156150Y120200D02*
D03*
X158500Y120150D02*
D03*
X156600Y115450D02*
D03*
X157350Y115850D02*
D03*
X157850Y116450D02*
D03*
X158100Y117250D02*
D03*
X156500Y117300D02*
D03*
X158100Y118750D02*
D03*
Y119550D02*
D03*
X156550Y119600D02*
D03*
X147350Y121350D02*
D03*
X147050Y122200D02*
D03*
X148500Y123250D02*
D03*
X147050Y123050D02*
D03*
X148600Y123700D02*
D03*
X146750D02*
D03*
X148350Y124350D02*
D03*
X147000D02*
D03*
X150300Y120900D02*
D03*
X148050D02*
D03*
X150350Y120200D02*
D03*
X148000Y120150D02*
D03*
X150700Y116900D02*
D03*
X149900Y115450D02*
D03*
X149150Y115850D02*
D03*
X148650Y116450D02*
D03*
X150500Y118450D02*
D03*
X148400Y117250D02*
D03*
X150000Y117300D02*
D03*
X148400Y118750D02*
D03*
X150500Y119100D02*
D03*
X148400Y119550D02*
D03*
X149950Y119600D02*
D03*
X133750Y108750D02*
D03*
X132650D02*
D03*
X132550Y107150D02*
D03*
X133900Y106850D02*
D03*
Y105650D02*
D03*
X132550Y105400D02*
D03*
Y104400D02*
D03*
X132700Y103500D02*
D03*
X133200Y102700D02*
D03*
X133900Y102150D02*
D03*
X134650Y101800D02*
D03*
X135350Y101650D02*
D03*
X136100D02*
D03*
X132600Y106250D02*
D03*
X133800D02*
D03*
X133850Y104250D02*
D03*
X134050Y103700D02*
D03*
X134450Y103300D02*
D03*
X136800Y102050D02*
D03*
Y102800D02*
D03*
X142750Y107350D02*
D03*
X146150Y107500D02*
D03*
X146300Y108200D02*
D03*
X144600Y107600D02*
D03*
X144050Y107400D02*
D03*
X143450D02*
D03*
X143550Y105100D02*
D03*
X142600Y103700D02*
D03*
X144050Y103750D02*
D03*
X141950Y102200D02*
D03*
X141650Y101150D02*
D03*
X143050Y101900D02*
D03*
X142750Y100950D02*
D03*
X140250Y101150D02*
D03*
X140300Y100450D02*
D03*
X142500Y97050D02*
D03*
Y97600D02*
D03*
X140300Y96850D02*
D03*
Y97350D02*
D03*
X148900D02*
D03*
X147350D02*
D03*
X147150Y96900D02*
D03*
X146500Y96850D02*
D03*
X145750D02*
D03*
X145050Y96700D02*
D03*
X144400Y96350D02*
D03*
X145200Y95350D02*
D03*
X144500Y94850D02*
D03*
X145050Y94900D02*
D03*
X145650D02*
D03*
X142550Y90000D02*
D03*
X143200D02*
D03*
X145550Y89600D02*
D03*
X144650D02*
D03*
X146150Y93050D02*
D03*
X144000D02*
D03*
X146150Y91500D02*
D03*
X143850Y91350D02*
D03*
X143150Y91300D02*
D03*
X140750Y90950D02*
D03*
X140400Y90450D02*
D03*
X140300Y89750D02*
D03*
X142000Y84250D02*
D03*
Y85050D02*
D03*
X140350Y86050D02*
D03*
X140200Y85550D02*
D03*
X140150Y84900D02*
D03*
Y84200D02*
D03*
X140300Y78200D02*
D03*
Y73200D02*
D03*
X141950Y69400D02*
D03*
X139900Y69350D02*
D03*
X141550Y67200D02*
D03*
X140850Y67400D02*
D03*
X142200Y72055D02*
D03*
X139700D02*
D03*
X142000Y70855D02*
D03*
X139900Y70905D02*
D03*
X142200Y83055D02*
D03*
X139700D02*
D03*
X142000Y81855D02*
D03*
X139900Y81905D02*
D03*
X139700Y79155D02*
D03*
X139900Y80355D02*
D03*
X142000Y80305D02*
D03*
X149225Y65150D02*
D03*
Y62650D02*
D03*
X150375Y62850D02*
D03*
X150400Y64900D02*
D03*
X153125Y62650D02*
D03*
Y65150D02*
D03*
X151950Y62900D02*
D03*
X151975Y64950D02*
D03*
X170850Y63150D02*
D03*
Y65650D02*
D03*
X169700Y63350D02*
D03*
Y65450D02*
D03*
X168100Y63350D02*
D03*
X168150Y65400D02*
D03*
X166950Y63150D02*
D03*
Y65650D02*
D03*
X146325Y93600D02*
D03*
X146225Y94600D02*
D03*
X145525Y92750D02*
D03*
X144625D02*
D03*
X146325Y90900D02*
D03*
X143925Y89900D02*
D03*
X146175D02*
D03*
X144625Y91750D02*
D03*
X145525D02*
D03*
X139700Y82455D02*
D03*
X142200D02*
D03*
X141950Y83550D02*
D03*
X140000Y83600D02*
D03*
X141400Y81605D02*
D03*
X140500D02*
D03*
X139700Y79755D02*
D03*
X140000Y78600D02*
D03*
X140500Y80605D02*
D03*
X141400D02*
D03*
X139700Y71455D02*
D03*
X142200D02*
D03*
X141900Y72600D02*
D03*
X140000D02*
D03*
X141400Y70605D02*
D03*
X140500D02*
D03*
X142200Y68755D02*
D03*
X139700D02*
D03*
X139800Y67755D02*
D03*
X140500Y69605D02*
D03*
X141400D02*
D03*
X149825Y62650D02*
D03*
Y65150D02*
D03*
X148650Y64900D02*
D03*
X148600Y63000D02*
D03*
X150675Y64350D02*
D03*
Y63450D02*
D03*
X152525Y65150D02*
D03*
Y62650D02*
D03*
X153650Y62950D02*
D03*
X153600Y64900D02*
D03*
X151675Y63450D02*
D03*
Y64350D02*
D03*
X154000Y64550D02*
D03*
X155100Y63200D02*
D03*
X154900Y64550D02*
D03*
X157850Y63250D02*
D03*
X157800Y64550D02*
D03*
X157250Y64600D02*
D03*
X156550Y63200D02*
D03*
Y64600D02*
D03*
X155800Y63300D02*
D03*
Y64500D02*
D03*
X164600Y65450D02*
D03*
X164550Y63650D02*
D03*
X165400Y63600D02*
D03*
Y65450D02*
D03*
X166250Y63650D02*
D03*
X166400Y65350D02*
D03*
X167550Y63150D02*
D03*
Y65650D02*
D03*
X168400Y63950D02*
D03*
Y64850D02*
D03*
X175200Y65600D02*
D03*
Y63200D02*
D03*
X176050Y65400D02*
D03*
Y63400D02*
D03*
X174450Y63550D02*
D03*
Y65250D02*
D03*
X169400Y64850D02*
D03*
Y63950D02*
D03*
X176550Y64400D02*
D03*
X173750Y63750D02*
D03*
Y65050D02*
D03*
X173000D02*
D03*
Y63750D02*
D03*
X172250D02*
D03*
Y65050D02*
D03*
X171550Y65300D02*
D03*
Y63500D02*
D03*
X170250Y63150D02*
D03*
Y65650D02*
D03*
X171125Y70242D02*
D03*
X149175Y130225D02*
D03*
Y122000D02*
D03*
X135331Y108862D02*
D03*
X169934Y149985D02*
D03*
X162550Y67925D02*
D03*
X158650Y67925D02*
D03*
X160825Y59575D02*
D03*
Y60450D02*
D03*
X144225Y78905D02*
D03*
X150450Y106700D02*
D03*
X145875Y105050D02*
D03*
X147150Y102275D02*
D03*
X149925Y104550D02*
D03*
X147150Y106325D02*
D03*
X145825Y105750D02*
D03*
X134700Y107500D02*
D03*
Y105000D02*
D03*
X138000Y93150D02*
D03*
X143000Y112750D02*
D03*
X179740Y110500D02*
D03*
X178740D02*
D03*
X177740D02*
D03*
X176740Y96500D02*
D03*
X175740D02*
D03*
X174740D02*
D03*
X172750Y57925D02*
D03*
X165050Y114242D02*
D03*
X176740Y99500D02*
D03*
X166740Y103500D02*
D03*
X165740D02*
D03*
X166740Y102500D02*
D03*
X165740D02*
D03*
X154000Y119300D02*
D03*
Y120100D02*
D03*
X169934Y148665D02*
D03*
X172984D02*
D03*
Y149985D02*
D03*
X165740Y110500D02*
D03*
X162040Y99025D02*
D03*
Y99525D02*
D03*
Y100025D02*
D03*
X166740Y101500D02*
D03*
X165740D02*
D03*
X149925Y104050D02*
D03*
X166440Y116200D02*
D03*
X166940D02*
D03*
X167440D02*
D03*
X181540D02*
D03*
X181040D02*
D03*
X180540D02*
D03*
X180040D02*
D03*
X142475Y98190D02*
D03*
Y99510D02*
D03*
X139425Y98190D02*
D03*
Y99510D02*
D03*
X178800Y121375D02*
D03*
X174525Y121375D02*
D03*
X182175Y127825D02*
D03*
X172175D02*
D03*
X182800Y133462D02*
D03*
Y131437D02*
D03*
X172800Y131437D02*
D03*
Y133462D02*
D03*
X176050Y130150D02*
D03*
X176550Y130200D02*
D03*
X179800Y132450D02*
D03*
X169150Y125175D02*
D03*
X165450D02*
D03*
X154500Y105125D02*
D03*
X142450Y73050D02*
D03*
X144225Y76555D02*
D03*
Y75555D02*
D03*
Y74555D02*
D03*
Y76055D02*
D03*
Y75055D02*
D03*
X138675Y93225D02*
D03*
Y93725D02*
D03*
X141950Y85805D02*
D03*
X145615Y65451D02*
D03*
X158050Y62400D02*
D03*
Y62900D02*
D03*
Y64900D02*
D03*
Y65900D02*
D03*
X159350Y67200D02*
D03*
X159850D02*
D03*
X161350D02*
D03*
X161850D02*
D03*
X162350D02*
D03*
X162850D02*
D03*
X164150Y65900D02*
D03*
Y65400D02*
D03*
Y63400D02*
D03*
Y62900D02*
D03*
Y62400D02*
D03*
X161850Y61100D02*
D03*
X162850D02*
D03*
X160850D02*
D03*
X160350D02*
D03*
X159850D02*
D03*
X159350D02*
D03*
X153500Y105125D02*
D03*
X152500D02*
D03*
X147425Y109450D02*
D03*
X144650Y108175D02*
D03*
X143375Y109450D02*
D03*
X166550Y130200D02*
D03*
X169800Y132450D02*
D03*
Y134450D02*
D03*
X154000Y105125D02*
D03*
X155000D02*
D03*
X151225Y106400D02*
D03*
X155000Y110175D02*
D03*
X156275Y106400D02*
D03*
Y106900D02*
D03*
Y107400D02*
D03*
Y107900D02*
D03*
Y108400D02*
D03*
Y108900D02*
D03*
X165050Y116258D02*
D03*
X143700Y93600D02*
D03*
X141950Y90005D02*
D03*
X139950Y96500D02*
D03*
X138675Y94225D02*
D03*
X143725Y92725D02*
D03*
X138675Y92725D02*
D03*
X139950Y91450D02*
D03*
X140450D02*
D03*
X140950D02*
D03*
X141450D02*
D03*
X141950D02*
D03*
X142450D02*
D03*
X139100Y88655D02*
D03*
X144225Y77055D02*
D03*
X144555Y68421D02*
D03*
X144908Y68067D02*
D03*
X145262Y67713D02*
D03*
X145615Y67360D02*
D03*
X139100Y87155D02*
D03*
Y87655D02*
D03*
X139175Y74555D02*
D03*
Y75055D02*
D03*
Y75555D02*
D03*
Y76055D02*
D03*
Y76555D02*
D03*
Y77055D02*
D03*
X141585Y65451D02*
D03*
X141938Y65097D02*
D03*
X141950Y73280D02*
D03*
X142292Y64744D02*
D03*
X142645Y64390D02*
D03*
X142645Y68421D02*
D03*
X142950Y73280D02*
D03*
X142950Y78330D02*
D03*
X143300Y87155D02*
D03*
Y87655D02*
D03*
X139100Y88155D02*
D03*
X143300Y88155D02*
D03*
Y88655D02*
D03*
X179190Y116200D02*
D03*
X178690D02*
D03*
X178190D02*
D03*
X177690D02*
D03*
X175340D02*
D03*
X175840D02*
D03*
X176340D02*
D03*
X176840D02*
D03*
X172990D02*
D03*
X173490D02*
D03*
X173990D02*
D03*
X174490D02*
D03*
X170640D02*
D03*
X171140D02*
D03*
X171640D02*
D03*
X172140D02*
D03*
X168290D02*
D03*
X168790D02*
D03*
X169290D02*
D03*
X169790D02*
D03*
X158362Y151575D02*
D03*
Y150575D02*
D03*
Y149575D02*
D03*
Y148575D02*
D03*
X151442Y148593D02*
D03*
Y149593D02*
D03*
Y150593D02*
D03*
Y151593D02*
D03*
Y152593D02*
D03*
Y153593D02*
D03*
Y154593D02*
D03*
Y155593D02*
D03*
Y156593D02*
D03*
Y157593D02*
D03*
Y158593D02*
D03*
Y159593D02*
D03*
Y160593D02*
D03*
Y161593D02*
D03*
Y162593D02*
D03*
Y163593D02*
D03*
X154150Y113400D02*
D03*
X145150Y112225D02*
D03*
X145650D02*
D03*
X177677Y82227D02*
D03*
X170740Y101500D02*
D03*
X176740D02*
D03*
X170740Y107500D02*
D03*
X176740D02*
D03*
X172740Y106500D02*
D03*
X174740D02*
D03*
X172740Y105500D02*
D03*
X171740D02*
D03*
Y106500D02*
D03*
X171790Y103500D02*
D03*
X174740Y105500D02*
D03*
X175740D02*
D03*
Y106500D02*
D03*
Y103500D02*
D03*
X172740Y102500D02*
D03*
X171740D02*
D03*
X174740D02*
D03*
X175740D02*
D03*
X172790Y103500D02*
D03*
X174740D02*
D03*
X166740Y106500D02*
D03*
X183140Y107000D02*
D03*
X185040Y106000D02*
D03*
Y106500D02*
D03*
Y107000D02*
D03*
Y107500D02*
D03*
X156450Y112100D02*
D03*
Y113000D02*
D03*
X157325Y122575D02*
D03*
Y126100D02*
D03*
Y129650D02*
D03*
X149175Y122600D02*
D03*
Y129650D02*
D03*
Y126100D02*
D03*
X154000Y118700D02*
D03*
X155800Y116900D02*
D03*
Y114900D02*
D03*
X152500Y113600D02*
D03*
X150700Y114900D02*
D03*
Y115400D02*
D03*
X152500Y118700D02*
D03*
X154500D02*
D03*
D187*
X146450Y100200D02*
D03*
Y98600D02*
D03*
X149850Y100200D02*
D03*
Y98600D02*
D03*
D196*
X184500Y108389D02*
Y135410D01*
Y108389D02*
X185040Y107849D01*
X184500Y135410D02*
X187090Y138000D01*
X184750Y108450D02*
X184780Y108420D01*
X184750Y108450D02*
Y133660D01*
X185000Y108511D02*
Y131910D01*
X185250Y108572D02*
X185840Y107982D01*
X185250Y108572D02*
Y130160D01*
X187090Y132000D01*
X185040Y107500D02*
Y107849D01*
X185189Y108011D02*
X185189D01*
X184750Y133660D02*
X187090Y136000D01*
X185189Y108011D02*
X185400Y107800D01*
X184780Y108420D02*
X185189Y108011D01*
X184780Y108420D02*
Y108420D01*
X185000Y108511D02*
X185281Y108231D01*
X185000Y131910D02*
X187090Y134000D01*
X185840Y106791D02*
Y107982D01*
X185049Y106000D02*
X185840Y106791D01*
X185040Y106000D02*
X185049D01*
X187090Y132000D02*
X187240D01*
X187090Y134000D02*
X187240D01*
X185049Y106500D02*
X185620Y107071D01*
X185281Y108231D02*
X185620Y107891D01*
X185040Y106500D02*
X185049D01*
X185620Y107071D02*
Y107891D01*
X185281Y108231D02*
X185281D01*
X185400Y107351D02*
Y107800D01*
X185049Y107000D02*
X185400Y107351D01*
X185040Y107000D02*
X185049D01*
X187090Y136000D02*
X187240D01*
X187090Y138000D02*
X187240D01*
M02*
