M48
;Layer_Color=9474304
;FILE_FORMAT=4:3
METRIC,LZ
;TYPE=PLATED
T1F00S00C0.200
T2F00S00C0.300
T3F00S00C0.500
T4F00S00C1.000
T5F00S00C1.400
T6F00S00C3.200
;TYPE=NON_PLATED
T7F00S00C1.500
%
T01
X0160825Y0059575
Y006045
X016085Y00611
X016035
X015985
X015935
X016185
X016285
X016415Y00624
Y00629
Y00634
X016455Y006365
X01654Y00636
X016625Y006365
X016695Y006315
X016755
X01681Y006335
X01684Y006395
Y006485
X016815Y00654
X016755Y006565
X016695
X01664Y006535
X01654Y006545
X01646
X016415Y00654
Y00659
X016285Y00672
X016235
X016185
X016135
X015985
X015935
X016255Y0067925
X01697Y006545
X017025Y006565
X017085Y006565
X017155Y00653
X017225Y006505
X0173
X017375
X017445Y006525
X01752Y00656
X017605Y00654
X017655Y00644
X017605Y00634
X01752Y00632
X017445Y006355
X017375Y006375
X0173
X017225
X017155Y00635
X017085Y006315
X017025Y006315
X01697Y006335
X01694Y006395
Y006485
X0171125Y0070242
X017275Y0057925
X015805Y00624
Y00629
X015785Y006325
X01578Y006455
X015805Y00649
Y00659
X015725Y00646
X015655
X01558Y00645
X01549Y006455
X0154
X01536Y00649
X0153125Y006515
X0152525Y006515
X0151975Y006495
X0151675Y006435
Y006345
X015195Y00629
X0152525Y006265
X0153125Y006265
X015365Y006295
X01551Y00632
X01558Y00633
X015655Y00632
X0150675Y006345
X0150375Y006285
X0149825Y006265
X0149225Y006265
X01486Y0063
X014865Y00649
X0149225Y006515
X0149825Y006515
X01504Y00649
X0150675Y006435
X0145615Y0065451
X0145615Y006736
X0145262Y0067713
X0144908Y0068067
X0144555Y0068421
X0142645Y0068421
X01422Y0068755
X014195Y00694
X01414Y0069605
X01405
X01399Y006935
X01397Y0068755
X01398Y0067755
X014085Y00674
X014155Y00672
X0141585Y0065451
X0141938Y0065097
X0142292Y0064744
X0142645Y006439
X0142Y0070855
X01422Y0071455
X01422Y0072055
X01419Y00726
X014195Y007328
X014245Y007305
X014295Y007328
X0144225Y0074555
Y0075055
Y0075555
Y0076055
Y0076555
Y0077055
X0144225Y0078905
X014295Y007833
X01403Y00782
X014Y00786
X01397Y0079155
X0139175Y0077055
Y0076555
Y0076055
Y0075555
Y0075055
Y0074555
X01403Y00732
X014Y00726
X01397Y0072055
X01397Y0071455
X01399Y0070905
X01405Y0070605
X01414
X015865Y0067925
X0142Y0080305
X01414Y0080605
X01405
X01399Y0080355
X01397Y0079755
X01399Y0081905
X01397Y0082455
X01397Y0083055
X014Y00836
X014015Y00842
Y00849
X01402Y008555
X014035Y008605
X014195Y0085805
X0142Y008505
Y008425
X014195Y008355
X01422Y0083055
X01422Y0082455
X0142Y0081855
X01414Y0081605
X01405
X01391Y0087155
Y0087655
Y0088155
Y0088655
X01403Y008975
X01404Y009045
X014075Y009095
X014095Y009145
X014145
X014195
X014245
X014315Y00913
X014385Y009135
X0144625Y009175
X0145525
X014615Y00915
X0146325Y00909
X0146175Y00899
X014555Y00896
X014465
X0143925Y00899
X01432Y009
X014255
X014195Y0090005
X01433Y0088655
Y0088155
Y0087655
Y0087155
X0143725Y0092725
X0144Y009305
X01437Y00936
X0144625Y009275
X0145525
X014615Y009305
X0146325Y00936
X0146225Y00946
X014565Y00949
X014505
X01452Y009535
X01458Y00954
X01465
X01472
X014715Y00969
X014735Y009735
X01465Y009685
X014575
X014505Y00967
X01444Y009635
X01445Y009485
X01425Y009705
Y00976
X0142475Y009819
Y009951
X014275Y010095
X014305Y01019
X014195Y01022
X014165Y010115
X014025
X01403Y010045
X0139425Y009951
Y009819
X01403Y009735
Y009685
X013995Y00965
X0138675Y0094225
Y0093725
Y0093225
Y0092725
X0138Y009315
X013995Y009145
X014045
X01486Y009635
X01489Y009735
X014985Y00986
Y01002
X014645
Y00986
X014715Y0102275
X0145875Y010505
X0145825Y010575
X014715Y0106325
X014615Y01075
X01463Y01082
X014465Y0108175
X01446Y01076
X014405Y01074
X014345
X014275Y010735
X0143375Y010945
X0143Y011275
X014515Y0112225
X014565
X0147425Y010945
X015045Y01067
X0151225Y01064
X01525Y0105125
X01535
X0154Y0105125
X01545
X0155
X0156275Y01064
Y01069
Y01074
Y01079
Y01084
Y01089
X0155Y0110175
X015645Y01121
Y0113
X01558Y01149
Y01154
X01566Y011545
X015735Y011585
X015785Y011645
X01581Y011725
Y011875
X01565Y01173
X01558Y01169
X01545Y01187
X0154
X01535
X0153
X01525
X01505Y011845
X015Y01173
X01507Y01169
Y01154
Y01149
X01499Y011545
X014915Y011585
X014865Y011645
X01484Y011725
Y011875
X01475Y011845
X01465
X01455
X01445
X01435
X01425
X01415
X01405
X01395
X01385
X01375
X01365
X01355
X013465
X013385
Y01173
X013375Y01167
X013265
X013255Y011615
Y011735
X013385Y01157
X01345Y011575
X013525Y01157
X01356Y011505
X013525Y01144
X01345Y011435
X01338Y01144
X013305Y01147
Y01124
X01338Y01127
X01345Y011275
X013525Y01127
X01356Y011205
X013525Y01114
X01345Y011135
X013385Y01114
X01338Y011095
Y010975
X013375Y010875
X013265
X013255Y010795
Y010715
X01326Y010625
X013255Y01054
Y01044
X01327Y01035
X01332Y01027
X01339Y010215
X013465Y01018
X013535Y010165
X01361
X01368Y010205
Y01028
X013445Y01033
X013405Y01037
X013385Y010425
X01339Y010565
X01338Y010625
X01339Y010685
X01347Y01075
X0135331Y0108862
X013255Y010975
Y011095
X01326Y011175
X01355Y01173
X01365
X01375
X01395
X01405
X01415
X01435
X01445
X01455
X01525Y01136
X015415Y01134
X0149925Y010455
Y010405
X014405Y010375
X01426Y01037
X014355Y01051
X01347Y0105
X016204Y0100025
Y0099525
Y0099025
X016574Y01015
Y01025
Y01035
X016674
Y01025
Y01015
X016874Y01005
X017074Y00995
Y01015
X017174
X017274
X017274Y01025
X017174
X017074
Y01035
X017179
X017279
X017474
Y01025
Y01015
X017574
X017674
Y01025
Y01035
X017574
Y01025
Y01055
X017474
Y01065
Y01075
X017574
Y01065
X017674
Y01075
Y01055
X017274
X017174
Y01065
X017274
Y01075
X017074
Y01065
Y01055
X016674Y01065
X016874Y01085
X016574Y01105
X016505Y0114242
Y0116258
X016644Y01162
X016694
X016744
X016829Y01162
X016879
X016929
X016979
X017064
X017114
X017164
X017214
X017299
X017349
X017399
X017449
X017534
X017584
X017634
X017684
X017769
X017819
X017869
X017919
X018004Y01162
X018054
X018104
X018154
X017974Y01105
X017874
X017774
X017574Y01095
X018314Y0107
X018504
Y01065
Y0106
Y01075
X017974Y00985
X017674Y00995
Y00965
X017574
X017474
X0177677Y0082227
X01788Y0121375
X0174525Y0121375
X01679Y01231
X016805Y012395
X016785Y012475
X016675
X01665Y012395
X016545Y0125175
X01659Y0126675
X01687
X016915Y0125175
X0170673Y0127392
X0172175Y0127825
X01702Y0129
X01698Y013145
Y013245
Y013445
X017185Y013495
X01728Y0133462
X017475Y013345
Y013295
Y013245
X017475Y013195
X01748Y013145
X01744
X01728Y0131437
X017475Y013395
Y013445
X017655Y013615
Y013655
X017705Y013615
X017855
Y013655
X01785Y01396
X017755
X01764Y01407
X01685Y01396
X016755
X01664Y014075
X016655Y013655
Y013615
X016705
X016855
Y013655
X016475Y013445
Y013395
X016475Y013345
Y013295
Y013245
X016475Y013195
X01648Y013145
X01644
X016655Y01302
X016805
X016805Y01298
X017605Y013015
X017655Y01302
X017805
X017805Y01298
X01802Y0129
X0180675Y0127375
X0182175Y0127825
X01828Y0131437
Y0133462
X018185Y013495
X01798Y013445
X01798Y013245
Y013145
X01773Y01276
Y01272
X015885Y01312
X0169934Y0148665
Y0149985
X0172984
Y0148665
X0170608Y0158637
X0169758
X0158362Y0158575
Y0157575
Y0156575
Y0155575
Y0151575
Y0150575
Y0149575
Y0148575
X0151442Y0148593
Y0149593
Y0150593
Y0151593
Y0152593
Y0153593
Y0154593
Y0155593
Y0156593
Y0157593
Y0158593
Y0141593
Y0140593
X015065Y01402
X01501Y01397
X014995Y01391
Y0138
Y01369
Y01358
Y01347
Y01336
X015045Y01329
Y01321
X01507Y01312
X014995Y01314
X01484
X014765Y01312
X014715Y013065
X0147Y013005
X0147042Y012915
X014675Y01285
X0147Y012785
X014675Y01272
X014705Y012655
Y012565
X014675Y0125
X0147Y012435
X014675Y01237
X014705Y012305
Y01222
X014735Y012135
X014805Y01209
X0148Y012015
X01484Y011955
X014995Y01196
X015035Y01202
X01503Y01209
X0151Y012135
X01513Y01222
Y012305
X01516Y01237
X015135Y012435
X01516Y0125
X01513Y012565
Y012655
X01516Y01272
X015135Y012785
X01516Y01285
X0151308Y012915
X015135Y013005
X01512Y013065
X0149175Y0130225
Y012965
X01499Y012895
X014975Y01285
X015Y012785
X01499Y012675
Y012545
X014975Y0125
X015Y012435
X014975Y01237
X014985Y012325
X0149175Y01226
Y0122
X01485Y012325
X01486Y01237
X014835Y012435
X01486Y0125
X014845Y012545
Y012675
X014835Y012785
X01486Y01285
X014845Y012895
X0149175Y01261
X01552Y012655
Y012565
X01549Y0125
X015515Y012435
X01549Y01237
X01552Y012305
X01547Y01225
X01538Y012225
X01531Y012175
X015265Y0121
X01525Y01201
Y01193
X0154
Y01201
X015615Y01202
X01562Y01209
X015655Y01196
X01581Y011955
X01585Y012015
X015845Y01209
X0158Y012325
X01579Y01237
X015815Y012435
X01579Y0125
X015805Y012545
Y012675
X015815Y012785
X01579Y01285
X015805Y012895
X0157325Y012965
Y0130225
X015655Y01314
X01558Y01312
X01553Y013065
X015515Y013005
X0155192Y012915
X01549Y01285
X015515Y012785
X01549Y01272
X01566Y012675
X01565Y012785
X015675Y01285
X01566Y012895
Y012545
X015675Y0125
X01565Y012435
X015675Y01237
X015665Y012325
X0157325Y0122575
Y01261
X01581Y01314
Y01325
Y01336
X015655
X015605Y01329
Y01321
X01554Y01353
X015475
Y013685
X01554
X015144Y0136584
Y0135584
X01484Y01358
Y01369
Y0138
Y01391
X01486Y014015
X01492Y014105
X01501Y014165
X01484Y01347
Y01336
Y01325
X01505Y01191
X0151442Y0159593
Y0160593
Y0161593
Y0162593
Y0163593
X01544Y01626
X015475
X0158362Y0162575
Y0161575
Y0160575
Y0159575
X01591Y01593
X016005
X016005Y016085
X01591
X0161
X0162
X0162Y01593
X0163
X016395
X016405Y016085
X0165
X0166
X0166Y01593
X0167
X016795
X016805Y016085
X0169
X01702Y01605
X017085Y015965
T02
X01605Y0051
X01645
Y0055
X01685
X01665Y0053
X01705
X01725Y0055
X01734Y005605
X017354Y00597
X01725Y0059
X01685
X01705Y0057
Y0061
X01685Y0063
X01665Y0061
Y0057
X01625
X016025Y005855
X016005Y00631
X016075Y00638
X016215
X016145Y00631
Y00645
X016215Y00652
X016075
X016005Y00645
X01605Y0071
X01625Y0073
X016555Y0073475
Y0072425
X016795Y007325
Y007375
X016855
Y007325
X01685Y0075
X01705Y0073
X01745
X017685Y007257
X017745
Y007003
X017685
X0176Y0071
X0174Y0069
X017
X016765Y00678
X01631Y0069
X01645Y0075
X01665Y0077
X01625
X01605Y0079
Y0075
X01705Y0077
X01745
X01725Y0075
X01765
X01805
Y0071
X01845
X01825Y0073
X01865
X01885Y0071
X01865Y0069
X01905
Y0065
Y0061
Y0057
X0189915Y0055295
X019053Y005381
X0189915Y0052325
X018843Y005171
X0186945Y0052325
X018633Y005381
X0186945Y0055295
X018843Y005591
X01865Y0057
X01885Y0059
X01865Y0061
Y0065
X01845Y0063
X01825Y0065
X01845Y0067
X01825Y0069
X01805Y0067
Y0063
Y0059
X01845
X01825Y0057
Y0061
X01845Y0055
X01805
X01825Y0053
X01805Y0051
X01845
X01765
X01785Y0053
X01745
X01725Y0051
X01685
X01785Y0077
X01825
X01865
X01885Y0079
X01905Y0077
X01885Y0075
X01845
X01905Y0073
X01585
X01545
X01505
X0151175Y007015
X01485Y0071
X01445
X01465Y0073
X0147Y0075225
X01475
Y0075825
X0147
X01454Y00765
X014225Y0076355
X014115
Y0075255
X014225
X01385Y0073
Y0069
X01405Y0067
X0143034Y0066405
X0144166
X01436Y0066971
Y006584
X01445Y0063
X01465Y0061
Y0057
X01445Y0059
X01485
X01525
X01505Y0057
Y0061
X01545
X0154425Y0062284
X0157225
X01585Y0061
Y0057
X01565Y0059
X01545Y0057
X01565Y0055
Y0051
X01525
X01545Y0053
X01525Y0055
X01505Y0053
X01485Y0055
Y0051
X01465Y0053
X01445Y0055
X01425Y0053
X01445Y0051
X01405
X01365
X0134035Y0052325
X013465Y005381
X0134035Y0055295
X013255Y005591
X0131065Y0055295
X013045Y005381
X0131065Y0052325
X013255Y005171
X01365Y0055
X01385Y0053
X01405Y0055
X01385Y0057
X01425
X01405Y0059
X01425Y0061
X01405Y0063
X01385Y0065
Y0061
X01345
Y0057
X01365Y0059
X01325
X01305Y0057
Y0061
X01325Y0063
X01305Y0065
X01345
X01365Y0063
Y0067
X01345Y0069
X01325Y0067
X01305Y0069
X01325Y0071
X01305Y0073
X01345
X01365Y0071
Y0075
X01325
X01305Y0077
X01325Y0079
X01365
X01345Y0077
X01485Y0079
X01505Y0077
X01525Y0075
X01565
X01545Y0077
X0154525Y00787
X0155025
X0155525
X01585Y0077
X015705Y007042
Y006992
X015645
Y007042
X0155775Y0068325
X01465Y0069
X014725Y00811
X01485Y0083
X01465Y0085
X01445Y0087
X01416Y0087505
X01408
Y0088305
X01416
X014175Y0093425
Y0094525
X014065
Y0093425
X014195Y0096575
X014095Y0100875
X01385Y0101
X013795Y0097925
X013665
X01365Y0099
X01345Y0101
X01325Y0103
X01305Y0101
X01325Y0099
Y0095
X01305Y0097
X01345
Y0093
X01365Y0091
Y0087
X01345Y0085
Y0081
X01365Y0083
X01385Y0081
Y0085
X01305
X01325Y0083
X01305Y0081
Y0093
X01369Y0094675
X013745
X01485Y0095
X01525
X01505Y0097
X01525Y0099
X0151925Y0101325
X01507
X01545Y0101
X0153Y01034
Y010395
X015155Y0105175
X0151
X01483Y01047
X01475
Y01039
X01483
X015115Y01084
X01532Y01082
Y01071
X01543
Y01082
X015495Y0111
Y011155
X01585Y0113
Y0109
Y0101
X01565Y0103
Y0099
X01545Y0097
X01565Y0095
X01585Y0097
Y0093
X01545
X0155375Y00908
X01559
X0154725Y0087375
Y0086375
X0153875Y008535
X01531Y008725
X01485Y0087
X01465Y0089
X01485Y0091
X01505Y0093
X0154525Y0081475
X0155525
X01437Y008095
Y00804
X01433Y011045
X0145Y01106
Y01098
X01458
Y01106
X0144525Y01133
Y011385
X01445Y0115
X01465Y0117
X01425
X01405Y0115
X0137861Y0114693
X0137099
X0136337
Y0115455
X0137099Y0115455
X01371Y0113931
X0137862
X0138623
X0138623Y0113169
X0137862
X01371
X0136338
Y0113931
X013565Y011355
X0134888
X0134126
X01325Y0115
X01332Y0117875
X01325Y0119
X01365
X01345Y0117
X01385
X01405Y0119
X01445
X015175Y0119
X01527Y01167
Y01156
X01538
Y01167
X015Y0113
X0148375Y0113
Y0114225
X01405Y0111
X013915Y011035
X013855
X0137861Y0112407
X0137099
X0136337
Y0111645
X0137099
X013645Y010825
X01378
X01305Y0109
Y0105
Y0113
Y0117
X01605Y0115
Y0119
X01625Y0117
Y0113
Y0109
X01645Y0111
Y0107
Y0103
X01605
Y0099
Y0095
X01625Y0097
X01645Y0095
X01685
X01725
X01745Y0093
X01705
X01665
X0166102Y0090702
X0165452
X0164802
X01625Y0093
X01605Y0091
Y0087
Y0083
X0170177Y0081677
X016965Y00881
Y00889
Y00897
X017235Y0087
X0182752Y0087452
X0183352
X0183952
X01865Y0085
X01905
Y0081
X01885Y0083
X01865Y0081
Y0093
Y0097
X01885Y0095
X01845
X01805
X01785Y0093
X01825
X01845Y0099
Y0103
X01865Y0101
X01885Y0103
Y0107
X01865Y0105
Y0109
X01885Y0111
X01865Y0113
Y0117
X01885Y0115
Y0119
X01905Y0117
Y0113
Y0109
Y0105
Y0101
X01885Y0099
X01905Y0097
Y0093
X0184Y0111
Y0115
Y0119
X01605Y0111
X0170775Y01229
X0176025Y01207
X0180775Y01229
X018633Y012366
X0186945Y0122175
X018843Y012156
X0189915Y0122175
X019053Y012366
X0189915Y0125145
X018843Y012576
X0186945Y0125145
X01905Y0129
Y0133
Y0137
Y0141
Y0145
X01885Y0143
X01865Y0145
X01845Y0143
X01825Y0145
Y0141
Y0137
X01845Y0139
X01805
X01785Y0141
X01805Y0143
X01785Y0145
X01765Y0143
X01725
X01745Y0145
X01705
X0167
X0165Y0143
X0161
X0159114Y01426
Y01456
Y01476
X0161Y0147
X0163Y0149
Y0145
Y0141
X01705
Y0137
X01745
X01725Y0139
Y0135
X017675Y01343
Y01332
Y01321
X017785
Y01332
Y01343
X016785
Y01332
Y01321
X016675
Y01332
Y01343
X0159114Y01346
X0165Y0147
X0167Y0149
Y0153
X0165Y0151
X0161
X0163Y0153
X0159
X0161Y0155
X0163Y0157
X0167
X0165Y0155
X01725
X01745Y0153
X01725Y0151
X0169
X01745Y0149
X01725Y0147
X01765
X01805
X01785Y0149
X01825
X01845Y0147
X01885
X01865Y0149
X01905
Y0153
X01885Y0151
X01845
X01825Y0153
X01805Y0151
X01785Y0153
X01765Y0151
Y0155
X01805
X01785Y0157
X01825
X01815Y01587
X01845Y0155
X01905Y0157
X01745
X01505
Y0153
Y0149
X0150714Y01476
X0151364
Y01456
X0150714
Y01426
X0151364
X015134Y0139568
X015069
Y0137568
X015134
X0151364Y01346
X0150714
X015325Y0133
Y0129
Y0125
X015455Y01209
X01551
X01465Y0121
X01425
X01405Y0123
X01425Y0125
X01445Y0123
Y0127
X01465Y0129
X01445Y0131
X01465Y0133
X01445Y0135
X01465Y0137
X01445Y0139
X01465Y0141
Y0145
X01445Y0143
X01485
Y0147
Y0151
Y0155
X01445
X01405
Y0151
X01425Y0153
X01465
Y0149
X01445Y0147
X01405
X01425Y0145
X01405Y0143
X01425Y0141
Y0137
X01405Y0139
Y0135
X01425Y0133
Y0129
X01405Y0131
Y0127
X01365
X01325
X013255Y012576
X0134035Y0125145
X013465Y012366
X0134035Y0122175
X013255Y012156
X0131065Y0122175
X013045Y012366
X0131065Y0125145
X01305Y0129
X01325Y0131
X01345Y0129
X01365Y0131
Y0135
X01345Y0133
X01385
Y0137
Y0129
Y0125
X01365Y0123
X01385Y0121
X0158464Y01346
Y01426
Y01456
Y01476
X01465Y0157
X01425
X01405Y0159
Y0163
X01425Y0161
Y0165
X01405Y0167
X01425Y0169
X01465
Y0173
X0144195Y0174245
X014481Y017573
X0144195Y0177215
X01445Y01785
X014271Y017783
X0141225Y0177215
X014061Y017573
X0141225Y0174245
X014271Y017363
X01445Y0171
X01485
X0150102Y017055
Y016955
Y017155
X01505Y0173
X01545
X01549Y017125
Y017055
Y016985
X01585Y0173
Y0177
X01565Y01785
X01545Y0177
X01525Y01785
Y0175
X01505Y0177
X01485Y01785
Y0175
X01465Y0177
X01405Y0171
X01445Y0167
X01465Y0165
X01485Y0167
X0150714Y0165584
X0151364
Y0164584
X0150714
X01505Y0161
X01485Y0163
Y0159
X01445
X01465Y0161
X01445Y0163
X015835Y0163584
Y0164584
X0158464Y0165584
X01565Y0175
X01605
Y01785
X01625Y0177
X01645Y01785
X01685
X01705Y0177
X01725Y01785
X01745Y0179
X01765
Y0181
X01785
Y0183
X01805
Y0185
X01825
Y0187
X01845
X0186945Y0187375
X018633Y018589
X0186945Y0184405
X018843Y018379
X0189915Y0184405
X019053Y018589
X0189915Y0187375
X018843Y018799
X01865Y0181
X01885Y0179
Y0175
X01865Y0177
X01905
Y0173
Y0169
Y0165
Y0161
X01885Y0163
Y0159
X018525Y015935
Y015995
X018465
Y015935
X01815Y01595
Y01605
X01815Y01613
X01815Y01637
X01815Y01645
Y01655
X01815Y01663
X01815Y01687
X01815Y01695
Y01705
X01815Y01713
X01825Y0173
X01865
X01885Y0171
Y0167
X018525Y016495
Y016435
X018465
Y016495
X018465Y016935
X018525
Y016995
X018465
X01845Y0175
X01825Y0177
X01845Y0179
Y0183
X01825Y0181
X01805Y0179
Y0175
X01785Y0177
Y0173
X017845Y01703
X017785
Y01697
X017845
X0176Y0171
X017425Y016995
X017365
Y016935
X017425
X01705Y01695
X01705Y01687
X01705Y01705
X01705Y01713
X01705Y0173
X01665
X016685Y01703
Y01697
X016745
Y01703
X0165Y017
X01629Y016955
X01629Y017055
X01629Y017155
X01625Y0173
X01685Y0175
X01725
X01745Y0177
X01765Y0175
X01745Y0173
X0176Y0167
X017785Y01653
Y01647
X017845
Y01653
X017425Y016495
X017365
Y016435
X017425
X0176Y0163
X01745Y0161
X0171
X01705Y01637
X01705Y01645
Y01655
X01705Y01663
X016745Y01653
X016685
Y01647
X016745
X0165Y0163
X0167Y0161
X0165Y0159
X0161
Y0163
X016015Y0163584
X015955
X015895
Y0164584
X015955
X016015
X0159114Y0165584
X0163Y0165
X0165Y0167
X0163Y0161
X0169Y0159
X01725
X01765
X017785Y01597
X017845
Y01603
X017785
X01905Y0181
T03
X015325Y011615
T04
X018724Y013
X018924
Y0132
Y0134
Y0136
Y0138
Y014
Y0142
X018724
Y014
Y0138
Y0136
Y0134
Y0132
T05
X0188275Y006165
Y006715
T06
X016049Y005381
X018843Y005381
X013255
Y0088735
X016049Y0106
X018843Y0088735
Y012366
Y0154775
X014271Y0149695
X013255Y012366
X014271Y017573
X016557
X018843Y018589
T07
X0154902Y0132884
Y0167284
M30
