G04*
G04 #@! TF.GenerationSoftware,Altium Limited,Altium Designer,21.7.2 (23)*
G04*
G04 Layer_Color=8388736*
%FSLAX43Y43*%
%MOMM*%
G71*
G04*
G04 #@! TF.SameCoordinates,9207B031-9538-4005-B85C-AF880B68FBDC*
G04*
G04*
G04 #@! TF.FilePolarity,Negative*
G04*
G01*
G75*
%ADD79C,0.800*%
%ADD80C,1.000*%
%ADD81C,0.750*%
%ADD82C,1.200*%
%ADD83C,0.800*%
%ADD84C,2.200*%
%ADD85C,0.500*%
%ADD86C,1.020*%
%ADD87C,0.300*%
G04:AMPARAMS|DCode=88|XSize=0.52mm|YSize=0.62mm|CornerRadius=0.135mm|HoleSize=0mm|Usage=FLASHONLY|Rotation=0.000|XOffset=0mm|YOffset=0mm|HoleType=Round|Shape=RoundedRectangle|*
%AMROUNDEDRECTD88*
21,1,0.520,0.350,0,0,0.0*
21,1,0.250,0.620,0,0,0.0*
1,1,0.270,0.125,-0.175*
1,1,0.270,-0.125,-0.175*
1,1,0.270,-0.125,0.175*
1,1,0.270,0.125,0.175*
%
%ADD88ROUNDEDRECTD88*%
G04:AMPARAMS|DCode=89|XSize=0.52mm|YSize=0.62mm|CornerRadius=0.135mm|HoleSize=0mm|Usage=FLASHONLY|Rotation=90.000|XOffset=0mm|YOffset=0mm|HoleType=Round|Shape=RoundedRectangle|*
%AMROUNDEDRECTD89*
21,1,0.520,0.350,0,0,90.0*
21,1,0.250,0.620,0,0,90.0*
1,1,0.270,0.175,0.125*
1,1,0.270,0.175,-0.125*
1,1,0.270,-0.175,-0.125*
1,1,0.270,-0.175,0.125*
%
%ADD89ROUNDEDRECTD89*%
%ADD90O,0.820X0.270*%
%ADD91O,0.270X0.820*%
%ADD92C,0.470*%
G04:AMPARAMS|DCode=93|XSize=0.27mm|YSize=0.82mm|CornerRadius=0.072mm|HoleSize=0mm|Usage=FLASHONLY|Rotation=0.000|XOffset=0mm|YOffset=0mm|HoleType=Round|Shape=RoundedRectangle|*
%AMROUNDEDRECTD93*
21,1,0.270,0.675,0,0,0.0*
21,1,0.125,0.820,0,0,0.0*
1,1,0.145,0.063,-0.338*
1,1,0.145,-0.063,-0.338*
1,1,0.145,-0.063,0.338*
1,1,0.145,0.063,0.338*
%
%ADD93ROUNDEDRECTD93*%
G04:AMPARAMS|DCode=94|XSize=0.27mm|YSize=3.42mm|CornerRadius=0.072mm|HoleSize=0mm|Usage=FLASHONLY|Rotation=90.000|XOffset=0mm|YOffset=0mm|HoleType=Round|Shape=RoundedRectangle|*
%AMROUNDEDRECTD94*
21,1,0.270,3.275,0,0,90.0*
21,1,0.125,3.420,0,0,90.0*
1,1,0.145,1.638,0.063*
1,1,0.145,1.638,-0.063*
1,1,0.145,-1.638,-0.063*
1,1,0.145,-1.638,0.063*
%
%ADD94ROUNDEDRECTD94*%
G04:AMPARAMS|DCode=95|XSize=0.63mm|YSize=0.62mm|CornerRadius=0.16mm|HoleSize=0mm|Usage=FLASHONLY|Rotation=180.000|XOffset=0mm|YOffset=0mm|HoleType=Round|Shape=RoundedRectangle|*
%AMROUNDEDRECTD95*
21,1,0.630,0.300,0,0,180.0*
21,1,0.310,0.620,0,0,180.0*
1,1,0.320,-0.155,0.150*
1,1,0.320,0.155,0.150*
1,1,0.320,0.155,-0.150*
1,1,0.320,-0.155,-0.150*
%
%ADD95ROUNDEDRECTD95*%
G04:AMPARAMS|DCode=96|XSize=0.82mm|YSize=1.02mm|CornerRadius=0.21mm|HoleSize=0mm|Usage=FLASHONLY|Rotation=90.000|XOffset=0mm|YOffset=0mm|HoleType=Round|Shape=RoundedRectangle|*
%AMROUNDEDRECTD96*
21,1,0.820,0.600,0,0,90.0*
21,1,0.400,1.020,0,0,90.0*
1,1,0.420,0.300,0.200*
1,1,0.420,0.300,-0.200*
1,1,0.420,-0.300,-0.200*
1,1,0.420,-0.300,0.200*
%
%ADD96ROUNDEDRECTD96*%
G04:AMPARAMS|DCode=97|XSize=0.63mm|YSize=0.62mm|CornerRadius=0.16mm|HoleSize=0mm|Usage=FLASHONLY|Rotation=90.000|XOffset=0mm|YOffset=0mm|HoleType=Round|Shape=RoundedRectangle|*
%AMROUNDEDRECTD97*
21,1,0.630,0.300,0,0,90.0*
21,1,0.310,0.620,0,0,90.0*
1,1,0.320,0.150,0.155*
1,1,0.320,0.150,-0.155*
1,1,0.320,-0.150,-0.155*
1,1,0.320,-0.150,0.155*
%
%ADD97ROUNDEDRECTD97*%
G04:AMPARAMS|DCode=98|XSize=0.92mm|YSize=0.82mm|CornerRadius=0.21mm|HoleSize=0mm|Usage=FLASHONLY|Rotation=90.000|XOffset=0mm|YOffset=0mm|HoleType=Round|Shape=RoundedRectangle|*
%AMROUNDEDRECTD98*
21,1,0.920,0.400,0,0,90.0*
21,1,0.500,0.820,0,0,90.0*
1,1,0.420,0.200,0.250*
1,1,0.420,0.200,-0.250*
1,1,0.420,-0.200,-0.250*
1,1,0.420,-0.200,0.250*
%
%ADD98ROUNDEDRECTD98*%
G04:AMPARAMS|DCode=99|XSize=0.92mm|YSize=0.82mm|CornerRadius=0.21mm|HoleSize=0mm|Usage=FLASHONLY|Rotation=0.000|XOffset=0mm|YOffset=0mm|HoleType=Round|Shape=RoundedRectangle|*
%AMROUNDEDRECTD99*
21,1,0.920,0.400,0,0,0.0*
21,1,0.500,0.820,0,0,0.0*
1,1,0.420,0.250,-0.200*
1,1,0.420,-0.250,-0.200*
1,1,0.420,-0.250,0.200*
1,1,0.420,0.250,0.200*
%
%ADD99ROUNDEDRECTD99*%
%ADD100O,0.720X0.270*%
%ADD101O,0.270X0.720*%
G04:AMPARAMS|DCode=102|XSize=1.07mm|YSize=1.32mm|CornerRadius=0.273mm|HoleSize=0mm|Usage=FLASHONLY|Rotation=180.000|XOffset=0mm|YOffset=0mm|HoleType=Round|Shape=RoundedRectangle|*
%AMROUNDEDRECTD102*
21,1,1.070,0.775,0,0,180.0*
21,1,0.525,1.320,0,0,180.0*
1,1,0.545,-0.263,0.388*
1,1,0.545,0.263,0.388*
1,1,0.545,0.263,-0.388*
1,1,0.545,-0.263,-0.388*
%
%ADD102ROUNDEDRECTD102*%
G04:AMPARAMS|DCode=103|XSize=0.78mm|YSize=1.67mm|CornerRadius=0.2mm|HoleSize=0mm|Usage=FLASHONLY|Rotation=0.000|XOffset=0mm|YOffset=0mm|HoleType=Round|Shape=RoundedRectangle|*
%AMROUNDEDRECTD103*
21,1,0.780,1.270,0,0,0.0*
21,1,0.380,1.670,0,0,0.0*
1,1,0.400,0.190,-0.635*
1,1,0.400,-0.190,-0.635*
1,1,0.400,-0.190,0.635*
1,1,0.400,0.190,0.635*
%
%ADD103ROUNDEDRECTD103*%
G04:AMPARAMS|DCode=104|XSize=0.82mm|YSize=1.22mm|CornerRadius=0.21mm|HoleSize=0mm|Usage=FLASHONLY|Rotation=270.000|XOffset=0mm|YOffset=0mm|HoleType=Round|Shape=RoundedRectangle|*
%AMROUNDEDRECTD104*
21,1,0.820,0.800,0,0,270.0*
21,1,0.400,1.220,0,0,270.0*
1,1,0.420,-0.400,-0.200*
1,1,0.420,-0.400,0.200*
1,1,0.420,0.400,0.200*
1,1,0.420,0.400,-0.200*
%
%ADD104ROUNDEDRECTD104*%
G04:AMPARAMS|DCode=105|XSize=1.42mm|YSize=1.12mm|CornerRadius=0.285mm|HoleSize=0mm|Usage=FLASHONLY|Rotation=0.000|XOffset=0mm|YOffset=0mm|HoleType=Round|Shape=RoundedRectangle|*
%AMROUNDEDRECTD105*
21,1,1.420,0.550,0,0,0.0*
21,1,0.850,1.120,0,0,0.0*
1,1,0.570,0.425,-0.275*
1,1,0.570,-0.425,-0.275*
1,1,0.570,-0.425,0.275*
1,1,0.570,0.425,0.275*
%
%ADD105ROUNDEDRECTD105*%
%ADD106R,1.000X3.720*%
%ADD107R,3.720X1.000*%
%ADD108R,1.420X2.620*%
G04:AMPARAMS|DCode=109|XSize=0.66mm|YSize=1.04mm|CornerRadius=0.17mm|HoleSize=0mm|Usage=FLASHONLY|Rotation=0.000|XOffset=0mm|YOffset=0mm|HoleType=Round|Shape=RoundedRectangle|*
%AMROUNDEDRECTD109*
21,1,0.660,0.700,0,0,0.0*
21,1,0.320,1.040,0,0,0.0*
1,1,0.340,0.160,-0.350*
1,1,0.340,-0.160,-0.350*
1,1,0.340,-0.160,0.350*
1,1,0.340,0.160,0.350*
%
%ADD109ROUNDEDRECTD109*%
G04:AMPARAMS|DCode=110|XSize=0.395mm|YSize=0.57mm|CornerRadius=0.104mm|HoleSize=0mm|Usage=FLASHONLY|Rotation=90.000|XOffset=0mm|YOffset=0mm|HoleType=Round|Shape=RoundedRectangle|*
%AMROUNDEDRECTD110*
21,1,0.395,0.363,0,0,90.0*
21,1,0.188,0.570,0,0,90.0*
1,1,0.207,0.181,0.094*
1,1,0.207,0.181,-0.094*
1,1,0.207,-0.181,-0.094*
1,1,0.207,-0.181,0.094*
%
%ADD110ROUNDEDRECTD110*%
G04:AMPARAMS|DCode=111|XSize=0.395mm|YSize=0.57mm|CornerRadius=0.104mm|HoleSize=0mm|Usage=FLASHONLY|Rotation=0.000|XOffset=0mm|YOffset=0mm|HoleType=Round|Shape=RoundedRectangle|*
%AMROUNDEDRECTD111*
21,1,0.395,0.363,0,0,0.0*
21,1,0.188,0.570,0,0,0.0*
1,1,0.207,0.094,-0.181*
1,1,0.207,-0.094,-0.181*
1,1,0.207,-0.094,0.181*
1,1,0.207,0.094,0.181*
%
%ADD111ROUNDEDRECTD111*%
%ADD112R,0.395X0.570*%
G04:AMPARAMS|DCode=113|XSize=0.66mm|YSize=1.04mm|CornerRadius=0.17mm|HoleSize=0mm|Usage=FLASHONLY|Rotation=270.000|XOffset=0mm|YOffset=0mm|HoleType=Round|Shape=RoundedRectangle|*
%AMROUNDEDRECTD113*
21,1,0.660,0.700,0,0,270.0*
21,1,0.320,1.040,0,0,270.0*
1,1,0.340,-0.350,-0.160*
1,1,0.340,-0.350,0.160*
1,1,0.340,0.350,0.160*
1,1,0.340,0.350,-0.160*
%
%ADD113ROUNDEDRECTD113*%
G04:AMPARAMS|DCode=114|XSize=0.62mm|YSize=1.72mm|CornerRadius=0.16mm|HoleSize=0mm|Usage=FLASHONLY|Rotation=90.000|XOffset=0mm|YOffset=0mm|HoleType=Round|Shape=RoundedRectangle|*
%AMROUNDEDRECTD114*
21,1,0.620,1.400,0,0,90.0*
21,1,0.300,1.720,0,0,90.0*
1,1,0.320,0.700,0.150*
1,1,0.320,0.700,-0.150*
1,1,0.320,-0.700,-0.150*
1,1,0.320,-0.700,0.150*
%
%ADD114ROUNDEDRECTD114*%
G04:AMPARAMS|DCode=115|XSize=0.62mm|YSize=1.42mm|CornerRadius=0.16mm|HoleSize=0mm|Usage=FLASHONLY|Rotation=90.000|XOffset=0mm|YOffset=0mm|HoleType=Round|Shape=RoundedRectangle|*
%AMROUNDEDRECTD115*
21,1,0.620,1.100,0,0,90.0*
21,1,0.300,1.420,0,0,90.0*
1,1,0.320,0.550,0.150*
1,1,0.320,0.550,-0.150*
1,1,0.320,-0.550,-0.150*
1,1,0.320,-0.550,0.150*
%
%ADD115ROUNDEDRECTD115*%
%ADD116R,1.540X0.780*%
G04:AMPARAMS|DCode=117|XSize=0.78mm|YSize=1.54mm|CornerRadius=0.2mm|HoleSize=0mm|Usage=FLASHONLY|Rotation=270.000|XOffset=0mm|YOffset=0mm|HoleType=Round|Shape=RoundedRectangle|*
%AMROUNDEDRECTD117*
21,1,0.780,1.140,0,0,270.0*
21,1,0.380,1.540,0,0,270.0*
1,1,0.400,-0.570,-0.190*
1,1,0.400,-0.570,0.190*
1,1,0.400,0.570,0.190*
1,1,0.400,0.570,-0.190*
%
%ADD117ROUNDEDRECTD117*%
%ADD118O,0.720X0.320*%
%ADD119O,0.320X0.720*%
%ADD120O,0.720X1.520*%
%ADD121R,1.520X3.270*%
G04:AMPARAMS|DCode=122|XSize=0.27mm|YSize=0.58mm|CornerRadius=0.072mm|HoleSize=0mm|Usage=FLASHONLY|Rotation=270.000|XOffset=0mm|YOffset=0mm|HoleType=Round|Shape=RoundedRectangle|*
%AMROUNDEDRECTD122*
21,1,0.270,0.435,0,0,270.0*
21,1,0.125,0.580,0,0,270.0*
1,1,0.145,-0.217,-0.063*
1,1,0.145,-0.217,0.063*
1,1,0.145,0.217,0.063*
1,1,0.145,0.217,-0.063*
%
%ADD122ROUNDEDRECTD122*%
%ADD123O,0.380X1.010*%
%ADD124O,1.010X0.380*%
G04:AMPARAMS|DCode=125|XSize=1.27mm|YSize=1.72mm|CornerRadius=0.323mm|HoleSize=0mm|Usage=FLASHONLY|Rotation=90.000|XOffset=0mm|YOffset=0mm|HoleType=Round|Shape=RoundedRectangle|*
%AMROUNDEDRECTD125*
21,1,1.270,1.075,0,0,90.0*
21,1,0.625,1.720,0,0,90.0*
1,1,0.645,0.538,0.313*
1,1,0.645,0.538,-0.313*
1,1,0.645,-0.538,-0.313*
1,1,0.645,-0.538,0.313*
%
%ADD125ROUNDEDRECTD125*%
%ADD126O,0.270X0.770*%
%ADD127O,0.770X0.270*%
G04:AMPARAMS|DCode=128|XSize=1.04mm|YSize=2mm|CornerRadius=0.265mm|HoleSize=0mm|Usage=FLASHONLY|Rotation=0.000|XOffset=0mm|YOffset=0mm|HoleType=Round|Shape=RoundedRectangle|*
%AMROUNDEDRECTD128*
21,1,1.040,1.470,0,0,0.0*
21,1,0.510,2.000,0,0,0.0*
1,1,0.530,0.255,-0.735*
1,1,0.530,-0.255,-0.735*
1,1,0.530,-0.255,0.735*
1,1,0.530,0.255,0.735*
%
%ADD128ROUNDEDRECTD128*%
G04:AMPARAMS|DCode=129|XSize=1.07mm|YSize=1.32mm|CornerRadius=0.273mm|HoleSize=0mm|Usage=FLASHONLY|Rotation=270.000|XOffset=0mm|YOffset=0mm|HoleType=Round|Shape=RoundedRectangle|*
%AMROUNDEDRECTD129*
21,1,1.070,0.775,0,0,270.0*
21,1,0.525,1.320,0,0,270.0*
1,1,0.545,-0.388,-0.263*
1,1,0.545,-0.388,0.263*
1,1,0.545,0.388,0.263*
1,1,0.545,0.388,-0.263*
%
%ADD129ROUNDEDRECTD129*%
G04:AMPARAMS|DCode=130|XSize=0.27mm|YSize=0.77mm|CornerRadius=0mm|HoleSize=0mm|Usage=FLASHONLY|Rotation=45.000|XOffset=0mm|YOffset=0mm|HoleType=Round|Shape=Round|*
%AMOVALD130*
21,1,0.500,0.270,0.000,0.000,135.0*
1,1,0.270,0.177,-0.177*
1,1,0.270,-0.177,0.177*
%
%ADD130OVALD130*%

G04:AMPARAMS|DCode=131|XSize=0.27mm|YSize=0.77mm|CornerRadius=0mm|HoleSize=0mm|Usage=FLASHONLY|Rotation=315.000|XOffset=0mm|YOffset=0mm|HoleType=Round|Shape=Round|*
%AMOVALD131*
21,1,0.500,0.270,0.000,0.000,45.0*
1,1,0.270,-0.177,-0.177*
1,1,0.270,0.177,0.177*
%
%ADD131OVALD131*%

G04:AMPARAMS|DCode=132|XSize=1.04mm|YSize=2mm|CornerRadius=0.265mm|HoleSize=0mm|Usage=FLASHONLY|Rotation=90.000|XOffset=0mm|YOffset=0mm|HoleType=Round|Shape=RoundedRectangle|*
%AMROUNDEDRECTD132*
21,1,1.040,1.470,0,0,90.0*
21,1,0.510,2.000,0,0,90.0*
1,1,0.530,0.735,0.255*
1,1,0.530,0.735,-0.255*
1,1,0.530,-0.735,-0.255*
1,1,0.530,-0.735,0.255*
%
%ADD132ROUNDEDRECTD132*%
G04:AMPARAMS|DCode=133|XSize=1.27mm|YSize=1.72mm|CornerRadius=0.323mm|HoleSize=0mm|Usage=FLASHONLY|Rotation=180.000|XOffset=0mm|YOffset=0mm|HoleType=Round|Shape=RoundedRectangle|*
%AMROUNDEDRECTD133*
21,1,1.270,1.075,0,0,180.0*
21,1,0.625,1.720,0,0,180.0*
1,1,0.645,-0.313,0.538*
1,1,0.645,0.313,0.538*
1,1,0.645,0.313,-0.538*
1,1,0.645,-0.313,-0.538*
%
%ADD133ROUNDEDRECTD133*%
G04:AMPARAMS|DCode=134|XSize=1.02mm|YSize=2.92mm|CornerRadius=0.26mm|HoleSize=0mm|Usage=FLASHONLY|Rotation=270.000|XOffset=0mm|YOffset=0mm|HoleType=Round|Shape=RoundedRectangle|*
%AMROUNDEDRECTD134*
21,1,1.020,2.400,0,0,270.0*
21,1,0.500,2.920,0,0,270.0*
1,1,0.520,-1.200,-0.250*
1,1,0.520,-1.200,0.250*
1,1,0.520,1.200,0.250*
1,1,0.520,1.200,-0.250*
%
%ADD134ROUNDEDRECTD134*%
%ADD135O,0.920X0.270*%
%ADD136O,0.270X0.920*%
%ADD137C,1.520*%
G04:AMPARAMS|DCode=138|XSize=2.02mm|YSize=2.02mm|CornerRadius=0.51mm|HoleSize=0mm|Usage=FLASHONLY|Rotation=180.000|XOffset=0mm|YOffset=0mm|HoleType=Round|Shape=RoundedRectangle|*
%AMROUNDEDRECTD138*
21,1,2.020,1.000,0,0,180.0*
21,1,1.000,2.020,0,0,180.0*
1,1,1.020,-0.500,0.500*
1,1,1.020,0.500,0.500*
1,1,1.020,0.500,-0.500*
1,1,1.020,-0.500,-0.500*
%
%ADD138ROUNDEDRECTD138*%
%ADD139C,1.620*%
%ADD140R,1.020X2.920*%
G04:AMPARAMS|DCode=141|XSize=0.52mm|YSize=0.27mm|CornerRadius=0.041mm|HoleSize=0mm|Usage=FLASHONLY|Rotation=180.000|XOffset=0mm|YOffset=0mm|HoleType=Round|Shape=RoundedRectangle|*
%AMROUNDEDRECTD141*
21,1,0.520,0.188,0,0,180.0*
21,1,0.438,0.270,0,0,180.0*
1,1,0.083,-0.219,0.094*
1,1,0.083,0.219,0.094*
1,1,0.083,0.219,-0.094*
1,1,0.083,-0.219,-0.094*
%
%ADD141ROUNDEDRECTD141*%
G04:AMPARAMS|DCode=142|XSize=0.47mm|YSize=0.32mm|CornerRadius=0.048mm|HoleSize=0mm|Usage=FLASHONLY|Rotation=270.000|XOffset=0mm|YOffset=0mm|HoleType=Round|Shape=RoundedRectangle|*
%AMROUNDEDRECTD142*
21,1,0.470,0.225,0,0,270.0*
21,1,0.375,0.320,0,0,270.0*
1,1,0.095,-0.113,-0.188*
1,1,0.095,-0.113,0.188*
1,1,0.095,0.113,0.188*
1,1,0.095,0.113,-0.188*
%
%ADD142ROUNDEDRECTD142*%
G04:AMPARAMS|DCode=143|XSize=0.38mm|YSize=1.01mm|CornerRadius=0.1mm|HoleSize=0mm|Usage=FLASHONLY|Rotation=270.000|XOffset=0mm|YOffset=0mm|HoleType=Round|Shape=RoundedRectangle|*
%AMROUNDEDRECTD143*
21,1,0.380,0.810,0,0,270.0*
21,1,0.180,1.010,0,0,270.0*
1,1,0.200,-0.405,-0.090*
1,1,0.200,-0.405,0.090*
1,1,0.200,0.405,0.090*
1,1,0.200,0.405,-0.090*
%
%ADD143ROUNDEDRECTD143*%
%ADD144O,0.620X2.020*%
G04:AMPARAMS|DCode=145|XSize=0.47mm|YSize=0.32mm|CornerRadius=0.048mm|HoleSize=0mm|Usage=FLASHONLY|Rotation=180.000|XOffset=0mm|YOffset=0mm|HoleType=Round|Shape=RoundedRectangle|*
%AMROUNDEDRECTD145*
21,1,0.470,0.225,0,0,180.0*
21,1,0.375,0.320,0,0,180.0*
1,1,0.095,-0.188,0.113*
1,1,0.095,0.188,0.113*
1,1,0.095,0.188,-0.113*
1,1,0.095,-0.188,-0.113*
%
%ADD145ROUNDEDRECTD145*%
%ADD146R,2.620X1.420*%
%ADD147R,2.520X2.520*%
%ADD148C,4.520*%
%ADD149C,6.020*%
%ADD150O,0.703X1.703*%
%ADD151C,2.220*%
G04:AMPARAMS|DCode=152|XSize=2.903mm|YSize=2.903mm|CornerRadius=0.372mm|HoleSize=0mm|Usage=FLASHONLY|Rotation=0.000|XOffset=0mm|YOffset=0mm|HoleType=Round|Shape=RoundedRectangle|*
%AMROUNDEDRECTD152*
21,1,2.903,2.160,0,0,0.0*
21,1,2.160,2.903,0,0,0.0*
1,1,0.743,1.080,-1.080*
1,1,0.743,-1.080,-1.080*
1,1,0.743,-1.080,1.080*
1,1,0.743,1.080,1.080*
%
%ADD152ROUNDEDRECTD152*%
G04:AMPARAMS|DCode=153|XSize=2.903mm|YSize=2.903mm|CornerRadius=0.372mm|HoleSize=0mm|Usage=FLASHONLY|Rotation=270.000|XOffset=0mm|YOffset=0mm|HoleType=Round|Shape=RoundedRectangle|*
%AMROUNDEDRECTD153*
21,1,2.903,2.160,0,0,270.0*
21,1,2.160,2.903,0,0,270.0*
1,1,0.743,-1.080,-1.080*
1,1,0.743,-1.080,1.080*
1,1,0.743,1.080,1.080*
1,1,0.743,1.080,-1.080*
%
%ADD153ROUNDEDRECTD153*%
G04:AMPARAMS|DCode=154|XSize=1.933mm|YSize=1.933mm|CornerRadius=0.275mm|HoleSize=0mm|Usage=FLASHONLY|Rotation=270.000|XOffset=0mm|YOffset=0mm|HoleType=Round|Shape=RoundedRectangle|*
%AMROUNDEDRECTD154*
21,1,1.933,1.384,0,0,270.0*
21,1,1.384,1.933,0,0,270.0*
1,1,0.549,-0.692,-0.692*
1,1,0.549,-0.692,0.692*
1,1,0.549,0.692,0.692*
1,1,0.549,0.692,-0.692*
%
%ADD154ROUNDEDRECTD154*%
G04:AMPARAMS|DCode=155|XSize=1.933mm|YSize=1.933mm|CornerRadius=0.275mm|HoleSize=0mm|Usage=FLASHONLY|Rotation=315.000|XOffset=0mm|YOffset=0mm|HoleType=Round|Shape=RoundedRectangle|*
%AMROUNDEDRECTD155*
21,1,1.933,1.384,0,0,315.0*
21,1,1.384,1.933,0,0,315.0*
1,1,0.549,0.000,-0.979*
1,1,0.549,-0.979,0.000*
1,1,0.549,0.000,0.979*
1,1,0.549,0.979,0.000*
%
%ADD155ROUNDEDRECTD155*%
G04:AMPARAMS|DCode=156|XSize=3.42mm|YSize=3.42mm|CornerRadius=0.35mm|HoleSize=0mm|Usage=FLASHONLY|Rotation=0.000|XOffset=0mm|YOffset=0mm|HoleType=Round|Shape=RoundedRectangle|*
%AMROUNDEDRECTD156*
21,1,3.420,2.720,0,0,0.0*
21,1,2.720,3.420,0,0,0.0*
1,1,0.700,1.360,-1.360*
1,1,0.700,-1.360,-1.360*
1,1,0.700,-1.360,1.360*
1,1,0.700,1.360,1.360*
%
%ADD156ROUNDEDRECTD156*%
G04:AMPARAMS|DCode=157|XSize=1.103mm|YSize=2.003mm|CornerRadius=0.327mm|HoleSize=0mm|Usage=FLASHONLY|Rotation=180.000|XOffset=0mm|YOffset=0mm|HoleType=Round|Shape=RoundedRectangle|*
%AMROUNDEDRECTD157*
21,1,1.103,1.350,0,0,180.0*
21,1,0.450,2.003,0,0,180.0*
1,1,0.653,-0.225,0.675*
1,1,0.653,0.225,0.675*
1,1,0.653,0.225,-0.675*
1,1,0.653,-0.225,-0.675*
%
%ADD157ROUNDEDRECTD157*%
G04:AMPARAMS|DCode=158|XSize=1.203mm|YSize=2.003mm|CornerRadius=0.352mm|HoleSize=0mm|Usage=FLASHONLY|Rotation=270.000|XOffset=0mm|YOffset=0mm|HoleType=Round|Shape=RoundedRectangle|*
%AMROUNDEDRECTD158*
21,1,1.203,1.300,0,0,270.0*
21,1,0.500,2.003,0,0,270.0*
1,1,0.703,-0.650,-0.250*
1,1,0.703,-0.650,0.250*
1,1,0.703,0.650,0.250*
1,1,0.703,0.650,-0.250*
%
%ADD158ROUNDEDRECTD158*%
G04:AMPARAMS|DCode=159|XSize=1.203mm|YSize=2.003mm|CornerRadius=0.352mm|HoleSize=0mm|Usage=FLASHONLY|Rotation=180.000|XOffset=0mm|YOffset=0mm|HoleType=Round|Shape=RoundedRectangle|*
%AMROUNDEDRECTD159*
21,1,1.203,1.300,0,0,180.0*
21,1,0.500,2.003,0,0,180.0*
1,1,0.703,-0.250,0.650*
1,1,0.703,0.250,0.650*
1,1,0.703,0.250,-0.650*
1,1,0.703,-0.250,-0.650*
%
%ADD159ROUNDEDRECTD159*%
G04:AMPARAMS|DCode=160|XSize=1.903mm|YSize=1.903mm|CornerRadius=0.272mm|HoleSize=0mm|Usage=FLASHONLY|Rotation=270.000|XOffset=0mm|YOffset=0mm|HoleType=Round|Shape=RoundedRectangle|*
%AMROUNDEDRECTD160*
21,1,1.903,1.360,0,0,270.0*
21,1,1.360,1.903,0,0,270.0*
1,1,0.543,-0.680,-0.680*
1,1,0.543,-0.680,0.680*
1,1,0.543,0.680,0.680*
1,1,0.543,0.680,-0.680*
%
%ADD160ROUNDEDRECTD160*%
G04:AMPARAMS|DCode=161|XSize=1.903mm|YSize=1.903mm|CornerRadius=0.272mm|HoleSize=0mm|Usage=FLASHONLY|Rotation=0.000|XOffset=0mm|YOffset=0mm|HoleType=Round|Shape=RoundedRectangle|*
%AMROUNDEDRECTD161*
21,1,1.903,1.360,0,0,0.0*
21,1,1.360,1.903,0,0,0.0*
1,1,0.543,0.680,-0.680*
1,1,0.543,-0.680,-0.680*
1,1,0.543,-0.680,0.680*
1,1,0.543,0.680,0.680*
%
%ADD161ROUNDEDRECTD161*%
G36*
X183713Y189207D02*
X191142Y189207D01*
Y189207D01*
X191262Y189207D01*
X191482Y189115D01*
X191651Y188947D01*
X191742Y188726D01*
Y188607D01*
Y145000D01*
X175500D01*
X175353Y145007D01*
X175065Y145064D01*
X174793Y145177D01*
X174548Y145340D01*
X174340Y145548D01*
X174177Y145793D01*
X174064Y146064D01*
X174007Y146353D01*
X174000Y146500D01*
X174000Y157750D01*
X174000Y157898D01*
X173943Y158188D01*
X173830Y158461D01*
X173665Y158706D01*
X173456Y158915D01*
X173211Y159080D01*
X172938Y159193D01*
X172648Y159250D01*
X172500Y159250D01*
X172500Y159250D01*
X172500Y159250D01*
X168000Y159250D01*
X167852Y159250D01*
X167562Y159193D01*
X167289Y159080D01*
X167043Y158916D01*
X166834Y158707D01*
X166670Y158461D01*
X166557Y158188D01*
X166500Y157898D01*
X166500Y157750D01*
X166500Y157750D01*
X166500Y157750D01*
X166500Y144000D01*
X166489Y143854D01*
X166425Y143570D01*
X166310Y143302D01*
X166146Y143061D01*
X165939Y142854D01*
X165698Y142690D01*
X165430Y142575D01*
X165146Y142511D01*
X165000Y142500D01*
X164852Y142500D01*
X164562Y142443D01*
X164289Y142330D01*
X164043Y142166D01*
X163834Y141957D01*
X163670Y141711D01*
X163557Y141438D01*
X163500Y141148D01*
X163500Y141000D01*
X163500Y141000D01*
X163500Y141000D01*
Y121500D01*
X163500Y121352D01*
X163558Y121062D01*
X163671Y120789D01*
X163835Y120544D01*
X164044Y120335D01*
X164289Y120171D01*
X164562Y120058D01*
X164852Y120000D01*
X165000Y120000D01*
X182500Y120000D01*
X182648D01*
X182938Y120058D01*
X183210Y120171D01*
X183456Y120335D01*
X183665Y120544D01*
X183829Y120789D01*
X183942Y121062D01*
X184000Y121352D01*
Y121500D01*
X184000Y121500D01*
X184000Y125500D01*
X184007Y125647D01*
X184065Y125935D01*
X184177Y126207D01*
X184340Y126452D01*
X184548Y126659D01*
X184793Y126823D01*
X185065Y126935D01*
X185353Y126993D01*
X185500Y127000D01*
X185500Y127000D01*
X191742Y127000D01*
X191742Y71500D01*
X185745D01*
X185745Y71500D01*
X185597Y71500D01*
X185307Y71443D01*
X185034Y71330D01*
X184788Y71166D01*
X184579Y70957D01*
X184415Y70711D01*
X184302Y70438D01*
X184245Y70148D01*
X184245Y70000D01*
Y58995D01*
X184245Y58995D01*
X184245Y58848D01*
X184302Y58559D01*
X184415Y58287D01*
X184579Y58042D01*
X184787Y57834D01*
X185032Y57670D01*
X185304Y57557D01*
X185593Y57500D01*
X185740Y57500D01*
X191742D01*
Y51057D01*
Y50947D01*
X191659Y50745D01*
X191504Y50591D01*
X191302Y50507D01*
X129842D01*
X129723Y50507D01*
X129503Y50598D01*
X129334Y50767D01*
X129242Y50987D01*
X129242Y51107D01*
X129242Y128386D01*
X129242Y128386D01*
X129242Y128386D01*
X129258Y128506D01*
X129289Y128581D01*
X129334Y128649D01*
X129363Y128678D01*
X138981Y138295D01*
X139077Y138409D01*
X139233Y138662D01*
X139337Y138940D01*
X139384Y139233D01*
X139386Y139382D01*
X139386Y177000D01*
X139386Y177000D01*
X139386Y177000D01*
Y177001D01*
X139395Y177118D01*
X139414Y177212D01*
X139468Y177343D01*
X139548Y177462D01*
X139598Y177513D01*
X140972Y178886D01*
X140972Y178886D01*
X140972Y178886D01*
X140972Y178886D01*
X141067Y178963D01*
X141108Y178990D01*
X141214Y179034D01*
X141326Y179057D01*
X141384Y179057D01*
X172880Y179057D01*
X173001Y179063D01*
X173239Y179110D01*
X173463Y179203D01*
X173665Y179337D01*
X173755Y179419D01*
X183422Y189086D01*
X183422Y189086D01*
X183422Y189086D01*
X183422Y189086D01*
X183518Y189160D01*
X183593Y189191D01*
X183673Y189207D01*
X183713Y189207D01*
D02*
G37*
G36*
X178638Y135126D02*
X178651Y135123D01*
X178664Y135119D01*
X178676Y135113D01*
X178687Y135106D01*
X178697Y135097D01*
X178706Y135087D01*
X178713Y135076D01*
X178719Y135064D01*
X178723Y135051D01*
X178726Y135038D01*
X178727Y135025D01*
Y131375D01*
X178726Y131362D01*
X178723Y131349D01*
X178719Y131336D01*
X178713Y131324D01*
X178706Y131313D01*
X178697Y131303D01*
X178687Y131294D01*
X178676Y131287D01*
X178664Y131281D01*
X178651Y131277D01*
X178638Y131274D01*
X178625Y131273D01*
X175975D01*
X175962Y131274D01*
X175949Y131277D01*
X175936Y131281D01*
X175924Y131287D01*
X175913Y131294D01*
X175903Y131303D01*
X175894Y131313D01*
X175887Y131324D01*
X175881Y131336D01*
X175877Y131349D01*
X175874Y131362D01*
X175873Y131375D01*
Y134669D01*
X175874Y134682D01*
X175877Y134695D01*
X175881Y134708D01*
X175887Y134720D01*
X175894Y134731D01*
X175903Y134741D01*
X176259Y135097D01*
X176269Y135106D01*
X176280Y135113D01*
X176292Y135119D01*
X176305Y135123D01*
X176318Y135126D01*
X176331Y135127D01*
X178625D01*
X178638Y135126D01*
D02*
G37*
G36*
X168638D02*
X168651Y135123D01*
X168664Y135119D01*
X168676Y135113D01*
X168687Y135106D01*
X168697Y135097D01*
X168706Y135087D01*
X168713Y135076D01*
X168719Y135064D01*
X168723Y135051D01*
X168726Y135038D01*
X168727Y135025D01*
Y131375D01*
X168726Y131362D01*
X168723Y131349D01*
X168719Y131336D01*
X168713Y131324D01*
X168706Y131313D01*
X168697Y131303D01*
X168687Y131294D01*
X168676Y131287D01*
X168664Y131281D01*
X168651Y131277D01*
X168638Y131274D01*
X168625Y131273D01*
X165975D01*
X165962Y131274D01*
X165949Y131277D01*
X165936Y131281D01*
X165924Y131287D01*
X165913Y131294D01*
X165903Y131303D01*
X165894Y131313D01*
X165887Y131324D01*
X165881Y131336D01*
X165877Y131349D01*
X165874Y131362D01*
X165873Y131375D01*
Y134669D01*
X165874Y134682D01*
X165877Y134695D01*
X165881Y134708D01*
X165887Y134720D01*
X165894Y134731D01*
X165903Y134741D01*
X166259Y135097D01*
X166269Y135106D01*
X166280Y135113D01*
X166292Y135119D01*
X166305Y135123D01*
X166318Y135126D01*
X166331Y135127D01*
X168625D01*
X168638Y135126D01*
D02*
G37*
%LPC*%
G36*
X184898Y172650D02*
X184750Y172650D01*
X148250Y172650D01*
X148250Y172650D01*
X148102D01*
X147812Y172592D01*
X147539Y172479D01*
X147294Y172315D01*
X147085Y172106D01*
X146921Y171860D01*
X146808Y171588D01*
X146750Y171298D01*
Y171150D01*
Y149650D01*
X146750Y149502D01*
X146808Y149212D01*
X146921Y148939D01*
X147085Y148694D01*
X147294Y148485D01*
X147539Y148321D01*
X147812Y148208D01*
X148102Y148150D01*
X148250Y148150D01*
X158750D01*
X158900Y148143D01*
X159195Y148191D01*
X159474Y148300D01*
X159725Y148463D01*
X159937Y148675D01*
X160100Y148926D01*
X160209Y149205D01*
X160257Y149500D01*
X160250Y149650D01*
X160250Y161650D01*
X160250Y161650D01*
X160250Y161650D01*
X160257Y161797D01*
X160314Y162086D01*
X160427Y162357D01*
X160590Y162602D01*
X160798Y162810D01*
X161043Y162973D01*
X161314Y163086D01*
X161603Y163143D01*
X161750Y163150D01*
X175250Y163150D01*
X175250Y163150D01*
X175250Y163150D01*
X175397Y163143D01*
X175686Y163086D01*
X175957Y162973D01*
X176202Y162810D01*
X176410Y162602D01*
X176573Y162357D01*
X176686Y162086D01*
X176743Y161797D01*
X176750Y161650D01*
X176750Y159650D01*
X176750Y159502D01*
X176808Y159212D01*
X176921Y158939D01*
X177085Y158694D01*
X177294Y158485D01*
X177539Y158321D01*
X177812Y158208D01*
X178102Y158150D01*
X178250Y158150D01*
X184750Y158150D01*
X184750Y158150D01*
X184750Y158150D01*
X184898Y158150D01*
X185188Y158207D01*
X185461Y158320D01*
X185707Y158484D01*
X185916Y158693D01*
X186080Y158939D01*
X186193Y159212D01*
X186250Y159502D01*
X186250Y159650D01*
X186250Y171150D01*
X186250Y171150D01*
X186250Y171150D01*
X186250Y171298D01*
X186193Y171588D01*
X186080Y171861D01*
X185915Y172106D01*
X185706Y172315D01*
X185461Y172479D01*
X185188Y172592D01*
X184898Y172650D01*
D02*
G37*
G36*
X147500Y142250D02*
X147499Y142249D01*
X147352Y142249D01*
X147062Y142192D01*
X146789Y142079D01*
X146544Y141915D01*
X146335Y141706D01*
X146171Y141460D01*
X146058Y141187D01*
X146000Y140898D01*
X146000Y140750D01*
Y120500D01*
X145999Y120499D01*
X145992Y120352D01*
X145935Y120064D01*
X145822Y119793D01*
X145659Y119548D01*
X145451Y119340D01*
X145207Y119177D01*
X144935Y119065D01*
X144647Y119007D01*
X144500Y119000D01*
X133250D01*
X133249Y118999D01*
X133102D01*
X132812Y118942D01*
X132539Y118829D01*
X132294Y118665D01*
X132085Y118456D01*
X131921Y118210D01*
X131808Y117937D01*
X131750Y117648D01*
Y117500D01*
Y97750D01*
X131748Y97577D01*
X131811Y97236D01*
X131940Y96914D01*
X132129Y96624D01*
X132250Y96500D01*
X137500Y91250D01*
X137500Y91250D01*
X137614Y91121D01*
X137803Y90832D01*
X137931Y90512D01*
X137994Y90173D01*
X138000Y90000D01*
X138000Y67750D01*
X137998Y67577D01*
X138061Y67236D01*
X138190Y66914D01*
X138379Y66624D01*
X138500Y66500D01*
X147000Y58000D01*
Y58000D01*
X147124Y57879D01*
X147414Y57690D01*
X147736Y57561D01*
X148077Y57498D01*
X148250Y57500D01*
X169750Y57500D01*
X169750Y57500D01*
X169750Y57500D01*
X169750Y57500D01*
X169867Y57488D01*
X169968Y57468D01*
X170104Y57411D01*
X170226Y57330D01*
X170330Y57226D01*
X170412Y57104D01*
X170468Y56968D01*
X170496Y56823D01*
X170500Y56750D01*
X170500Y55852D01*
X170558Y55562D01*
X170671Y55289D01*
X170835Y55044D01*
X171044Y54835D01*
X171289Y54671D01*
X171562Y54558D01*
X171852Y54500D01*
X178500D01*
X178500Y54500D01*
X178500Y54500D01*
X178648Y54500D01*
X178938Y54557D01*
X179211Y54670D01*
X179456Y54835D01*
X179665Y55044D01*
X179830Y55289D01*
X179943Y55562D01*
X180000Y55852D01*
X180000Y56000D01*
X180000Y73000D01*
X180000Y73000D01*
X180000Y73000D01*
X180000Y73148D01*
X179943Y73438D01*
X179830Y73711D01*
X179666Y73957D01*
X179457Y74166D01*
X179211Y74330D01*
X178938Y74443D01*
X178648Y74500D01*
X178500Y74500D01*
X150250Y74500D01*
X150103Y74507D01*
X149815Y74565D01*
X149543Y74677D01*
X149298Y74840D01*
X149090Y75048D01*
X148927Y75293D01*
X148815Y75565D01*
X148757Y75853D01*
X148750Y76000D01*
Y93750D01*
X148756Y93923D01*
X148819Y94262D01*
X148948Y94582D01*
X149136Y94871D01*
X149250Y95000D01*
X156500Y102250D01*
X156500Y102250D01*
X156500Y102250D01*
X156621Y102374D01*
X156810Y102664D01*
X156939Y102986D01*
X157002Y103327D01*
X157000Y103500D01*
X157000Y113500D01*
X157000Y113500D01*
X157000D01*
X157006Y113673D01*
X157069Y114011D01*
X157198Y114332D01*
X157386Y114621D01*
X157500Y114750D01*
X160000Y117250D01*
X160000Y117250D01*
X160000Y117250D01*
X160121Y117374D01*
X160310Y117664D01*
X160439Y117986D01*
X160502Y118327D01*
X160500Y118500D01*
X160500Y140750D01*
X160500Y140750D01*
X160499Y140750D01*
X160499Y140897D01*
X160441Y141187D01*
X160328Y141460D01*
X160164Y141705D01*
X159955Y141914D01*
X159710Y142078D01*
X159437Y142192D01*
X159148Y142250D01*
X159000Y142250D01*
X147500Y142250D01*
D02*
G37*
G36*
X184148Y117000D02*
X184000Y117000D01*
X165500Y117000D01*
X165500Y117000D01*
X165352Y117000D01*
X165062Y116942D01*
X164789Y116829D01*
X164544Y116665D01*
X164335Y116456D01*
X164171Y116211D01*
X164058Y115938D01*
X164000Y115648D01*
Y115500D01*
Y102200D01*
X164000Y102200D01*
X163997Y102131D01*
X163970Y101997D01*
X163917Y101870D01*
X163841Y101756D01*
X163744Y101659D01*
X163630Y101583D01*
X163503Y101530D01*
X163369Y101503D01*
X163300Y101500D01*
X162750D01*
X162750Y101500D01*
X162602D01*
X162312Y101442D01*
X162039Y101329D01*
X161794Y101165D01*
X161585Y100956D01*
X161421Y100711D01*
X161308Y100438D01*
X161250Y100148D01*
Y100000D01*
Y96500D01*
X161250Y96352D01*
X161308Y96062D01*
X161421Y95789D01*
X161585Y95544D01*
X161794Y95335D01*
X162039Y95171D01*
X162312Y95058D01*
X162602Y95000D01*
X162750Y95000D01*
X184000D01*
X184148Y95000D01*
X184438Y95058D01*
X184711Y95171D01*
X184956Y95335D01*
X185165Y95544D01*
X185329Y95789D01*
X185442Y96062D01*
X185500Y96352D01*
X185500Y96500D01*
X185500Y115500D01*
X185500Y115500D01*
X185500Y115500D01*
X185500Y115648D01*
X185442Y115938D01*
X185329Y116211D01*
X185165Y116456D01*
X184956Y116665D01*
X184711Y116829D01*
X184438Y116942D01*
X184148Y117000D01*
D02*
G37*
G36*
X183697Y92100D02*
X183500Y92100D01*
X163250Y92100D01*
X163250Y92100D01*
X163053D01*
X162667Y92023D01*
X162303Y91872D01*
X161975Y91653D01*
X161697Y91375D01*
X161478Y91047D01*
X161327Y90683D01*
X161250Y90297D01*
Y90100D01*
Y79350D01*
Y79153D01*
X161327Y78767D01*
X161478Y78403D01*
X161697Y78075D01*
X161975Y77796D01*
X162303Y77578D01*
X162667Y77427D01*
X163053Y77350D01*
X163250Y77350D01*
X183500D01*
X183697Y77350D01*
X184084Y77427D01*
X184448Y77577D01*
X184775Y77796D01*
X185054Y78075D01*
X185273Y78402D01*
X185423Y78766D01*
X185500Y79153D01*
X185500Y79350D01*
X185500Y90100D01*
X185500Y90100D01*
X185500Y90100D01*
X185500Y90297D01*
X185423Y90683D01*
X185273Y91048D01*
X185054Y91375D01*
X184775Y91654D01*
X184448Y91873D01*
X184083Y92023D01*
X183697Y92100D01*
D02*
G37*
G36*
X152500Y92100D02*
X152500Y92100D01*
X152303D01*
X151917Y92023D01*
X151553Y91872D01*
X151225Y91654D01*
X150947Y91375D01*
X150728Y91047D01*
X150577Y90683D01*
X150500Y90297D01*
Y90100D01*
Y79350D01*
X150500Y79153D01*
X150577Y78767D01*
X150728Y78403D01*
X150947Y78075D01*
X151225Y77796D01*
X151553Y77578D01*
X151917Y77427D01*
X152303Y77350D01*
X152500Y77350D01*
X157500D01*
X157500Y77350D01*
Y77350D01*
X157697Y77350D01*
X158083Y77427D01*
X158447Y77578D01*
X158775Y77796D01*
X159053Y78075D01*
X159272Y78403D01*
X159423Y78767D01*
X159500Y79153D01*
X159500Y79350D01*
X159500Y90100D01*
X159500Y90100D01*
X159500Y90100D01*
X159500Y90297D01*
X159423Y90683D01*
X159272Y91047D01*
X159053Y91375D01*
X158775Y91653D01*
X158447Y91872D01*
X158083Y92023D01*
X157697Y92100D01*
X157500Y92100D01*
X152500Y92100D01*
D02*
G37*
%LPD*%
G36*
X138061Y114602D02*
X138075Y114601D01*
X138088Y114598D01*
X138100Y114594D01*
X138112Y114588D01*
X138123Y114581D01*
X138133Y114572D01*
X138783Y113922D01*
X138792Y113912D01*
X138800Y113901D01*
X138805Y113889D01*
X138810Y113876D01*
X138812Y113863D01*
X138813Y113850D01*
Y113250D01*
X138812Y113237D01*
X138810Y113224D01*
X138805Y113211D01*
X138800Y113199D01*
X138792Y113188D01*
X138783Y113178D01*
X138133Y112528D01*
X138123Y112519D01*
X138112Y112512D01*
X138100Y112506D01*
X138088Y112502D01*
X138075Y112499D01*
X138061Y112498D01*
X136161D01*
X136148Y112499D01*
X136135Y112502D01*
X136122Y112506D01*
X136110Y112512D01*
X136099Y112519D01*
X136089Y112528D01*
X135439Y113178D01*
X135431Y113188D01*
X135423Y113199D01*
X135417Y113211D01*
X135413Y113224D01*
X135410Y113237D01*
X135410Y113250D01*
Y113850D01*
X135410Y113863D01*
X135413Y113876D01*
X135417Y113889D01*
X135423Y113901D01*
X135431Y113912D01*
X135439Y113922D01*
X136089Y114572D01*
X136099Y114581D01*
X136110Y114588D01*
X136122Y114594D01*
X136135Y114598D01*
X136148Y114601D01*
X136161Y114602D01*
X138061Y114602D01*
D02*
G37*
G36*
X138802Y106737D02*
X138815Y106734D01*
X138828Y106730D01*
X138840Y106724D01*
X138851Y106717D01*
X138861Y106708D01*
X138870Y106698D01*
X138877Y106687D01*
X138883Y106675D01*
X138887Y106662D01*
X138890Y106649D01*
X138891Y106636D01*
Y105468D01*
X140821D01*
X140834Y105467D01*
X140847Y105464D01*
X140860Y105460D01*
X140872Y105454D01*
X140883Y105447D01*
X140893Y105438D01*
X140902Y105428D01*
X140909Y105417D01*
X140915Y105405D01*
X140919Y105392D01*
X140922Y105379D01*
X140923Y105366D01*
Y104604D01*
X140922Y104591D01*
X140919Y104578D01*
X140915Y104565D01*
X140909Y104553D01*
X140902Y104542D01*
X140893Y104532D01*
X140883Y104523D01*
X140872Y104516D01*
X140860Y104510D01*
X140847Y104506D01*
X140834Y104503D01*
X140821Y104502D01*
X138891D01*
Y102928D01*
X140821D01*
X140834Y102927D01*
X140847Y102924D01*
X140860Y102920D01*
X140872Y102914D01*
X140883Y102907D01*
X140893Y102898D01*
X140902Y102888D01*
X140909Y102877D01*
X140915Y102865D01*
X140919Y102852D01*
X140922Y102839D01*
X140923Y102826D01*
Y102064D01*
X140922Y102051D01*
X140919Y102038D01*
X140915Y102025D01*
X140909Y102013D01*
X140902Y102002D01*
X140893Y101992D01*
X140883Y101983D01*
X140872Y101976D01*
X140860Y101970D01*
X140847Y101966D01*
X140834Y101963D01*
X140821Y101962D01*
X137011D01*
X136998Y101963D01*
X136985Y101966D01*
X136972Y101970D01*
X136960Y101976D01*
X136949Y101983D01*
X136939Y101992D01*
X136930Y102002D01*
X136923Y102013D01*
X136917Y102025D01*
X136913Y102038D01*
X136910Y102051D01*
X136909Y102064D01*
Y103232D01*
X134979D01*
X134966Y103233D01*
X134953Y103236D01*
X134940Y103240D01*
X134928Y103246D01*
X134917Y103253D01*
X134907Y103262D01*
X134898Y103272D01*
X134891Y103283D01*
X134885Y103295D01*
X134881Y103308D01*
X134878Y103321D01*
X134877Y103334D01*
Y104096D01*
X134878Y104109D01*
X134881Y104122D01*
X134885Y104135D01*
X134891Y104147D01*
X134898Y104158D01*
X134907Y104168D01*
X134917Y104177D01*
X134928Y104184D01*
X134940Y104190D01*
X134953Y104194D01*
X134966Y104197D01*
X134979Y104198D01*
X136274D01*
Y104502D01*
X134979D01*
X134966Y104503D01*
X134953Y104506D01*
X134940Y104510D01*
X134928Y104516D01*
X134917Y104523D01*
X134907Y104532D01*
X134898Y104542D01*
X134891Y104553D01*
X134885Y104565D01*
X134881Y104578D01*
X134878Y104591D01*
X134877Y104604D01*
Y105366D01*
X134878Y105379D01*
X134881Y105392D01*
X134885Y105405D01*
X134891Y105417D01*
X134898Y105428D01*
X134907Y105438D01*
X134917Y105447D01*
X134928Y105454D01*
X134940Y105460D01*
X134953Y105464D01*
X134966Y105467D01*
X134979Y105468D01*
X136274D01*
Y105772D01*
X134979D01*
X134966Y105773D01*
X134953Y105776D01*
X134940Y105780D01*
X134928Y105786D01*
X134917Y105793D01*
X134907Y105802D01*
X134898Y105812D01*
X134891Y105823D01*
X134885Y105835D01*
X134881Y105848D01*
X134878Y105861D01*
X134877Y105874D01*
Y106636D01*
X134878Y106649D01*
X134881Y106662D01*
X134885Y106675D01*
X134891Y106687D01*
X134898Y106698D01*
X134907Y106708D01*
X134917Y106717D01*
X134928Y106724D01*
X134940Y106730D01*
X134953Y106734D01*
X134966Y106737D01*
X134979Y106738D01*
X138789D01*
X138802Y106737D01*
D02*
G37*
G36*
X144457Y94464D02*
X144267Y93381D01*
X144217Y93494D01*
X144115Y93684D01*
X144062Y93761D01*
X144009Y93827D01*
X143954Y93880D01*
X143898Y93922D01*
X143842Y93951D01*
X143784Y93969D01*
X143725Y93975D01*
X143733Y94475D01*
X144457Y94464D01*
D02*
G37*
G36*
X141205Y83788D02*
X141220Y83742D01*
X141246Y83692D01*
X141281Y83639D01*
X141327Y83581D01*
X141383Y83520D01*
X141449Y83456D01*
X141611Y83315D01*
X141708Y83239D01*
X140192D01*
X140288Y83315D01*
X140517Y83520D01*
X140573Y83581D01*
X140619Y83639D01*
X140654Y83692D01*
X140680Y83742D01*
X140695Y83788D01*
X140700Y83830D01*
X141200D01*
X141205Y83788D01*
D02*
G37*
G36*
X141611Y78896D02*
X141383Y78690D01*
X141327Y78629D01*
X141281Y78572D01*
X141246Y78519D01*
X141220Y78469D01*
X141205Y78423D01*
X141200Y78381D01*
X140700D01*
X140695Y78423D01*
X140680Y78469D01*
X140654Y78519D01*
X140619Y78572D01*
X140573Y78629D01*
X140517Y78690D01*
X140451Y78755D01*
X140288Y78896D01*
X140192Y78972D01*
X141708D01*
X141611Y78896D01*
D02*
G37*
G36*
X141205Y72788D02*
X141220Y72742D01*
X141246Y72692D01*
X141281Y72639D01*
X141327Y72581D01*
X141383Y72520D01*
X141449Y72456D01*
X141611Y72315D01*
X141708Y72239D01*
X140192D01*
X140288Y72315D01*
X140517Y72520D01*
X140573Y72581D01*
X140619Y72639D01*
X140654Y72692D01*
X140680Y72742D01*
X140695Y72788D01*
X140700Y72830D01*
X141200D01*
X141205Y72788D01*
D02*
G37*
G36*
X141820Y68741D02*
X141905Y68350D01*
X141940Y68241D01*
X141978Y68141D01*
X142019Y68053D01*
X142063Y67975D01*
X142111Y67907D01*
X142162Y67849D01*
X141783Y67520D01*
X141733Y67560D01*
X141661Y67599D01*
X141569Y67638D01*
X141456Y67675D01*
X141322Y67712D01*
X140992Y67783D01*
X140340Y67885D01*
X141797Y68892D01*
X141820Y68741D01*
D02*
G37*
G36*
X166767Y63642D02*
X166691Y63738D01*
X166485Y63967D01*
X166424Y64023D01*
X166367Y64069D01*
X166313Y64104D01*
X166264Y64130D01*
X166218Y64145D01*
X166175Y64150D01*
Y64650D01*
X166218Y64655D01*
X166264Y64670D01*
X166313Y64696D01*
X166367Y64731D01*
X166424Y64777D01*
X166485Y64833D01*
X166550Y64899D01*
X166691Y65061D01*
X166767Y65158D01*
Y63642D01*
D02*
G37*
G36*
X171111Y65102D02*
X171502Y64851D01*
X171621Y64789D01*
X171734Y64739D01*
X171840Y64700D01*
X171941Y64672D01*
X172036Y64656D01*
X172125Y64650D01*
Y64150D01*
X172036Y64144D01*
X171941Y64128D01*
X171840Y64100D01*
X171734Y64061D01*
X171621Y64010D01*
X171502Y63949D01*
X171247Y63793D01*
X171111Y63698D01*
X170969Y63592D01*
Y65208D01*
X171111Y65102D01*
D02*
G37*
G36*
X153384Y64562D02*
X153590Y64333D01*
X153651Y64277D01*
X153708Y64231D01*
X153762Y64196D01*
X153811Y64170D01*
X153857Y64155D01*
X153900Y64150D01*
Y63650D01*
X153857Y63645D01*
X153812Y63630D01*
X153762Y63604D01*
X153708Y63569D01*
X153651Y63523D01*
X153590Y63467D01*
X153525Y63401D01*
X153384Y63238D01*
X153308Y63142D01*
Y64658D01*
X153384Y64562D01*
D02*
G37*
G36*
X149042Y63142D02*
X148966Y63238D01*
X148760Y63467D01*
X148699Y63523D01*
X148642Y63569D01*
X148588Y63604D01*
X148538Y63630D01*
X148493Y63645D01*
X148450Y63650D01*
Y64150D01*
X148493Y64155D01*
X148538Y64170D01*
X148588Y64196D01*
X148642Y64231D01*
X148699Y64277D01*
X148760Y64333D01*
X148825Y64399D01*
X148966Y64561D01*
X149042Y64658D01*
Y63142D01*
D02*
G37*
D79*
X176174Y136887D02*
G03*
X176050Y136589I299J-299D01*
G01*
X175550D02*
G03*
X175426Y136887I-422J0D01*
G01*
X175240Y135840D02*
G03*
X175550Y136589I-749J749D01*
G01*
X174991Y135591D02*
G03*
X174850Y135250I341J-341D01*
G01*
D02*
G03*
X175150Y134950I300J0D01*
G01*
X175293Y137208D02*
G03*
X175426Y136887I454J0D01*
G01*
X176174D02*
G03*
X176307Y137208I-321J321D01*
G01*
X166174Y136887D02*
G03*
X166307Y137208I-321J321D01*
G01*
X166174Y136887D02*
G03*
X166050Y136589I299J-299D01*
G01*
X165293Y137208D02*
G03*
X165426Y136887I454J0D01*
G01*
X164850Y135250D02*
G03*
X165150Y134950I300J0D01*
G01*
X164991Y135591D02*
G03*
X164850Y135250I341J-341D01*
G01*
X165240Y135840D02*
G03*
X165550Y136589I-749J749D01*
G01*
D02*
G03*
X165426Y136887I-422J0D01*
G01*
X167550Y128757D02*
G03*
X167651Y128512I346J0D01*
G01*
X167851Y128029D02*
G03*
X167651Y128512I-683J0D01*
G01*
X166949D02*
G03*
X166749Y128029I483J-483D01*
G01*
X166949Y128512D02*
G03*
X167050Y128757I-244J244D01*
G01*
X176202Y127472D02*
G03*
X176030Y127056I417J-416D01*
G01*
X176741Y128011D02*
G03*
X177050Y128757I-746J746D01*
G01*
X177550D02*
G03*
X177859Y128011I1054J0D01*
G01*
X178570Y127056D02*
G03*
X178398Y127472I-589J0D01*
G01*
X169534Y157125D02*
G03*
X168909Y156500I0J-625D01*
G01*
X171434D02*
G03*
X170809Y157125I-625J0D01*
G01*
X151442Y140593D02*
G03*
X151174Y140861I-268J0D01*
G01*
Y141326D02*
G03*
X151442Y141593I0J268D01*
G01*
X151440Y136584D02*
G03*
X151708Y136316I268J0D01*
G01*
Y135852D02*
G03*
X151440Y135584I0J-268D01*
G01*
X157100Y119910D02*
G03*
X156982Y120195I-403J0D01*
G01*
X157683Y120195D02*
G03*
X157565Y119910I285J-285D01*
G01*
X148942Y119910D02*
G03*
X148824Y120194I-403J0D01*
G01*
X149525Y120194D02*
G03*
X149407Y119910I285J-285D01*
G01*
X174991Y135591D02*
X175240Y135840D01*
X175150Y134950D02*
X175400D01*
X175293Y137208D02*
Y138175D01*
X176307Y137208D02*
Y137762D01*
X176050Y135600D02*
Y136589D01*
X166307Y137762D02*
Y138588D01*
X166050Y135600D02*
Y136589D01*
X166307Y137208D02*
Y137762D01*
X165293Y137208D02*
Y138175D01*
X165150Y134950D02*
X165400D01*
X164991Y135591D02*
X165240Y135840D01*
X151150Y108400D02*
X151488D01*
X141950Y96238D02*
Y96575D01*
X167846Y125262D02*
X167850Y124750D01*
X166746Y125262D02*
X166750Y124750D01*
X167550Y128757D02*
Y130800D01*
X167050Y128757D02*
Y130800D01*
X166749Y126262D02*
Y128029D01*
X167851Y126262D02*
Y128029D01*
X176025Y120700D02*
X176027Y122993D01*
X176202Y127473D02*
X176741Y128011D01*
X177859D02*
X178398Y127473D01*
X177550Y128757D02*
Y130800D01*
X177050Y128757D02*
Y130800D01*
X176030Y126175D02*
Y127056D01*
X178570Y126175D02*
Y127056D01*
X171454Y152185D02*
X171456Y150400D01*
X171452Y148275D02*
X171454Y146490D01*
X169534Y157125D02*
X169759D01*
X168909Y155365D02*
Y156500D01*
X171434Y155385D02*
Y156500D01*
X170609Y157125D02*
X170809D01*
X169758Y158125D02*
Y158637D01*
X170608Y158125D02*
Y158637D01*
X156825Y120348D02*
Y120353D01*
X157841Y120348D02*
Y120353D01*
X156825D02*
X156982Y120195D01*
X157683D02*
X157841Y120353D01*
X157683Y120195D02*
X157683Y120195D01*
X148667Y120347D02*
Y120352D01*
X149683Y120347D02*
Y120352D01*
X148667D02*
X148824Y120194D01*
X149525D02*
X149683Y120352D01*
X149525Y120194D02*
X149525Y120194D01*
D80*
X171454Y143310D02*
G03*
X173139Y141625I1685J0D01*
G01*
X175186Y140532D02*
G03*
X174093Y141625I-1093J0D01*
G01*
X167229D02*
G03*
X168914Y143310I0J1685D01*
G01*
X166275Y141625D02*
G03*
X165182Y140532I0J-1093D01*
G01*
X156500Y130750D02*
G03*
X155825Y130075I0J-675D01*
G01*
X158825D02*
G03*
X158150Y130750I-675J0D01*
G01*
X148350D02*
G03*
X147675Y130075I0J-675D01*
G01*
X150675D02*
G03*
X150000Y130750I-675J0D01*
G01*
X158100Y121501D02*
G03*
X158825Y122226I0J725D01*
G01*
X155825D02*
G03*
X156550Y121501I725J0D01*
G01*
X149950Y121500D02*
G03*
X150675Y122225I0J725D01*
G01*
X147675D02*
G03*
X148400Y121500I725J0D01*
G01*
X133200Y115750D02*
G03*
X133900Y115050I700J0D01*
G01*
X133850Y112050D02*
G03*
X133181Y111381I0J-669D01*
G01*
X133200Y104400D02*
G03*
X135155Y102445I1955J0D01*
G01*
X152481Y109959D02*
G03*
X152001Y110450I-500J-8D01*
G01*
X149400Y107400D02*
G03*
X148150Y106154I0J-1250D01*
G01*
X144110Y106760D02*
G03*
X145650Y108300I0J1540D01*
G01*
X143669Y103040D02*
G03*
X144900Y103550I0J1741D01*
G01*
X145795Y104050D02*
G03*
X145121Y103771I0J-954D01*
G01*
X147000Y96200D02*
G03*
X148150Y97350I0J1150D01*
G01*
X143597Y95226D02*
G03*
X144573Y95648I-47J1448D01*
G01*
X145904Y96200D02*
G03*
X144573Y95648I-1J-1879D01*
G01*
X141725Y90650D02*
G03*
X140950Y89875I0J-775D01*
G01*
X145012Y64644D02*
G03*
X146808Y63900I1796J1796D01*
G01*
X175182Y138294D02*
Y138615D01*
X176432Y138294D02*
Y138615D01*
X166432Y138294D02*
Y138615D01*
X165182Y138294D02*
Y138615D01*
X148350Y130750D02*
X148675D01*
X173139Y141625D02*
X174093D01*
X175186Y140205D02*
Y140532D01*
X166275Y141625D02*
X167229D01*
X165182Y140210D02*
Y140532D01*
X155825Y129650D02*
Y130075D01*
X157825Y130750D02*
X158150D01*
X156500D02*
X156825D01*
X158825Y129650D02*
Y130075D01*
X147675Y129650D02*
Y130075D01*
X149675Y130750D02*
X150000D01*
X150675Y129650D02*
Y130075D01*
X150683Y128700D02*
Y129650D01*
X139750Y106250D02*
X141750D01*
X139750Y103700D02*
X141625D01*
X140950Y100875D02*
X140950Y100055D01*
X140950Y96329D02*
X140950Y97645D01*
X143300Y110450D02*
X143637Y110450D01*
X148150Y100900D02*
Y102400D01*
X143902Y104360D02*
X144237Y104695D01*
X143275Y104360D02*
X143902D01*
X158825Y125200D02*
Y127000D01*
X155825Y125200D02*
Y127000D01*
X147675Y125200D02*
Y127000D01*
X150675Y125200D02*
Y127000D01*
X158833Y128500D02*
Y129651D01*
X155817Y128500D02*
Y129651D01*
X147667Y128700D02*
Y129650D01*
X158825Y122601D02*
Y123701D01*
X157825Y121501D02*
X158100D01*
X158825Y122226D02*
Y122601D01*
X157825Y120350D02*
Y121466D01*
X155825Y122226D02*
Y122601D01*
X155825D02*
Y123701D01*
X156550Y121501D02*
X156825D01*
X156825Y120350D02*
Y121466D01*
X150675Y122600D02*
Y123500D01*
X149675Y121500D02*
X149950D01*
X150675Y122225D02*
Y122600D01*
X149675Y120350D02*
Y121465D01*
X147675Y122225D02*
Y122600D01*
X147675D02*
Y123500D01*
X148400Y121500D02*
X148675D01*
X148675Y120350D02*
Y121465D01*
X153500Y112925D02*
Y113950D01*
X153500Y111925D02*
X153500Y109812D01*
X133200Y117200D02*
Y117875D01*
X133200Y115750D02*
Y116200D01*
X133900Y115050D02*
X134600D01*
X133200Y106758D02*
Y108250D01*
X133850Y112050D02*
X134650D01*
X133181Y109269D02*
Y110354D01*
Y111381D01*
X135155Y102445D02*
X135897D01*
X133200Y105000D02*
Y105742D01*
Y104400D02*
Y105000D01*
X147200Y110450D02*
X152000D01*
X149400Y107400D02*
X151300D01*
X143130Y106760D02*
X143925D01*
X143927D02*
X144110D01*
X143275Y103040D02*
X143669D01*
X144900Y103550D02*
X145121Y103771D01*
X145795Y104050D02*
X146050D01*
X140950Y82705D02*
X140950Y86155D01*
X140950Y78171D02*
Y79505D01*
Y71705D02*
Y73438D01*
X148150Y97350D02*
Y97900D01*
X143551Y95227D02*
X143551Y95227D01*
X145905Y96200D02*
X147000D01*
X140950Y89725D02*
Y89875D01*
X141725Y90650D02*
X145075D01*
X141286Y68366D02*
X142363Y67289D01*
X146808Y63900D02*
X149565D01*
X144800Y64855D02*
X145012Y64644D01*
X152775Y63900D02*
X158350D01*
D81*
X156910Y130785D02*
G03*
X157092Y131225I-440J440D01*
G01*
X157557D02*
G03*
X157740Y130785I622J0D01*
G01*
X148760D02*
G03*
X148943Y131225I-440J440D01*
G01*
X149408D02*
G03*
X149590Y130785I622J0D01*
G01*
D82*
X150988Y141077D02*
G03*
X149175Y139099I173J-1979D01*
G01*
X157325Y134820D02*
G03*
X156055Y136090I-1270J0D01*
G01*
X156045Y116150D02*
G03*
X157325Y117430I0J1280D01*
G01*
X149175D02*
G03*
X150455Y116150I1280J0D01*
G01*
X156720Y132487D02*
X157320Y132484D01*
X149180D02*
X149780Y132487D01*
X149175Y131095D02*
Y139099D01*
X157325Y131095D02*
Y134820D01*
X151875Y136090D02*
X156055D01*
X156700Y118775D02*
X157325D01*
Y117430D02*
Y120900D01*
X155200Y116150D02*
X156045D01*
X149175Y118775D02*
X149800D01*
X149175Y117430D02*
Y120900D01*
X150455Y116150D02*
X151300D01*
X170625Y64400D02*
X175315D01*
X163965D02*
X167325D01*
D83*
X157683Y120195D02*
D03*
X149525Y120194D02*
D03*
D84*
X153560Y136595D02*
Y136650D01*
D85*
X143340Y94225D02*
X144870D01*
D86*
X143150Y105750D02*
X144100D01*
D87*
X177050Y130300D02*
Y130800D01*
X177550Y130300D02*
Y130800D01*
X167050Y130300D02*
Y130800D01*
X167550Y130300D02*
Y130800D01*
D88*
X153500Y111925D02*
D03*
Y112925D02*
D03*
X168500Y139100D02*
D03*
Y138100D02*
D03*
X167550Y139100D02*
D03*
Y138100D02*
D03*
X178500D02*
D03*
Y139100D02*
D03*
X175075Y81625D02*
D03*
Y82625D02*
D03*
X167700Y82900D02*
D03*
Y81900D02*
D03*
X177550Y138100D02*
D03*
Y139100D02*
D03*
X169150Y126675D02*
D03*
Y125675D02*
D03*
X165450D02*
D03*
Y126675D02*
D03*
X167849Y126262D02*
D03*
Y125262D02*
D03*
X166749D02*
D03*
Y126262D02*
D03*
X133200Y108250D02*
D03*
Y109250D02*
D03*
X133200Y116200D02*
D03*
Y117200D02*
D03*
X135331Y110354D02*
D03*
Y109354D02*
D03*
X150450Y105175D02*
D03*
Y106175D02*
D03*
X138000Y93675D02*
D03*
Y94675D02*
D03*
X151175Y68550D02*
D03*
Y69550D02*
D03*
X155775Y69925D02*
D03*
Y68925D02*
D03*
X173250Y56925D02*
D03*
Y57925D02*
D03*
X153000Y163600D02*
D03*
Y162600D02*
D03*
X159100Y168550D02*
D03*
Y169550D02*
D03*
X150700D02*
D03*
Y168550D02*
D03*
X169759Y157125D02*
D03*
Y158125D02*
D03*
X170609Y157125D02*
D03*
Y158125D02*
D03*
D89*
X154450Y119300D02*
D03*
X155450D02*
D03*
X154450Y120100D02*
D03*
X155450D02*
D03*
X154950Y113000D02*
D03*
X155950D02*
D03*
X154950Y112100D02*
D03*
X155950D02*
D03*
X170675Y127825D02*
D03*
X171675D02*
D03*
X171350Y134950D02*
D03*
X170350D02*
D03*
X169750Y129600D02*
D03*
X168750D02*
D03*
X181350Y134950D02*
D03*
X180350D02*
D03*
X178750Y129600D02*
D03*
X179750D02*
D03*
X179400Y81625D02*
D03*
X180400D02*
D03*
X167050Y86900D02*
D03*
X166050D02*
D03*
X181675Y127825D02*
D03*
X180675D02*
D03*
X177300Y121375D02*
D03*
X178300D02*
D03*
X157825Y130750D02*
D03*
X156825D02*
D03*
X157825Y126100D02*
D03*
X158825D02*
D03*
X156825D02*
D03*
X155825D02*
D03*
X158825Y122581D02*
D03*
X157825D02*
D03*
X155825D02*
D03*
X156825D02*
D03*
X157825Y121466D02*
D03*
X156825D02*
D03*
X149675Y130750D02*
D03*
X148675D02*
D03*
X149675Y126100D02*
D03*
X150675D02*
D03*
X148675D02*
D03*
X147675D02*
D03*
X148675Y121500D02*
D03*
X149675D02*
D03*
X147675Y122600D02*
D03*
X148675D02*
D03*
X149675D02*
D03*
X150675D02*
D03*
X144525Y112750D02*
D03*
X143525D02*
D03*
X153000Y104500D02*
D03*
X154000D02*
D03*
X143700Y78905D02*
D03*
X142700D02*
D03*
X162025Y67925D02*
D03*
X161025D02*
D03*
X160175D02*
D03*
X159175D02*
D03*
X166150Y73475D02*
D03*
X167150D02*
D03*
X167050Y67800D02*
D03*
X166050D02*
D03*
X146650Y81100D02*
D03*
X145650D02*
D03*
X147000Y76500D02*
D03*
X146000D02*
D03*
X161350Y60450D02*
D03*
X162350D02*
D03*
Y59575D02*
D03*
X161350D02*
D03*
X166150Y72425D02*
D03*
X167150D02*
D03*
X175025Y121375D02*
D03*
X176025D02*
D03*
D90*
X155200Y117400D02*
D03*
Y116900D02*
D03*
Y116400D02*
D03*
Y115900D02*
D03*
Y115400D02*
D03*
Y114900D02*
D03*
X151300D02*
D03*
Y115400D02*
D03*
Y115900D02*
D03*
Y116400D02*
D03*
Y116900D02*
D03*
Y117400D02*
D03*
D91*
X154500Y114200D02*
D03*
X154000D02*
D03*
X153500D02*
D03*
X153000D02*
D03*
X152500D02*
D03*
X152000D02*
D03*
Y118100D02*
D03*
X152500D02*
D03*
X153000D02*
D03*
X153500D02*
D03*
X154000D02*
D03*
X154500D02*
D03*
D92*
X181240Y112000D02*
D03*
Y111000D02*
D03*
Y110000D02*
D03*
Y109000D02*
D03*
Y108000D02*
D03*
Y107000D02*
D03*
Y106000D02*
D03*
Y105000D02*
D03*
Y104000D02*
D03*
Y103000D02*
D03*
Y102000D02*
D03*
Y101000D02*
D03*
Y100000D02*
D03*
Y99000D02*
D03*
Y98000D02*
D03*
Y97000D02*
D03*
X180240Y112000D02*
D03*
Y111000D02*
D03*
Y110000D02*
D03*
Y109000D02*
D03*
Y108000D02*
D03*
Y107000D02*
D03*
Y106000D02*
D03*
Y105000D02*
D03*
Y104000D02*
D03*
Y103000D02*
D03*
Y102000D02*
D03*
Y101000D02*
D03*
Y100000D02*
D03*
Y99000D02*
D03*
Y98000D02*
D03*
Y97000D02*
D03*
X179240Y112000D02*
D03*
Y111000D02*
D03*
Y110000D02*
D03*
Y109000D02*
D03*
Y108000D02*
D03*
Y107000D02*
D03*
Y106000D02*
D03*
Y105000D02*
D03*
Y104000D02*
D03*
Y103000D02*
D03*
Y102000D02*
D03*
Y101000D02*
D03*
Y100000D02*
D03*
Y99000D02*
D03*
Y98000D02*
D03*
Y97000D02*
D03*
X178240Y112000D02*
D03*
Y111000D02*
D03*
Y110000D02*
D03*
Y109000D02*
D03*
Y108000D02*
D03*
Y107000D02*
D03*
Y106000D02*
D03*
Y105000D02*
D03*
Y104000D02*
D03*
Y103000D02*
D03*
Y102000D02*
D03*
Y101000D02*
D03*
Y100000D02*
D03*
Y99000D02*
D03*
Y98000D02*
D03*
Y97000D02*
D03*
X177240Y112000D02*
D03*
Y111000D02*
D03*
Y110000D02*
D03*
Y109000D02*
D03*
Y108000D02*
D03*
Y107000D02*
D03*
Y106000D02*
D03*
Y105000D02*
D03*
Y104000D02*
D03*
Y103000D02*
D03*
Y102000D02*
D03*
Y101000D02*
D03*
Y100000D02*
D03*
Y99000D02*
D03*
Y98000D02*
D03*
Y97000D02*
D03*
X176240Y112000D02*
D03*
Y111000D02*
D03*
Y110000D02*
D03*
Y109000D02*
D03*
Y108000D02*
D03*
Y107000D02*
D03*
Y106000D02*
D03*
Y105000D02*
D03*
Y104000D02*
D03*
Y103000D02*
D03*
Y102000D02*
D03*
Y101000D02*
D03*
Y100000D02*
D03*
Y99000D02*
D03*
Y98000D02*
D03*
Y97000D02*
D03*
X175240Y112000D02*
D03*
Y111000D02*
D03*
Y110000D02*
D03*
Y109000D02*
D03*
Y108000D02*
D03*
Y107000D02*
D03*
Y106000D02*
D03*
Y105000D02*
D03*
Y104000D02*
D03*
Y103000D02*
D03*
Y102000D02*
D03*
Y101000D02*
D03*
Y100000D02*
D03*
Y99000D02*
D03*
Y98000D02*
D03*
Y97000D02*
D03*
X174240Y112000D02*
D03*
Y111000D02*
D03*
Y110000D02*
D03*
Y109000D02*
D03*
Y108000D02*
D03*
Y107000D02*
D03*
Y106000D02*
D03*
Y105000D02*
D03*
Y104000D02*
D03*
Y103000D02*
D03*
Y102000D02*
D03*
Y101000D02*
D03*
Y100000D02*
D03*
Y99000D02*
D03*
Y98000D02*
D03*
Y97000D02*
D03*
X173240Y112000D02*
D03*
Y111000D02*
D03*
Y110000D02*
D03*
Y109000D02*
D03*
Y108000D02*
D03*
Y107000D02*
D03*
Y106000D02*
D03*
Y105000D02*
D03*
Y104000D02*
D03*
Y103000D02*
D03*
Y102000D02*
D03*
Y101000D02*
D03*
Y100000D02*
D03*
Y99000D02*
D03*
Y98000D02*
D03*
Y97000D02*
D03*
X172240Y112000D02*
D03*
Y111000D02*
D03*
Y110000D02*
D03*
Y109000D02*
D03*
Y108000D02*
D03*
Y107000D02*
D03*
Y106000D02*
D03*
Y105000D02*
D03*
Y104000D02*
D03*
Y103000D02*
D03*
Y102000D02*
D03*
Y101000D02*
D03*
Y100000D02*
D03*
Y99000D02*
D03*
Y98000D02*
D03*
Y97000D02*
D03*
X171240Y112000D02*
D03*
Y111000D02*
D03*
Y110000D02*
D03*
Y109000D02*
D03*
Y108000D02*
D03*
Y107000D02*
D03*
Y106000D02*
D03*
Y105000D02*
D03*
Y104000D02*
D03*
Y103000D02*
D03*
Y102000D02*
D03*
Y101000D02*
D03*
Y100000D02*
D03*
Y99000D02*
D03*
Y98000D02*
D03*
Y97000D02*
D03*
X170240Y112000D02*
D03*
Y111000D02*
D03*
Y110000D02*
D03*
Y109000D02*
D03*
Y108000D02*
D03*
Y107000D02*
D03*
Y106000D02*
D03*
Y105000D02*
D03*
Y104000D02*
D03*
Y103000D02*
D03*
Y102000D02*
D03*
Y101000D02*
D03*
Y100000D02*
D03*
Y99000D02*
D03*
Y98000D02*
D03*
Y97000D02*
D03*
X169240Y112000D02*
D03*
Y111000D02*
D03*
Y110000D02*
D03*
Y109000D02*
D03*
Y108000D02*
D03*
Y107000D02*
D03*
Y106000D02*
D03*
Y105000D02*
D03*
Y104000D02*
D03*
Y103000D02*
D03*
Y102000D02*
D03*
Y101000D02*
D03*
Y100000D02*
D03*
Y99000D02*
D03*
Y98000D02*
D03*
Y97000D02*
D03*
X168240Y112000D02*
D03*
Y111000D02*
D03*
Y110000D02*
D03*
Y109000D02*
D03*
Y108000D02*
D03*
Y107000D02*
D03*
Y106000D02*
D03*
Y105000D02*
D03*
Y104000D02*
D03*
Y103000D02*
D03*
Y102000D02*
D03*
Y101000D02*
D03*
Y100000D02*
D03*
Y99000D02*
D03*
Y98000D02*
D03*
Y97000D02*
D03*
X167240Y112000D02*
D03*
Y111000D02*
D03*
Y110000D02*
D03*
Y109000D02*
D03*
Y108000D02*
D03*
Y107000D02*
D03*
Y106000D02*
D03*
Y105000D02*
D03*
Y104000D02*
D03*
Y103000D02*
D03*
Y102000D02*
D03*
Y101000D02*
D03*
Y100000D02*
D03*
Y99000D02*
D03*
Y98000D02*
D03*
Y97000D02*
D03*
X166240Y112000D02*
D03*
Y111000D02*
D03*
Y110000D02*
D03*
Y109000D02*
D03*
Y108000D02*
D03*
Y107000D02*
D03*
Y106000D02*
D03*
Y105000D02*
D03*
Y104000D02*
D03*
Y103000D02*
D03*
Y102000D02*
D03*
Y101000D02*
D03*
Y100000D02*
D03*
Y99000D02*
D03*
Y98000D02*
D03*
Y97000D02*
D03*
D93*
X178725Y83025D02*
D03*
X178225D02*
D03*
X177725D02*
D03*
X177225D02*
D03*
X176725D02*
D03*
Y86225D02*
D03*
X177225D02*
D03*
X177725D02*
D03*
X178225D02*
D03*
X178725D02*
D03*
D94*
X177725Y84075D02*
D03*
Y84625D02*
D03*
Y85175D02*
D03*
D95*
X177450Y56972D02*
D03*
Y57988D02*
D03*
X171125Y71808D02*
D03*
Y70792D02*
D03*
X174171Y82629D02*
D03*
Y81613D02*
D03*
X174800Y86967D02*
D03*
Y87983D02*
D03*
X178225Y87517D02*
D03*
Y88533D02*
D03*
X179125Y87517D02*
D03*
Y88533D02*
D03*
X133200Y106758D02*
D03*
Y105742D02*
D03*
X157225Y62884D02*
D03*
Y63900D02*
D03*
X154425Y62884D02*
D03*
Y63900D02*
D03*
X165050Y114742D02*
D03*
Y115758D02*
D03*
D96*
X172875Y125500D02*
D03*
X170675Y124550D02*
D03*
Y126450D02*
D03*
X170927Y83577D02*
D03*
Y81677D02*
D03*
X173127Y82627D02*
D03*
X182875Y125500D02*
D03*
X180675Y124550D02*
D03*
Y126450D02*
D03*
X174250Y57925D02*
D03*
Y56025D02*
D03*
X176450Y56975D02*
D03*
D97*
X172783Y123125D02*
D03*
X171767D02*
D03*
X166309Y137762D02*
D03*
X165293D02*
D03*
X175293D02*
D03*
X176309D02*
D03*
X172942Y87000D02*
D03*
X173958D02*
D03*
X181767Y123125D02*
D03*
X182783D02*
D03*
X157817Y129650D02*
D03*
X158833D02*
D03*
X155817D02*
D03*
X156833D02*
D03*
X134208Y107500D02*
D03*
X133192D02*
D03*
X134208Y105000D02*
D03*
X133192Y105000D02*
D03*
X150683Y129650D02*
D03*
X149667D02*
D03*
X148683D02*
D03*
X147667D02*
D03*
X149683Y120350D02*
D03*
X148667D02*
D03*
X157833Y120350D02*
D03*
X156817D02*
D03*
X145300Y105750D02*
D03*
X144284D02*
D03*
X142692Y79800D02*
D03*
X143708D02*
D03*
X156333Y63900D02*
D03*
X155317D02*
D03*
X155408Y88775D02*
D03*
X154392D02*
D03*
X152467Y88775D02*
D03*
X153483D02*
D03*
X152867Y84725D02*
D03*
X153883D02*
D03*
X145308Y104750D02*
D03*
X144292D02*
D03*
X155708Y84725D02*
D03*
X154692D02*
D03*
D98*
X172199Y128987D02*
D03*
X170799D02*
D03*
X172261Y130212D02*
D03*
X170737D02*
D03*
X170799Y131437D02*
D03*
X172199D02*
D03*
X170799Y133462D02*
D03*
X172199D02*
D03*
X167450Y85700D02*
D03*
X166050D02*
D03*
X180799Y133462D02*
D03*
X182199D02*
D03*
X180799Y131437D02*
D03*
X182199D02*
D03*
X182261Y130212D02*
D03*
X180737D02*
D03*
X182199Y128987D02*
D03*
X180799D02*
D03*
X147687Y114225D02*
D03*
X146163D02*
D03*
Y113000D02*
D03*
X147687D02*
D03*
X162400Y69000D02*
D03*
X161000D02*
D03*
X155525Y89925D02*
D03*
X154125D02*
D03*
X153250Y79500D02*
D03*
X154650D02*
D03*
X155825Y83575D02*
D03*
X154425D02*
D03*
X160950Y58525D02*
D03*
X162350D02*
D03*
D99*
X169550Y136588D02*
D03*
Y138112D02*
D03*
X166432Y140113D02*
D03*
Y138713D02*
D03*
X165182Y140113D02*
D03*
Y138713D02*
D03*
X175186Y138713D02*
D03*
Y140113D02*
D03*
X137800Y110350D02*
D03*
Y108950D02*
D03*
X176432Y140113D02*
D03*
Y138713D02*
D03*
X177150Y87613D02*
D03*
Y89137D02*
D03*
X175902Y87677D02*
D03*
Y89077D02*
D03*
X176500Y79075D02*
D03*
Y80475D02*
D03*
X179550Y138112D02*
D03*
Y136588D02*
D03*
X136450Y108950D02*
D03*
Y110350D02*
D03*
X151925Y102013D02*
D03*
Y103537D02*
D03*
X150700D02*
D03*
Y102013D02*
D03*
X137950Y95713D02*
D03*
Y97237D02*
D03*
X136650D02*
D03*
Y95713D02*
D03*
X152175Y87050D02*
D03*
Y85650D02*
D03*
X157900Y168150D02*
D03*
Y169550D02*
D03*
X151899Y168145D02*
D03*
Y169545D02*
D03*
X168450Y166750D02*
D03*
Y165350D02*
D03*
X172650Y166200D02*
D03*
Y164800D02*
D03*
X168450Y171750D02*
D03*
Y170350D02*
D03*
X172650Y171200D02*
D03*
Y169800D02*
D03*
X183650Y171200D02*
D03*
Y169800D02*
D03*
X179450Y171750D02*
D03*
Y170350D02*
D03*
X183650Y166200D02*
D03*
Y164800D02*
D03*
X179450Y166750D02*
D03*
Y165350D02*
D03*
X183650Y161200D02*
D03*
Y159800D02*
D03*
X179450Y161750D02*
D03*
Y160350D02*
D03*
D100*
X165400Y134950D02*
D03*
Y134450D02*
D03*
Y133950D02*
D03*
Y133450D02*
D03*
Y132950D02*
D03*
Y132450D02*
D03*
Y131950D02*
D03*
Y131450D02*
D03*
X169200D02*
D03*
Y131950D02*
D03*
Y132450D02*
D03*
Y132950D02*
D03*
Y133450D02*
D03*
Y133950D02*
D03*
Y134450D02*
D03*
Y134950D02*
D03*
X175400D02*
D03*
Y134450D02*
D03*
Y133950D02*
D03*
Y133450D02*
D03*
Y132950D02*
D03*
Y132450D02*
D03*
Y131950D02*
D03*
Y131450D02*
D03*
X179200D02*
D03*
Y131950D02*
D03*
Y132450D02*
D03*
Y132950D02*
D03*
Y133450D02*
D03*
Y133950D02*
D03*
Y134450D02*
D03*
Y134950D02*
D03*
D101*
X166050Y130800D02*
D03*
X166550D02*
D03*
X167050D02*
D03*
X167550D02*
D03*
X168050D02*
D03*
X168550D02*
D03*
Y135600D02*
D03*
X168050D02*
D03*
X167550D02*
D03*
X167050D02*
D03*
X166550D02*
D03*
X166050D02*
D03*
X176050Y130800D02*
D03*
X176550D02*
D03*
X177050D02*
D03*
X177550D02*
D03*
X178050D02*
D03*
X178550D02*
D03*
Y135600D02*
D03*
X178050D02*
D03*
X177550D02*
D03*
X177050D02*
D03*
X176550D02*
D03*
X176050D02*
D03*
D102*
X172785Y121950D02*
D03*
X170765D02*
D03*
X176360Y59700D02*
D03*
X174340D02*
D03*
X182785Y121950D02*
D03*
X180765D02*
D03*
X147675Y68170D02*
D03*
X149975D02*
D03*
D103*
X171454Y146490D02*
D03*
X168914D02*
D03*
Y143310D02*
D03*
X170184D02*
D03*
X171454D02*
D03*
X176030Y122995D02*
D03*
X177300D02*
D03*
Y126175D02*
D03*
X178570D02*
D03*
X176030D02*
D03*
X178570Y122995D02*
D03*
X168914Y155365D02*
D03*
X170184D02*
D03*
X171454D02*
D03*
Y152185D02*
D03*
X168914D02*
D03*
D104*
X172340Y72570D02*
D03*
Y70030D02*
D03*
X178340D02*
D03*
Y72570D02*
D03*
D105*
X174700Y83711D02*
D03*
Y85489D02*
D03*
X178200Y78861D02*
D03*
Y80639D02*
D03*
X169200Y81661D02*
D03*
Y83439D02*
D03*
X157375Y85361D02*
D03*
Y87139D02*
D03*
D106*
X183335Y84650D02*
D03*
X180965D02*
D03*
D107*
X164550Y81265D02*
D03*
Y83635D02*
D03*
D108*
X168474Y88900D02*
D03*
X165426D02*
D03*
X156299Y170550D02*
D03*
X153505D02*
D03*
D109*
X169149Y127562D02*
D03*
X167849D02*
D03*
X165449Y127562D02*
D03*
X166749D02*
D03*
X134481Y110354D02*
D03*
X133181Y110354D02*
D03*
D110*
X162540Y100525D02*
D03*
X163440D02*
D03*
X162540Y100025D02*
D03*
X163440D02*
D03*
X162540Y99025D02*
D03*
X163440D02*
D03*
X162540Y99525D02*
D03*
X163440D02*
D03*
X184540Y106000D02*
D03*
X183640D02*
D03*
X184540Y106500D02*
D03*
X183640D02*
D03*
X184540Y107500D02*
D03*
X183640D02*
D03*
X184540Y107000D02*
D03*
X183640D02*
D03*
D111*
X180540Y114800D02*
D03*
Y115700D02*
D03*
X180040Y114800D02*
D03*
Y115700D02*
D03*
X181040Y114800D02*
D03*
Y115700D02*
D03*
X181540Y114800D02*
D03*
Y115700D02*
D03*
X174490Y115700D02*
D03*
Y114800D02*
D03*
X173990Y115700D02*
D03*
Y114800D02*
D03*
X172990Y115700D02*
D03*
Y114800D02*
D03*
X173490Y115700D02*
D03*
Y114800D02*
D03*
X167440Y115700D02*
D03*
Y114800D02*
D03*
X166940Y115700D02*
D03*
Y114800D02*
D03*
X165940Y115700D02*
D03*
Y114800D02*
D03*
X166440Y115700D02*
D03*
Y114800D02*
D03*
X172140Y115700D02*
D03*
Y114800D02*
D03*
X171640Y115700D02*
D03*
Y114800D02*
D03*
X170640Y115700D02*
D03*
Y114800D02*
D03*
X171140Y115700D02*
D03*
Y114800D02*
D03*
X169790Y115700D02*
D03*
Y114800D02*
D03*
X169290Y115700D02*
D03*
Y114800D02*
D03*
X168290Y115700D02*
D03*
Y114800D02*
D03*
X168790Y115700D02*
D03*
Y114800D02*
D03*
X175840D02*
D03*
Y115700D02*
D03*
X175340Y114800D02*
D03*
Y115700D02*
D03*
X176340Y114800D02*
D03*
Y115700D02*
D03*
X176840Y114800D02*
D03*
Y115700D02*
D03*
D112*
X179190D02*
D03*
Y114800D02*
D03*
X178690Y115700D02*
D03*
Y114800D02*
D03*
X177690Y115700D02*
D03*
Y114800D02*
D03*
X178190Y115700D02*
D03*
Y114800D02*
D03*
D113*
X158825Y128500D02*
D03*
Y127200D02*
D03*
X155825Y128500D02*
D03*
Y127200D02*
D03*
X158825Y123688D02*
D03*
Y124988D02*
D03*
X155825Y123688D02*
D03*
Y124988D02*
D03*
X150675Y128500D02*
D03*
Y127200D02*
D03*
X147675Y128500D02*
D03*
Y127200D02*
D03*
X150675Y123700D02*
D03*
Y125000D02*
D03*
X147675Y123700D02*
D03*
Y125000D02*
D03*
D114*
X134661Y113550D02*
D03*
D115*
X134511Y115050D02*
D03*
Y112050D02*
D03*
D116*
X140156Y102445D02*
D03*
X135644Y106255D02*
D03*
Y103715D02*
D03*
Y104985D02*
D03*
X140156D02*
D03*
D117*
Y106255D02*
D03*
Y103715D02*
D03*
X135644Y102445D02*
D03*
D118*
X151825Y108900D02*
D03*
Y107900D02*
D03*
Y106900D02*
D03*
Y106400D02*
D03*
X155675D02*
D03*
Y106900D02*
D03*
Y107400D02*
D03*
Y107900D02*
D03*
Y108400D02*
D03*
Y108900D02*
D03*
X151825Y107400D02*
D03*
Y108400D02*
D03*
X143125Y94225D02*
D03*
Y95225D02*
D03*
Y94725D02*
D03*
Y93725D02*
D03*
Y93225D02*
D03*
Y92725D02*
D03*
X139275D02*
D03*
Y93225D02*
D03*
Y93725D02*
D03*
Y94225D02*
D03*
Y94725D02*
D03*
Y95225D02*
D03*
X139775Y77055D02*
D03*
Y76555D02*
D03*
Y76055D02*
D03*
Y75555D02*
D03*
Y75055D02*
D03*
Y74555D02*
D03*
X143625D02*
D03*
Y75055D02*
D03*
Y75555D02*
D03*
Y76055D02*
D03*
Y76555D02*
D03*
Y77055D02*
D03*
X146825Y110450D02*
D03*
X143975D02*
D03*
X146475Y104050D02*
D03*
X149325Y105050D02*
D03*
Y104550D02*
D03*
Y104050D02*
D03*
Y103550D02*
D03*
X146475D02*
D03*
Y104550D02*
D03*
Y105050D02*
D03*
X146825Y110950D02*
D03*
Y109950D02*
D03*
Y109450D02*
D03*
X143975D02*
D03*
Y109950D02*
D03*
Y110950D02*
D03*
D119*
X152500Y105725D02*
D03*
X153000D02*
D03*
X153500D02*
D03*
X154000D02*
D03*
X154500D02*
D03*
X155000D02*
D03*
Y109575D02*
D03*
X154500D02*
D03*
X154000D02*
D03*
X153000D02*
D03*
X153500D02*
D03*
X152500D02*
D03*
X141950Y95900D02*
D03*
X140950D02*
D03*
X142450Y92050D02*
D03*
X141950D02*
D03*
X141450D02*
D03*
X140950D02*
D03*
X140450D02*
D03*
X139950D02*
D03*
Y95900D02*
D03*
X140450D02*
D03*
X141450D02*
D03*
X142450D02*
D03*
X140950Y73880D02*
D03*
Y77730D02*
D03*
X142950D02*
D03*
X142450D02*
D03*
X141950D02*
D03*
X141450D02*
D03*
X140450D02*
D03*
Y73880D02*
D03*
X141450D02*
D03*
X141950D02*
D03*
X142450D02*
D03*
X142950D02*
D03*
X148150Y102875D02*
D03*
Y105725D02*
D03*
X145650Y108775D02*
D03*
X148650Y102875D02*
D03*
X147650D02*
D03*
X147150D02*
D03*
Y105725D02*
D03*
X147650D02*
D03*
X148650D02*
D03*
X144650Y111625D02*
D03*
X145150D02*
D03*
X145650D02*
D03*
X146150D02*
D03*
Y108775D02*
D03*
X145150D02*
D03*
X144650D02*
D03*
D120*
X148150Y101300D02*
D03*
Y97500D02*
D03*
D121*
X149625Y99400D02*
D03*
X146675D02*
D03*
D122*
X142935Y106250D02*
D03*
Y105740D02*
D03*
X141965D02*
D03*
Y106760D02*
D03*
Y106250D02*
D03*
X142935Y106760D02*
D03*
D123*
X140950Y100055D02*
D03*
Y97645D02*
D03*
X171459Y148120D02*
D03*
Y150530D02*
D03*
D124*
X140125Y99510D02*
D03*
Y98850D02*
D03*
Y98190D02*
D03*
X141775D02*
D03*
Y98850D02*
D03*
Y99510D02*
D03*
X170634Y149985D02*
D03*
Y149325D02*
D03*
Y148665D02*
D03*
X172284D02*
D03*
Y149325D02*
D03*
Y149985D02*
D03*
D125*
X145075Y90650D02*
D03*
Y93850D02*
D03*
X140950Y79505D02*
D03*
Y82705D02*
D03*
Y68505D02*
D03*
Y71705D02*
D03*
D126*
X140950Y86405D02*
D03*
Y89405D02*
D03*
X141950D02*
D03*
X141450D02*
D03*
X140450D02*
D03*
Y86405D02*
D03*
X141450D02*
D03*
X141950D02*
D03*
D127*
X139700Y88655D02*
D03*
Y88155D02*
D03*
Y87655D02*
D03*
Y87155D02*
D03*
X142700D02*
D03*
Y87655D02*
D03*
Y88155D02*
D03*
Y88655D02*
D03*
D128*
X141080Y84600D02*
D03*
X143220D02*
D03*
D129*
X145250Y82300D02*
D03*
Y84600D02*
D03*
D130*
X144484Y65168D02*
D03*
X142363Y67289D02*
D03*
X143070Y67996D02*
D03*
X142716Y67643D02*
D03*
X142009Y66936D02*
D03*
X144130Y64814D02*
D03*
X144837Y65521D02*
D03*
X145191Y65875D02*
D03*
D131*
X142009D02*
D03*
X142363Y65521D02*
D03*
X142716Y65168D02*
D03*
X143070Y64814D02*
D03*
X145191Y66936D02*
D03*
X144837Y67289D02*
D03*
X144484Y67643D02*
D03*
X144130Y67996D02*
D03*
D132*
X147675Y64000D02*
D03*
Y66140D02*
D03*
X165350Y66670D02*
D03*
Y64530D02*
D03*
D133*
X149575Y63900D02*
D03*
X152775D02*
D03*
X167300Y64400D02*
D03*
X170500D02*
D03*
D134*
X153470Y68155D02*
D03*
Y70185D02*
D03*
D135*
X163550Y64400D02*
D03*
X158650Y63900D02*
D03*
X163550Y65900D02*
D03*
Y65400D02*
D03*
Y64900D02*
D03*
Y63900D02*
D03*
Y63400D02*
D03*
Y62900D02*
D03*
Y62400D02*
D03*
X158650D02*
D03*
Y62900D02*
D03*
Y63400D02*
D03*
Y64400D02*
D03*
Y64900D02*
D03*
Y65400D02*
D03*
Y65900D02*
D03*
D136*
X159350Y66600D02*
D03*
X159850D02*
D03*
X160350D02*
D03*
X160850D02*
D03*
X161350D02*
D03*
X161850D02*
D03*
X162350D02*
D03*
X162850D02*
D03*
Y61700D02*
D03*
X162350D02*
D03*
X161850D02*
D03*
X161350D02*
D03*
X160850D02*
D03*
X160350D02*
D03*
X159850D02*
D03*
X159350D02*
D03*
D137*
X170202Y79277D02*
D03*
X157400Y89400D02*
D03*
X154902Y132884D02*
D03*
Y167284D02*
D03*
D138*
X177715Y62025D02*
D03*
X172965Y66775D02*
D03*
X172865Y61925D02*
D03*
X177715Y66775D02*
D03*
D139*
X175340Y64400D02*
D03*
X189240Y142000D02*
D03*
Y140000D02*
D03*
Y138000D02*
D03*
Y136000D02*
D03*
Y134000D02*
D03*
Y132000D02*
D03*
Y130000D02*
D03*
X187240Y142000D02*
D03*
Y140000D02*
D03*
Y138000D02*
D03*
Y136000D02*
D03*
Y134000D02*
D03*
Y132000D02*
D03*
Y130000D02*
D03*
D140*
X165360Y70100D02*
D03*
X167390D02*
D03*
X145235Y78805D02*
D03*
X147265D02*
D03*
D141*
X153775Y86125D02*
D03*
Y86625D02*
D03*
Y87125D02*
D03*
Y87625D02*
D03*
X155675D02*
D03*
Y86125D02*
D03*
Y86625D02*
D03*
Y87125D02*
D03*
D142*
Y80500D02*
D03*
X155025D02*
D03*
X154375D02*
D03*
X155675Y82450D02*
D03*
X155025D02*
D03*
X154375D02*
D03*
D143*
X141625Y104360D02*
D03*
Y103040D02*
D03*
X143275Y103700D02*
D03*
Y104360D02*
D03*
Y103040D02*
D03*
X141625Y103700D02*
D03*
D144*
X152995Y155279D02*
D03*
X154265D02*
D03*
X155535D02*
D03*
X156805D02*
D03*
X152995Y161121D02*
D03*
X154265D02*
D03*
X155535D02*
D03*
X156805D02*
D03*
D145*
X169525Y164350D02*
D03*
Y165000D02*
D03*
Y165650D02*
D03*
X171475Y164350D02*
D03*
Y165000D02*
D03*
Y165650D02*
D03*
X169525Y169350D02*
D03*
Y170000D02*
D03*
Y170650D02*
D03*
X171475Y169350D02*
D03*
Y170000D02*
D03*
Y170650D02*
D03*
X182475Y170650D02*
D03*
Y170000D02*
D03*
Y169350D02*
D03*
X180525Y170650D02*
D03*
Y170000D02*
D03*
Y169350D02*
D03*
X180525Y164350D02*
D03*
Y165000D02*
D03*
Y165650D02*
D03*
X182475Y164350D02*
D03*
Y165000D02*
D03*
Y165650D02*
D03*
X180525Y159350D02*
D03*
Y160000D02*
D03*
Y160650D02*
D03*
X182475Y159350D02*
D03*
Y160000D02*
D03*
Y160650D02*
D03*
D146*
X161150Y167476D02*
D03*
Y170524D02*
D03*
D147*
X153250Y116150D02*
D03*
D148*
X188430Y154775D02*
D03*
X142710Y149695D02*
D03*
X165570Y175730D02*
D03*
X160490Y106000D02*
D03*
X188430Y88735D02*
D03*
X132550Y88735D02*
D03*
X160490Y53810D02*
D03*
D149*
X188430Y185890D02*
D03*
X142710Y175730D02*
D03*
X188430Y123660D02*
D03*
X132550D02*
D03*
X188430Y53810D02*
D03*
X132550D02*
D03*
D150*
X167300Y133200D02*
D03*
X177300D02*
D03*
D151*
X188275Y61650D02*
D03*
Y67150D02*
D03*
D152*
X153750Y107650D02*
D03*
D153*
X141200Y93975D02*
D03*
X141700Y75805D02*
D03*
D154*
X141200Y87905D02*
D03*
D155*
X143600Y66405D02*
D03*
D156*
X161100Y64150D02*
D03*
D157*
X154725Y86875D02*
D03*
D158*
X155025Y81475D02*
D03*
D159*
X170500Y165000D02*
D03*
X170500Y170000D02*
D03*
X181500Y170000D02*
D03*
X181500Y165000D02*
D03*
X181500Y160000D02*
D03*
D160*
X147900Y104300D02*
D03*
D161*
X145400Y110200D02*
D03*
M02*
