G04*
G04 #@! TF.GenerationSoftware,Altium Limited,Altium Designer,21.7.2 (23)*
G04*
G04 Layer_Color=16711935*
%FSLAX43Y43*%
%MOMM*%
G71*
G04*
G04 #@! TF.SameCoordinates,9207B031-9538-4005-B85C-AF880B68FBDC*
G04*
G04*
G04 #@! TF.FilePolarity,Negative*
G04*
G01*
G75*
G04:AMPARAMS|DCode=88|XSize=0.52mm|YSize=0.62mm|CornerRadius=0.135mm|HoleSize=0mm|Usage=FLASHONLY|Rotation=0.000|XOffset=0mm|YOffset=0mm|HoleType=Round|Shape=RoundedRectangle|*
%AMROUNDEDRECTD88*
21,1,0.520,0.350,0,0,0.0*
21,1,0.250,0.620,0,0,0.0*
1,1,0.270,0.125,-0.175*
1,1,0.270,-0.125,-0.175*
1,1,0.270,-0.125,0.175*
1,1,0.270,0.125,0.175*
%
%ADD88ROUNDEDRECTD88*%
G04:AMPARAMS|DCode=89|XSize=0.52mm|YSize=0.62mm|CornerRadius=0.135mm|HoleSize=0mm|Usage=FLASHONLY|Rotation=90.000|XOffset=0mm|YOffset=0mm|HoleType=Round|Shape=RoundedRectangle|*
%AMROUNDEDRECTD89*
21,1,0.520,0.350,0,0,90.0*
21,1,0.250,0.620,0,0,90.0*
1,1,0.270,0.175,0.125*
1,1,0.270,0.175,-0.125*
1,1,0.270,-0.175,-0.125*
1,1,0.270,-0.175,0.125*
%
%ADD89ROUNDEDRECTD89*%
%ADD137C,1.520*%
%ADD139C,1.620*%
%ADD147R,2.520X2.520*%
%ADD148C,4.520*%
%ADD149C,6.020*%
%ADD151C,2.220*%
G04:AMPARAMS|DCode=156|XSize=3.42mm|YSize=3.42mm|CornerRadius=0.35mm|HoleSize=0mm|Usage=FLASHONLY|Rotation=0.000|XOffset=0mm|YOffset=0mm|HoleType=Round|Shape=RoundedRectangle|*
%AMROUNDEDRECTD156*
21,1,3.420,2.720,0,0,0.0*
21,1,2.720,3.420,0,0,0.0*
1,1,0.700,1.360,-1.360*
1,1,0.700,-1.360,-1.360*
1,1,0.700,-1.360,1.360*
1,1,0.700,1.360,1.360*
%
%ADD156ROUNDEDRECTD156*%
%ADD201O,2.357X0.630*%
G36*
X183711Y189200D02*
X191140Y189200D01*
Y189200D01*
X191259Y189200D01*
X191480Y189109D01*
X191649Y188940D01*
X191740Y188719D01*
Y188600D01*
X191740Y51050D01*
Y50941D01*
X191656Y50738D01*
X191502Y50584D01*
X191299Y50500D01*
X129840D01*
X129721Y50500D01*
X129500Y50591D01*
X129331Y50760D01*
X129240Y50981D01*
X129240Y51100D01*
X129240Y128379D01*
X129240Y128379D01*
X129240Y128379D01*
X129256Y128500D01*
X129287Y128575D01*
X129332Y128642D01*
X129361Y128671D01*
X138894Y138204D01*
X138979Y138289D01*
X138979Y138289D01*
X138979Y138289D01*
X138979Y138289D01*
X139075Y138403D01*
X139232Y138658D01*
X139335Y138939D01*
X139382Y139234D01*
X139384Y139384D01*
X139384Y176993D01*
X139384Y176993D01*
X139384Y176993D01*
Y176994D01*
X139393Y177111D01*
X139412Y177205D01*
X139466Y177337D01*
X139545Y177455D01*
X139596Y177506D01*
X140969Y178879D01*
X140969Y178879D01*
X140969Y178879D01*
X140970Y178879D01*
X141064Y178956D01*
X141105Y178984D01*
X141211Y179028D01*
X141324Y179050D01*
X141381Y179050D01*
X172878Y179050D01*
X172999Y179056D01*
X173237Y179103D01*
X173461Y179196D01*
X173662Y179331D01*
X173752Y179412D01*
X183419Y189079D01*
X183419Y189079D01*
X183419Y189079D01*
X183420Y189079D01*
X183516Y189153D01*
X183590Y189184D01*
X183670Y189200D01*
X183711Y189200D01*
D02*
G37*
%LPC*%
G36*
X184898Y172650D02*
X184750Y172650D01*
X150500Y172650D01*
X150500Y172650D01*
X150352D01*
X150062Y172592D01*
X149789Y172479D01*
X149544Y172315D01*
X149335Y172106D01*
X149171Y171860D01*
X149058Y171588D01*
X149000Y171298D01*
Y171150D01*
Y132250D01*
X149000Y132102D01*
X149058Y131812D01*
X149171Y131539D01*
X149335Y131294D01*
X149544Y131085D01*
X149789Y130921D01*
X150062Y130808D01*
X150352Y130750D01*
X150500Y130750D01*
X158750D01*
X158900Y130743D01*
X159195Y130791D01*
X159474Y130900D01*
X159725Y131063D01*
X159937Y131275D01*
X160100Y131526D01*
X160209Y131805D01*
X160257Y132100D01*
X160250Y132250D01*
X160250Y161650D01*
X160250Y161650D01*
X160250Y161650D01*
X160257Y161797D01*
X160314Y162086D01*
X160427Y162357D01*
X160590Y162602D01*
X160798Y162810D01*
X161043Y162973D01*
X161314Y163086D01*
X161603Y163143D01*
X161750Y163150D01*
X175250Y163150D01*
X175250Y163150D01*
X175250Y163150D01*
X175397Y163143D01*
X175686Y163086D01*
X175957Y162973D01*
X176202Y162810D01*
X176410Y162602D01*
X176573Y162357D01*
X176686Y162086D01*
X176743Y161797D01*
X176750Y161650D01*
X176750Y159650D01*
X176750Y159502D01*
X176808Y159212D01*
X176921Y158939D01*
X177085Y158694D01*
X177294Y158485D01*
X177539Y158321D01*
X177812Y158208D01*
X178102Y158150D01*
X178250Y158150D01*
X184750Y158150D01*
X184750Y158150D01*
X184750Y158150D01*
X184898Y158150D01*
X185188Y158207D01*
X185461Y158320D01*
X185707Y158484D01*
X185916Y158693D01*
X186080Y158939D01*
X186193Y159212D01*
X186250Y159502D01*
X186250Y159650D01*
X186250Y171150D01*
X186250Y171150D01*
X186250Y171150D01*
X186250Y171298D01*
X186193Y171588D01*
X186080Y171861D01*
X185915Y172106D01*
X185706Y172315D01*
X185461Y172480D01*
X185188Y172593D01*
X184898Y172650D01*
D02*
G37*
G36*
X170348Y160148D02*
X170200Y160148D01*
X170053Y160148D01*
X169763Y160091D01*
X169490Y159978D01*
X169245Y159814D01*
X169036Y159605D01*
X168872Y159360D01*
X168759Y159087D01*
X168702Y158798D01*
Y158650D01*
X168702Y158502D01*
X168759Y158213D01*
X168872Y157940D01*
X169036Y157695D01*
X169245Y157486D01*
X169490Y157322D01*
X169763Y157209D01*
X170053Y157152D01*
X170200Y157152D01*
X170200Y157152D01*
X170200Y157152D01*
X170348Y157152D01*
X170637Y157209D01*
X170910Y157322D01*
X171155Y157486D01*
X171364Y157695D01*
X171528Y157940D01*
X171641Y158213D01*
X171698Y158502D01*
X171698Y158650D01*
X171698Y158650D01*
X171698Y158650D01*
X171698Y158798D01*
X171641Y159087D01*
X171528Y159360D01*
X171364Y159605D01*
X171155Y159814D01*
X170910Y159978D01*
X170637Y160091D01*
X170348Y160148D01*
D02*
G37*
G36*
X189638Y144000D02*
X189490Y144000D01*
X186990Y144000D01*
Y144000D01*
X186990Y144000D01*
X186842Y144000D01*
X186552Y143942D01*
X186279Y143829D01*
X186034Y143665D01*
X185825Y143456D01*
X185661Y143211D01*
X185548Y142938D01*
X185490Y142648D01*
Y142500D01*
Y129500D01*
X185490D01*
X185490Y129500D01*
X185490Y129352D01*
X185548Y129062D01*
X185661Y128789D01*
X185825Y128544D01*
X186034Y128335D01*
X186279Y128171D01*
X186552Y128058D01*
X186842Y128000D01*
X189490D01*
X189638Y128000D01*
X189928Y128057D01*
X190201Y128170D01*
X190447Y128334D01*
X190656Y128543D01*
X190820Y128789D01*
X190933Y129062D01*
X190990Y129352D01*
X190990Y129500D01*
X190990Y142500D01*
X190990Y142500D01*
X190990Y142500D01*
X190990Y142648D01*
X190933Y142938D01*
X190819Y143211D01*
X190655Y143456D01*
X190446Y143665D01*
X190201Y143829D01*
X189928Y143943D01*
X189638Y144000D01*
D02*
G37*
G36*
X165102Y137500D02*
X164812Y137443D01*
X164539Y137330D01*
X164293Y137166D01*
X164084Y136957D01*
X163920Y136711D01*
X163807Y136438D01*
X163750Y136148D01*
X163750Y136000D01*
Y121500D01*
X163750Y121352D01*
X163808Y121062D01*
X163921Y120789D01*
X164085Y120544D01*
X164294Y120335D01*
X164539Y120171D01*
X164812Y120058D01*
X165102Y120000D01*
X165250Y120000D01*
X181500Y120000D01*
X181648D01*
X181938Y120058D01*
X182211Y120171D01*
X182456Y120335D01*
X182665Y120544D01*
X182829Y120789D01*
X182942Y121062D01*
X183000Y121352D01*
Y121500D01*
X183000Y121500D01*
X183000Y136000D01*
X183000Y136148D01*
X182942Y136438D01*
X182829Y136711D01*
X182665Y136956D01*
X182456Y137165D01*
X182211Y137329D01*
X181938Y137442D01*
X181648Y137500D01*
X181500Y137500D01*
X181500Y137500D01*
X181500Y137500D01*
X165250Y137500D01*
X165102Y137500D01*
D02*
G37*
G36*
X153500Y121500D02*
X153500Y121500D01*
X153352D01*
X153062Y121442D01*
X152789Y121329D01*
X152544Y121165D01*
X152335Y120956D01*
X152171Y120710D01*
X152058Y120437D01*
X152000Y120148D01*
Y119500D01*
X152000Y119500D01*
X152006Y119416D01*
X151970Y119251D01*
X151873Y119113D01*
X151731Y119023D01*
X151650Y119000D01*
X133250Y119000D01*
X133102Y119000D01*
X132812Y118942D01*
X132539Y118829D01*
X132294Y118665D01*
X132085Y118456D01*
X131921Y118211D01*
X131808Y117938D01*
X131750Y117648D01*
Y117500D01*
Y97750D01*
X131750Y97750D01*
X131748Y97577D01*
X131811Y97236D01*
X131940Y96914D01*
X132129Y96624D01*
X132250Y96500D01*
X136750Y92000D01*
X136874Y91879D01*
X137164Y91690D01*
X137486Y91561D01*
X137827Y91498D01*
X138000Y91500D01*
X145000D01*
Y91500D01*
X145000Y91500D01*
X145207Y91512D01*
X145608Y91615D01*
X145981Y91795D01*
X146312Y92045D01*
X146450Y92200D01*
X156500Y102250D01*
X156500Y102250D01*
X156500Y102250D01*
X156621Y102374D01*
X156810Y102664D01*
X156939Y102986D01*
X157002Y103327D01*
X157000Y103500D01*
X157000Y120000D01*
X157000Y120000D01*
X157000Y120000D01*
X157000Y120148D01*
X156942Y120437D01*
X156829Y120710D01*
X156665Y120956D01*
X156456Y121164D01*
X156210Y121329D01*
X155937Y121442D01*
X155648Y121500D01*
X155500Y121500D01*
X153500Y121500D01*
D02*
G37*
G36*
X184148Y117000D02*
X184000Y117000D01*
X165500Y117000D01*
X165500Y117000D01*
X165352Y117000D01*
X165062Y116942D01*
X164789Y116829D01*
X164544Y116665D01*
X164335Y116456D01*
X164171Y116211D01*
X164058Y115938D01*
X164000Y115648D01*
Y115500D01*
Y102200D01*
X164000Y102200D01*
X163997Y102131D01*
X163970Y101997D01*
X163917Y101870D01*
X163841Y101756D01*
X163744Y101659D01*
X163630Y101583D01*
X163503Y101530D01*
X163369Y101503D01*
X163300Y101500D01*
X162750Y101500D01*
X162750Y101500D01*
X162602D01*
X162312Y101442D01*
X162039Y101329D01*
X161794Y101165D01*
X161585Y100956D01*
X161421Y100711D01*
X161308Y100438D01*
X161250Y100148D01*
Y100000D01*
Y96500D01*
X161250Y96352D01*
X161308Y96062D01*
X161421Y95789D01*
X161585Y95544D01*
X161794Y95335D01*
X162039Y95171D01*
X162312Y95058D01*
X162602Y95000D01*
X162750Y95000D01*
X184000D01*
X184148Y95000D01*
X184438Y95057D01*
X184711Y95171D01*
X184956Y95335D01*
X185165Y95544D01*
X185329Y95789D01*
X185443Y96062D01*
X185500Y96352D01*
X185500Y96500D01*
X185500Y115500D01*
X185500Y115500D01*
X185500Y115500D01*
X185500Y115648D01*
X185442Y115938D01*
X185329Y116211D01*
X185165Y116456D01*
X184956Y116665D01*
X184711Y116829D01*
X184438Y116942D01*
X184148Y117000D01*
D02*
G37*
G36*
X152500Y92100D02*
X152500Y92100D01*
X152303Y92100D01*
X151917Y92023D01*
X151553Y91872D01*
X151225Y91654D01*
X150947Y91375D01*
X150728Y91047D01*
X150577Y90683D01*
X150500Y90297D01*
X150500Y90100D01*
Y79350D01*
X150500Y79153D01*
X150577Y78767D01*
X150728Y78403D01*
X150947Y78075D01*
X151225Y77796D01*
X151553Y77578D01*
X151917Y77427D01*
X152303Y77350D01*
X152500Y77350D01*
X157500D01*
X157500Y77350D01*
Y77350D01*
X157697Y77350D01*
X158083Y77427D01*
X158447Y77578D01*
X158775Y77796D01*
X159053Y78075D01*
X159272Y78403D01*
X159423Y78767D01*
X159500Y79153D01*
X159500Y79350D01*
X159500Y90100D01*
X159500Y90100D01*
X159500Y90100D01*
X159500Y90297D01*
X159423Y90683D01*
X159272Y91047D01*
X159053Y91375D01*
X158775Y91653D01*
X158447Y91872D01*
X158083Y92023D01*
X157697Y92100D01*
X157500Y92100D01*
X152500Y92100D01*
D02*
G37*
G36*
X183648Y91600D02*
X183500Y91600D01*
X183500Y91600D01*
X183500Y91600D01*
X165250Y91600D01*
X165102Y91600D01*
X164812Y91542D01*
X164539Y91429D01*
X164294Y91265D01*
X164085Y91056D01*
X163921Y90811D01*
X163808Y90538D01*
X163750Y90248D01*
X163750Y90100D01*
X163750Y82100D01*
X163751Y81952D01*
X163809Y81663D01*
X163923Y81390D01*
X164088Y81145D01*
X164298Y80937D01*
X164544Y80773D01*
X164817Y80661D01*
X165107Y80605D01*
X165255Y80605D01*
X165255Y80605D01*
X183653D01*
X183943Y80663D01*
X184216Y80776D01*
X184461Y80940D01*
X184670Y81149D01*
X184834Y81395D01*
X184947Y81667D01*
X185005Y81957D01*
X185005Y82105D01*
X185005Y82105D01*
X185000Y90100D01*
X185000Y90248D01*
X184942Y90538D01*
X184829Y90811D01*
X184665Y91056D01*
X184456Y91265D01*
X184211Y91429D01*
X183938Y91542D01*
X183648Y91600D01*
D02*
G37*
G36*
X142500Y82500D02*
X142500Y82500D01*
X142352Y82500D01*
X142062Y82442D01*
X141789Y82329D01*
X141544Y82165D01*
X141335Y81956D01*
X141171Y81711D01*
X141058Y81438D01*
X141000Y81148D01*
X141000Y81000D01*
X141000Y72500D01*
X141000Y72352D01*
X141058Y72062D01*
X141171Y71789D01*
X141335Y71544D01*
X141544Y71335D01*
X141789Y71171D01*
X142062Y71058D01*
X142352Y71000D01*
X142500Y71000D01*
X146500D01*
X146648Y71000D01*
X146938Y71058D01*
X147211Y71171D01*
X147456Y71335D01*
X147665Y71544D01*
X147829Y71789D01*
X147942Y72062D01*
X148000Y72352D01*
X148000Y72500D01*
X148000Y81000D01*
X148000D01*
X148000Y81000D01*
X148000Y81148D01*
X147942Y81438D01*
X147829Y81711D01*
X147665Y81956D01*
X147456Y82165D01*
X147211Y82329D01*
X146938Y82442D01*
X146648Y82500D01*
X146500Y82500D01*
X142500Y82500D01*
D02*
G37*
G36*
X156898Y71748D02*
X156750Y71748D01*
X156603Y71748D01*
X156313Y71691D01*
X156040Y71578D01*
X155795Y71414D01*
X155586Y71205D01*
X155422Y70960D01*
X155309Y70687D01*
X155252Y70398D01*
Y70250D01*
X155252Y70102D01*
X155309Y69813D01*
X155422Y69540D01*
X155586Y69295D01*
X155795Y69086D01*
X156040Y68922D01*
X156313Y68809D01*
X156603Y68752D01*
X156750Y68752D01*
X156898Y68752D01*
X157187Y68809D01*
X157460Y68922D01*
X157705Y69086D01*
X157914Y69295D01*
X158078Y69540D01*
X158191Y69813D01*
X158248Y70102D01*
X158248Y70250D01*
X158248Y70250D01*
X158248Y70250D01*
X158248Y70398D01*
X158191Y70687D01*
X158078Y70960D01*
X157914Y71205D01*
X157705Y71414D01*
X157460Y71578D01*
X157187Y71691D01*
X156898Y71748D01*
D02*
G37*
G36*
X188898Y69000D02*
X188750Y69000D01*
X187750Y69000D01*
X187750Y69000D01*
X187602D01*
X187312Y68942D01*
X187039Y68829D01*
X186794Y68665D01*
X186585Y68456D01*
X186421Y68210D01*
X186308Y67938D01*
X186250Y67648D01*
Y67500D01*
Y61250D01*
X186250Y61102D01*
X186308Y60812D01*
X186421Y60539D01*
X186585Y60294D01*
X186794Y60085D01*
X187039Y59921D01*
X187312Y59808D01*
X187602Y59750D01*
X187750Y59750D01*
X188750D01*
X188898Y59750D01*
X189188Y59807D01*
X189461Y59920D01*
X189707Y60084D01*
X189916Y60293D01*
X190080Y60539D01*
X190193Y60812D01*
X190250Y61102D01*
X190250Y61250D01*
X190250Y67500D01*
X190250Y67500D01*
X190250Y67500D01*
X190250Y67648D01*
X190193Y67938D01*
X190080Y68211D01*
X189915Y68456D01*
X189706Y68665D01*
X189461Y68830D01*
X189188Y68943D01*
X188898Y69000D01*
D02*
G37*
G36*
X178648Y74500D02*
X166852D01*
X166562Y74442D01*
X166289Y74329D01*
X166044Y74165D01*
X165835Y73956D01*
X165671Y73711D01*
X165558Y73438D01*
X165500Y73148D01*
Y73000D01*
Y56000D01*
Y55852D01*
X165558Y55562D01*
X165671Y55289D01*
X165835Y55044D01*
X166044Y54835D01*
X166289Y54671D01*
X166562Y54558D01*
X166852Y54500D01*
X178648D01*
X178938Y54558D01*
X179211Y54671D01*
X179456Y54835D01*
X179665Y55044D01*
X179829Y55289D01*
X179942Y55562D01*
X180000Y55852D01*
Y56000D01*
Y73000D01*
Y73148D01*
X179942Y73438D01*
X179829Y73711D01*
X179665Y73956D01*
X179456Y74165D01*
X179211Y74329D01*
X178938Y74442D01*
X178648Y74500D01*
D02*
G37*
%LPD*%
G36*
X178638Y135126D02*
X178651Y135123D01*
X178664Y135119D01*
X178676Y135113D01*
X178687Y135106D01*
X178697Y135097D01*
X178706Y135087D01*
X178713Y135076D01*
X178719Y135064D01*
X178723Y135051D01*
X178726Y135038D01*
X178727Y135025D01*
Y131375D01*
X178726Y131362D01*
X178723Y131349D01*
X178719Y131336D01*
X178713Y131324D01*
X178706Y131313D01*
X178697Y131303D01*
X178687Y131294D01*
X178676Y131287D01*
X178664Y131281D01*
X178651Y131277D01*
X178638Y131274D01*
X178625Y131273D01*
X175975D01*
X175962Y131274D01*
X175949Y131277D01*
X175936Y131281D01*
X175924Y131287D01*
X175913Y131294D01*
X175903Y131303D01*
X175894Y131313D01*
X175887Y131324D01*
X175881Y131336D01*
X175877Y131349D01*
X175874Y131362D01*
X175873Y131375D01*
Y134669D01*
X175874Y134682D01*
X175877Y134695D01*
X175881Y134708D01*
X175887Y134720D01*
X175894Y134731D01*
X175903Y134741D01*
X176259Y135097D01*
X176269Y135106D01*
X176280Y135113D01*
X176292Y135119D01*
X176305Y135123D01*
X176318Y135126D01*
X176331Y135127D01*
X178625D01*
X178638Y135126D01*
D02*
G37*
G36*
X168638D02*
X168651Y135123D01*
X168664Y135119D01*
X168676Y135113D01*
X168687Y135106D01*
X168697Y135097D01*
X168706Y135087D01*
X168713Y135076D01*
X168719Y135064D01*
X168723Y135051D01*
X168726Y135038D01*
X168727Y135025D01*
Y131375D01*
X168726Y131362D01*
X168723Y131349D01*
X168719Y131336D01*
X168713Y131324D01*
X168706Y131313D01*
X168697Y131303D01*
X168687Y131294D01*
X168676Y131287D01*
X168664Y131281D01*
X168651Y131277D01*
X168638Y131274D01*
X168625Y131273D01*
X165975D01*
X165962Y131274D01*
X165949Y131277D01*
X165936Y131281D01*
X165924Y131287D01*
X165913Y131294D01*
X165903Y131303D01*
X165894Y131313D01*
X165887Y131324D01*
X165881Y131336D01*
X165877Y131349D01*
X165874Y131362D01*
X165873Y131375D01*
Y134669D01*
X165874Y134682D01*
X165877Y134695D01*
X165881Y134708D01*
X165887Y134720D01*
X165894Y134731D01*
X165903Y134741D01*
X166259Y135097D01*
X166269Y135106D01*
X166280Y135113D01*
X166292Y135119D01*
X166305Y135123D01*
X166318Y135126D01*
X166331Y135127D01*
X168625D01*
X168638Y135126D01*
D02*
G37*
D88*
X175400Y133100D02*
D03*
Y132100D02*
D03*
X165400Y133100D02*
D03*
Y132100D02*
D03*
X165400Y130300D02*
D03*
Y131300D02*
D03*
X175240Y107000D02*
D03*
Y108000D02*
D03*
X174240Y107000D02*
D03*
Y108000D02*
D03*
X173240Y107000D02*
D03*
Y108000D02*
D03*
X172240Y102000D02*
D03*
Y101000D02*
D03*
X173240Y102000D02*
D03*
Y101000D02*
D03*
X174240Y102000D02*
D03*
Y101000D02*
D03*
X175240Y102000D02*
D03*
Y101000D02*
D03*
X175400Y131300D02*
D03*
Y130300D02*
D03*
D89*
X168050Y130800D02*
D03*
X169050D02*
D03*
X174240Y109000D02*
D03*
X175240D02*
D03*
X178240Y99000D02*
D03*
X179240D02*
D03*
X171240Y103000D02*
D03*
X170240D02*
D03*
Y101000D02*
D03*
X169240D02*
D03*
X172240Y100000D02*
D03*
X171240D02*
D03*
X177240Y103000D02*
D03*
X176240D02*
D03*
Y104000D02*
D03*
X177240D02*
D03*
X176240Y105000D02*
D03*
X177240D02*
D03*
X176240Y106000D02*
D03*
X177240D02*
D03*
X171240Y104000D02*
D03*
X170240D02*
D03*
Y105000D02*
D03*
X171240D02*
D03*
Y106000D02*
D03*
X170240D02*
D03*
Y108000D02*
D03*
X169240D02*
D03*
X168550Y135600D02*
D03*
X167550D02*
D03*
X166550D02*
D03*
X165550D02*
D03*
X176550D02*
D03*
X175550D02*
D03*
X178550D02*
D03*
X177550D02*
D03*
X179050Y130800D02*
D03*
X178050D02*
D03*
X178300Y126750D02*
D03*
X177300D02*
D03*
X177300Y125975D02*
D03*
X178300D02*
D03*
D137*
X154902Y132884D02*
D03*
Y167284D02*
D03*
D139*
X189240Y142000D02*
D03*
Y140000D02*
D03*
Y138000D02*
D03*
Y136000D02*
D03*
Y134000D02*
D03*
Y132000D02*
D03*
Y130000D02*
D03*
X187240Y142000D02*
D03*
Y140000D02*
D03*
Y138000D02*
D03*
Y136000D02*
D03*
Y134000D02*
D03*
Y132000D02*
D03*
Y130000D02*
D03*
D147*
X153250Y116150D02*
D03*
D148*
X188430Y154775D02*
D03*
X142710Y149695D02*
D03*
X165570Y175730D02*
D03*
X160490Y106000D02*
D03*
X188430Y88735D02*
D03*
X132550Y88735D02*
D03*
X160490Y53810D02*
D03*
D149*
X188430Y185890D02*
D03*
X142710Y175730D02*
D03*
X188430Y123660D02*
D03*
X132550D02*
D03*
X188430Y53810D02*
D03*
X132550D02*
D03*
D151*
X188275Y61650D02*
D03*
Y67150D02*
D03*
D156*
X161100Y64150D02*
D03*
D201*
X156902Y136584D02*
D03*
Y149584D02*
D03*
Y150584D02*
D03*
Y151584D02*
D03*
Y152584D02*
D03*
Y155584D02*
D03*
Y156584D02*
D03*
Y157584D02*
D03*
Y158584D02*
D03*
Y159584D02*
D03*
Y160584D02*
D03*
Y161584D02*
D03*
Y163584D02*
D03*
Y164584D02*
D03*
X152902Y140584D02*
D03*
Y136584D02*
D03*
X156902Y135584D02*
D03*
Y134584D02*
D03*
Y137584D02*
D03*
X152902D02*
D03*
Y135584D02*
D03*
Y138584D02*
D03*
Y141584D02*
D03*
Y134584D02*
D03*
Y139584D02*
D03*
X156902Y154584D02*
D03*
Y162584D02*
D03*
Y153584D02*
D03*
X152902Y142584D02*
D03*
Y149584D02*
D03*
Y150584D02*
D03*
Y143584D02*
D03*
Y162584D02*
D03*
Y153584D02*
D03*
Y145584D02*
D03*
Y158584D02*
D03*
Y156584D02*
D03*
Y157584D02*
D03*
Y159584D02*
D03*
Y155584D02*
D03*
Y146584D02*
D03*
Y152584D02*
D03*
Y147584D02*
D03*
Y161584D02*
D03*
Y144584D02*
D03*
Y154584D02*
D03*
Y160584D02*
D03*
Y151584D02*
D03*
Y163584D02*
D03*
Y164584D02*
D03*
Y148584D02*
D03*
X156902Y139584D02*
D03*
Y141584D02*
D03*
Y142584D02*
D03*
Y143584D02*
D03*
Y144584D02*
D03*
Y145584D02*
D03*
Y146584D02*
D03*
Y147584D02*
D03*
Y148584D02*
D03*
Y140584D02*
D03*
Y138584D02*
D03*
X152902Y165584D02*
D03*
X156902D02*
D03*
M02*
