G04*
G04 #@! TF.GenerationSoftware,Altium Limited,Altium Designer,21.7.2 (23)*
G04*
G04 Layer_Physical_Order=4*
G04 Layer_Color=8388736*
%FSLAX43Y43*%
%MOMM*%
G71*
G04*
G04 #@! TF.SameCoordinates,9207B031-9538-4005-B85C-AF880B68FBDC*
G04*
G04*
G04 #@! TF.FilePolarity,Negative*
G04*
G01*
G75*
%ADD188C,1.016*%
%ADD192C,1.908*%
%ADD193C,1.508*%
%ADD194C,0.808*%
%ADD195C,0.708*%
D188*
X128740Y51000D02*
G03*
X129740Y50000I1000J0D01*
G01*
X191240D02*
G03*
X192240Y51000I0J1000D01*
G01*
Y188700D02*
G03*
X191240Y189700I-1000J0D01*
G01*
X183785Y189700D02*
G03*
X183042Y189392I0J-1050D01*
G01*
X172755Y179540D02*
G03*
X173497Y179848I-0J1050D01*
G01*
X141372Y179540D02*
G03*
X140630Y179232I0J-1050D01*
G01*
X139207Y177812D02*
G03*
X138900Y177070I743J-742D01*
G01*
X138593Y138592D02*
G03*
X138900Y139335I-743J742D01*
G01*
X129047Y129047D02*
G03*
X128740Y128305I743J-742D01*
G01*
X129740Y50000D02*
X191240D01*
X192240Y51000D02*
Y188700D01*
X183785Y189700D02*
X191240Y189700D01*
X173497Y179848D02*
X183042Y189392D01*
X141372Y179540D02*
X172755Y179540D01*
X140629Y179234D02*
X140630Y179232D01*
X139207Y177812D02*
X140629Y179234D01*
X138900Y139335D02*
X138900Y177070D01*
X129047Y129047D02*
X138593Y138592D01*
X128740Y51000D02*
X128740Y128305D01*
D192*
X188275Y61650D02*
D03*
Y67150D02*
D03*
D193*
X187240Y142000D02*
D03*
Y140000D02*
D03*
Y138000D02*
D03*
Y136000D02*
D03*
Y134000D02*
D03*
Y132000D02*
D03*
Y130000D02*
D03*
D194*
X152700Y116700D02*
D03*
Y115600D02*
D03*
X153800D02*
D03*
Y116700D02*
D03*
X139150Y110350D02*
D03*
X138550D02*
D03*
X177450Y72570D02*
D03*
X176850D02*
D03*
X177450Y70030D02*
D03*
X176850D02*
D03*
X159550Y164584D02*
D03*
X158350Y163584D02*
D03*
X158950Y164584D02*
D03*
X159550Y163584D02*
D03*
X160150Y164584D02*
D03*
Y163584D02*
D03*
X158950D02*
D03*
X167950Y73750D02*
D03*
X168550D02*
D03*
X167950Y73250D02*
D03*
X168550D02*
D03*
X184650Y164350D02*
D03*
X166850Y164700D02*
D03*
Y165300D02*
D03*
X167450Y164700D02*
D03*
Y165300D02*
D03*
X173650Y164950D02*
D03*
Y164350D02*
D03*
X174250D02*
D03*
Y164950D02*
D03*
X167450Y169700D02*
D03*
X166850D02*
D03*
Y170300D02*
D03*
X167450D02*
D03*
X174250Y169950D02*
D03*
X173650D02*
D03*
X174250Y169350D02*
D03*
X173650D02*
D03*
X155900Y90800D02*
D03*
X155375D02*
D03*
X153100Y87250D02*
D03*
X153875Y85350D02*
D03*
X154525Y78700D02*
D03*
X155525D02*
D03*
X155025D02*
D03*
X156450Y69920D02*
D03*
Y70420D02*
D03*
X157050Y69920D02*
D03*
Y70420D02*
D03*
X147500Y75225D02*
D03*
X147000D02*
D03*
X147500Y75825D02*
D03*
X147000D02*
D03*
X162900Y169550D02*
D03*
X162900Y170550D02*
D03*
X162900Y171550D02*
D03*
X148375Y113000D02*
D03*
X150700Y101325D02*
D03*
X137950Y97925D02*
D03*
X144525Y113300D02*
D03*
Y113850D02*
D03*
X151000Y105175D02*
D03*
X151550D02*
D03*
X153000Y103950D02*
D03*
Y103400D02*
D03*
X172350Y87000D02*
D03*
X143700Y80950D02*
D03*
Y80400D02*
D03*
X136900Y94675D02*
D03*
X137450D02*
D03*
X155100Y120900D02*
D03*
X154550D02*
D03*
X154950Y111000D02*
D03*
Y111550D02*
D03*
X150102Y169550D02*
D03*
Y170550D02*
D03*
Y171550D02*
D03*
X185250Y164350D02*
D03*
X178450Y164700D02*
D03*
X177850D02*
D03*
X184650Y164950D02*
D03*
X178450Y165300D02*
D03*
X177850D02*
D03*
X185250Y164950D02*
D03*
X180775Y122900D02*
D03*
X176025Y120700D02*
D03*
X170775Y122900D02*
D03*
X166102Y90702D02*
D03*
X165452D02*
D03*
X164802D02*
D03*
X151150Y108400D02*
D03*
X141950Y96575D02*
D03*
X140950Y100875D02*
D03*
X143300Y110450D02*
D03*
X133200Y117875D02*
D03*
X158350Y164584D02*
D03*
X178450Y159700D02*
D03*
Y160300D02*
D03*
X177850Y159700D02*
D03*
Y160300D02*
D03*
X184650Y159950D02*
D03*
X185250D02*
D03*
Y159350D02*
D03*
X184650D02*
D03*
X184650Y169350D02*
D03*
X185250D02*
D03*
Y169950D02*
D03*
X184650D02*
D03*
X177850Y170300D02*
D03*
Y169700D02*
D03*
X178450Y170300D02*
D03*
Y169700D02*
D03*
X173540Y59700D02*
D03*
X170177Y81677D02*
D03*
X183952Y87452D02*
D03*
X182752D02*
D03*
X183352D02*
D03*
D195*
X166550Y136550D02*
D03*
X174750Y133950D02*
D03*
X176550Y136550D02*
D03*
Y136150D02*
D03*
X177050D02*
D03*
X178550D02*
D03*
Y136550D02*
D03*
X174750Y132450D02*
D03*
Y132950D02*
D03*
Y133450D02*
D03*
X174750Y134450D02*
D03*
Y131950D02*
D03*
X167050Y136150D02*
D03*
X166550D02*
D03*
X168550Y136550D02*
D03*
Y136150D02*
D03*
X168050Y129800D02*
D03*
X168050Y130200D02*
D03*
X164750Y131950D02*
D03*
X164400Y131450D02*
D03*
X164800D02*
D03*
X164750Y134450D02*
D03*
Y133950D02*
D03*
X164750Y133450D02*
D03*
Y132950D02*
D03*
Y132450D02*
D03*
X171125Y70242D02*
D03*
X151440Y135584D02*
D03*
X158362Y159575D02*
D03*
Y160575D02*
D03*
X169758Y158637D02*
D03*
X170608D02*
D03*
X179740Y110500D02*
D03*
X178740D02*
D03*
X177740D02*
D03*
X176740Y96500D02*
D03*
X175740D02*
D03*
X174740D02*
D03*
X172750Y57925D02*
D03*
X165050Y114242D02*
D03*
X176740Y99500D02*
D03*
X166740Y103500D02*
D03*
X165740D02*
D03*
X166740Y102500D02*
D03*
X165740D02*
D03*
X154750Y162600D02*
D03*
X154400D02*
D03*
X165740Y110500D02*
D03*
X162040Y99025D02*
D03*
Y99525D02*
D03*
Y100025D02*
D03*
X166740Y101500D02*
D03*
X165740D02*
D03*
X149925Y104050D02*
D03*
X166440Y116200D02*
D03*
X166940D02*
D03*
X167440D02*
D03*
X181540D02*
D03*
X181040D02*
D03*
X180540D02*
D03*
X180040D02*
D03*
X176050Y130150D02*
D03*
X174400Y131450D02*
D03*
X174800D02*
D03*
X179800D02*
D03*
X180675Y127375D02*
D03*
X177300Y127200D02*
D03*
X178050Y130200D02*
D03*
X177300Y127600D02*
D03*
X178050Y129800D02*
D03*
X170673Y127392D02*
D03*
X165900Y126675D02*
D03*
X168700D02*
D03*
X154500Y105125D02*
D03*
X142450Y73050D02*
D03*
X138675Y93225D02*
D03*
Y93725D02*
D03*
X166750Y124750D02*
D03*
X169800Y131450D02*
D03*
X167850Y124750D02*
D03*
X154000Y105125D02*
D03*
X165050Y116258D02*
D03*
X141950Y73280D02*
D03*
X142950D02*
D03*
X153000Y118700D02*
D03*
X153500D02*
D03*
X179190Y116200D02*
D03*
X178690D02*
D03*
X178190D02*
D03*
X177690D02*
D03*
X175340D02*
D03*
X175840D02*
D03*
X176340D02*
D03*
X176840D02*
D03*
X172990D02*
D03*
X173490D02*
D03*
X173990D02*
D03*
X174490D02*
D03*
X170640D02*
D03*
X171140D02*
D03*
X171640D02*
D03*
X172140D02*
D03*
X168290D02*
D03*
X168790D02*
D03*
X169290D02*
D03*
X169790D02*
D03*
X158362Y162575D02*
D03*
Y161575D02*
D03*
Y158575D02*
D03*
Y157575D02*
D03*
Y156575D02*
D03*
Y155575D02*
D03*
Y151575D02*
D03*
Y150575D02*
D03*
Y149575D02*
D03*
Y148575D02*
D03*
X151442Y148593D02*
D03*
Y149593D02*
D03*
Y150593D02*
D03*
Y151593D02*
D03*
Y152593D02*
D03*
Y153593D02*
D03*
Y154593D02*
D03*
Y155593D02*
D03*
Y156593D02*
D03*
Y157593D02*
D03*
Y158593D02*
D03*
Y159593D02*
D03*
Y160593D02*
D03*
Y161593D02*
D03*
Y162593D02*
D03*
Y163593D02*
D03*
Y141593D02*
D03*
Y140593D02*
D03*
X145650Y112225D02*
D03*
X177677Y82227D02*
D03*
X170740Y99500D02*
D03*
X172740Y101500D02*
D03*
X171740D02*
D03*
X170740Y106500D02*
D03*
X174740Y101500D02*
D03*
X175740D02*
D03*
X168740Y108500D02*
D03*
X175740Y109500D02*
D03*
X179740Y98500D02*
D03*
X168740Y100500D02*
D03*
X170740Y105500D02*
D03*
Y103500D02*
D03*
Y102500D02*
D03*
X172740Y107500D02*
D03*
X174740D02*
D03*
X175740D02*
D03*
X176740Y106500D02*
D03*
Y105500D02*
D03*
Y103500D02*
D03*
Y102500D02*
D03*
X166740Y106500D02*
D03*
X183140Y107000D02*
D03*
X185040Y106000D02*
D03*
Y106500D02*
D03*
Y107000D02*
D03*
Y107500D02*
D03*
X154500Y118700D02*
D03*
X151440Y136584D02*
D03*
M02*
